<?xml version="1.0" encoding="UTF-8"?>
<svg data-name="Layer 1" viewBox="0 0 452.78 200.25" xmlns="http://www.w3.org/2000/svg">
<defs>
<style>.cls-1,.cls-2{fill:#fff;}.cls-2{font-size:67.81px;font-family:BaskOldFace, Baskerville Old Face;letter-spacing:0.01em;}.cls-3{font-size:18.14px;letter-spacing:0.01em;}.cls-4{font-size:21.17px;letter-spacing:0.01em;}.cls-5{font-size:27.25px;letter-spacing:0.01em;}</style>
</defs>
<title>logo update</title>
<path class="cls-1" d="m357.8 58.52a53.44 53.44 0 0 0 6.45 13.95c3.67 5.62 6.83 10.29 10.53 10.37 4.91 0.11 7.05-8.85 12.49-18.2 9.53-16.41 23.47-23.08 23.42-24.73 0-1.07-6.39 2.31-6.94 2.61-18.64 10.36-22.1 24.66-31.42 25.3-3.28 0.23-8.15-1.18-14.53-9.3z"/>
<circle class="cls-1" cx="371.77" cy="59.19" r="5.41"/>
<path class="cls-1" d="M375.85,86.41c-3.15,1.76-.1,8-1.63,23.09-.93,9.14-2.32,9.51-2.29,15.84.06,12.48,5.53,22.07,6.2,21.87s-3-7.39-1.95-18c.61-6.13,2.26-8,3.59-15.91,1.42-8.54-.89-13.32,1-14.12s5.75,2.41,7.18,6.45c2.84,8-5.33,16.69-4.33,17.38.85.59,8.07-4.74,9.63-13.22,1.35-7.31-2.23-13.12-3.34-14.77C386.35,89.83,379.25,84.5,375.85,86.41Z"/>
<path class="cls-1" d="M424.13,30.94l-3,.2a10.08,10.08,0,0,0-7.66,4.6l-1.81,2.75,3-.21a10.07,10.07,0,0,0,7.67-4.64Z"/>
<path class="cls-1" d="M396.68,36.91l1.54,1.35a6.88,6.88,0,0,0,5.92,1.45l2.2-.46-1.57-1.36a6.85,6.85,0,0,0-5.94-1.43Z"/>
<path class="cls-1" d="M422.44,44.18,421,43a6,6,0,0,0-5.16-1.3l-1.85.4,1.43,1.22a6,6,0,0,0,5.18,1.29Z"/>
<path class="cls-1" d="M412.11,26l-.86,1.41a5.37,5.37,0,0,0-.4,4.76l.63,1.59.87-1.43a5.35,5.35,0,0,0,.38-4.77Z"/>
<path class="cls-1" d="M417.29,54.82l-.2-2.81A9.15,9.15,0,0,0,413,45l-2.45-1.59.21,2.84a9.16,9.16,0,0,0,4.18,7Z"/>
<path class="cls-1" d="M403.42,28.86l.15,2.19a7.3,7.3,0,0,0,3.35,5.57l2,1.31-.16-2.22a7.3,7.3,0,0,0-3.37-5.58Z"/>
<text class="cls-2" transform="translate(22.2 107.01)">Right Physio
<tspan class="cls-3">
<tspan x="0" y="36.26" xml:space="preserve">            </tspan>
<tspan class="cls-4" x="57.03" y="36.26" xml:space="preserve">         </tspan>
<tspan class="cls-5" x="106.95" y="36.26">find your right physio</tspan>
</tspan>
</text>
</svg>
