<svg id="Layer_1" data-name="Layer 1" xmlns="http://www.w3.org/2000/svg" viewBox="0 0 1920 977"><defs><style>.cls-1,.cls-10,.cls-11,.cls-3,.cls-4,.cls-9{fill:none;}.cls-1{stroke:#1ba265;stroke-width:2px;}.cls-2{fill:#3b2b7e;}.cls-10,.cls-11,.cls-3,.cls-4,.cls-7,.cls-8,.cls-9{stroke:#ada5c1;}.cls-3,.cls-7{stroke-miterlimit:10;}.cls-3,.cls-4,.cls-7,.cls-8,.cls-9{stroke-width:3.24px;}.cls-10,.cls-11,.cls-4,.cls-8,.cls-9{stroke-linejoin:round;}.cls-5,.cls-6{isolation:isolate;}.cls-6{font-size:73.89px;fill:#ada5c1;font-family:SourceSansPro-Light, Source Sans Pro;font-weight:300;}.cls-7,.cls-8{fill:#664ca8;}.cls-9{stroke-linecap:round;}.cls-10{stroke-width:3.5px;}.cls-11{stroke-width:2.05px;}</style></defs><title>carrer1</title><line id="Line_4-2" data-name="Line 4-2" class="cls-1" x1="883.65" y1="280.57" x2="1030.65" y2="280.57"/><path id="Path_1157" data-name="Path 1157" class="cls-2" d="M1-.53V475.38C1,676,183.79,838.6,409.28,838.6l11.45-7.23c323.51-204.49,757-204.49,1080.54,0l11.45,7.23C1738.21,838.6,1921,676,1921,475.38V-.53A2.64,2.64,0,0,0,1918.22-3H3.78A2.64,2.64,0,0,0,1-.53Z"/><g id="Group_359" data-name="Group 359"><g id="Group_358" data-name="Group 358"><line id="Line_18" data-name="Line 18" class="cls-3" x1="1021.69" y1="678.69" x2="1212.11" y2="678.69"/><line id="Line_19" data-name="Line 19" class="cls-3" x1="973.8" y1="611" x2="1045.65" y2="611"/><path id="Path_1158" data-name="Path 1158" class="cls-4" d="M1299.07,410h55c0-14.63,13.18-26.5,29.44-26.5a33,33,0,0,1,6,.56c3.75-22,24.88-38.85,50.38-38.85,25.34,0,46.35,16.64,50.3,38.44,1.07-.08,2.15-.15,3.25-.15,20.81,0,37.68,15.19,37.68,33.91a30.13,30.13,0,0,1-.59,5.84"/><g id="Group_347" data-name="Group 347"><path id="Path_1159" data-name="Path 1159" class="cls-3" d="M794.06,519.28H640.13c-12.59,0-22.8,9.18-22.8,20.52v67.84c0,11.34,10.21,20.52,22.8,20.52H644v21.66l21.2-21.66H794.06c12.6,0,22.8-9.18,22.8-20.52V539.8C816.86,528.47,806.66,519.28,794.06,519.28Z"/><g id="JOB" class="cls-5"><text class="cls-6" transform="translate(650.33 594.06)">JOB</text></g></g><g id="Group_348" data-name="Group 348"><ellipse id="Ellipse_23" data-name="Ellipse 23" class="cls-3" cx="1015.16" cy="456.08" rx="36.56" ry="32.9"/><rect id="Rectangle_58" data-name="Rectangle 58" class="cls-3" x="865.22" y="418.07" width="66.47" height="76.03"/><path id="Path_1160" data-name="Path 1160" class="cls-7" d="M931.69,494.09l95.07,21.34V396.72l-95.07,21.35Z"/><rect id="Rectangle_59" data-name="Rectangle 59" class="cls-3" x="845.21" y="428.58" width="20.01" height="54.99"/><rect id="Rectangle_60" data-name="Rectangle 60" class="cls-3" x="878.85" y="494.09" width="26.99" height="100.74"/><rect id="Rectangle_61" data-name="Rectangle 61" class="cls-3" x="905.84" y="520.56" width="12.13" height="29.12"/><line id="Line_20" data-name="Line 20" class="cls-3" x1="1069.51" y1="456.08" x2="1112.49" y2="456.08"/><line id="Line_21" data-name="Line 21" class="cls-3" x1="1069.51" y1="432.07" x2="1103.59" y2="421.4"/><line id="Line_22" data-name="Line 22" class="cls-3" x1="1069.51" y1="480.09" x2="1103.59" y2="490.76"/></g><g id="Group_349" data-name="Group 349"><path id="Path_1161" data-name="Path 1161" class="cls-3" d="M1401.29,603.69c0,6.73-6.07,12.19-13.54,12.19s-13.54-5.46-13.54-12.19,6.06-12.19,13.54-12.19S1401.29,597,1401.29,603.69Z"/><path id="Path_1162" data-name="Path 1162" class="cls-7" d="M1436.85,530.27c0-25.1-23.26-45.32-51.44-44.14-25.3,1.05-46,20-46.74,42.76-.61,17.94,10.7,33.52,27.3,40.94v23.41c0,5.77,5.2,10.45,11.6,10.45h20.35c6.41,0,11.61-4.68,11.61-10.45V569.83C1425.7,562.6,1436.85,547.62,1436.85,530.27Z"/><path id="Path_1163" data-name="Path 1163" class="cls-8" d="M1387.75,548.71,1368.4,531.3h38.7Z"/><line id="Line_23" data-name="Line 23" class="cls-4" x1="1387.75" y1="548.71" x2="1387.75" y2="579.06"/><line id="Line_24" data-name="Line 24" class="cls-9" x1="1363.48" y1="580.11" x2="1411.8" y2="580.11"/><line id="Line_25" data-name="Line 25" class="cls-9" x1="1363.48" y1="586.27" x2="1411.8" y2="586.27"/><line id="Line_26" data-name="Line 26" class="cls-9" x1="1363.48" y1="592.43" x2="1411.8" y2="592.43"/></g><g id="Group_350" data-name="Group 350"><rect id="Rectangle_62" data-name="Rectangle 62" class="cls-8" x="1515.31" y="410.96" width="83.69" height="248.92"/><rect id="Rectangle_63" data-name="Rectangle 63" class="cls-8" x="1599" y="495.62" width="164.89" height="164.26"/><rect id="Rectangle_64" data-name="Rectangle 64" class="cls-4" x="1532.92" y="433.03" width="7.41" height="29.76"/><rect id="Rectangle_65" data-name="Rectangle 65" class="cls-4" x="1553.45" y="433.03" width="7.41" height="29.76"/><rect id="Rectangle_66" data-name="Rectangle 66" class="cls-4" x="1573.97" y="433.03" width="7.41" height="29.76"/><rect id="Rectangle_67" data-name="Rectangle 67" class="cls-4" x="1532.92" y="476.13" width="7.41" height="29.76"/><rect id="Rectangle_68" data-name="Rectangle 68" class="cls-4" x="1553.45" y="476.13" width="7.41" height="29.76"/><rect id="Rectangle_69" data-name="Rectangle 69" class="cls-4" x="1573.97" y="476.13" width="7.41" height="29.76"/><rect id="Rectangle_70" data-name="Rectangle 70" class="cls-4" x="1532.92" y="519.23" width="7.41" height="29.76"/><rect id="Rectangle_71" data-name="Rectangle 71" class="cls-4" x="1553.45" y="519.23" width="7.41" height="29.76"/><rect id="Rectangle_72" data-name="Rectangle 72" class="cls-4" x="1573.97" y="519.23" width="7.41" height="29.76"/><rect id="Rectangle_73" data-name="Rectangle 73" class="cls-4" x="1532.92" y="562.33" width="7.41" height="29.76"/><rect id="Rectangle_74" data-name="Rectangle 74" class="cls-4" x="1553.45" y="562.33" width="7.41" height="29.76"/><rect id="Rectangle_75" data-name="Rectangle 75" class="cls-4" x="1573.97" y="562.33" width="7.41" height="29.76"/><rect id="Rectangle_76" data-name="Rectangle 76" class="cls-4" x="1532.92" y="605.43" width="7.41" height="29.76"/><rect id="Rectangle_77" data-name="Rectangle 77" class="cls-4" x="1553.45" y="605.43" width="7.41" height="29.76"/><rect id="Rectangle_78" data-name="Rectangle 78" class="cls-4" x="1573.97" y="605.43" width="7.41" height="29.76"/><rect id="Rectangle_79" data-name="Rectangle 79" class="cls-8" x="1624.29" y="513.07" width="25.37" height="22.83"/><rect id="Rectangle_80" data-name="Rectangle 80" class="cls-8" x="1668.76" y="513.07" width="25.37" height="22.83"/><rect id="Rectangle_81" data-name="Rectangle 81" class="cls-8" x="1713.23" y="513.07" width="25.37" height="22.83"/><rect id="Rectangle_82" data-name="Rectangle 82" class="cls-8" x="1624.29" y="550.01" width="25.37" height="22.83"/><rect id="Rectangle_83" data-name="Rectangle 83" class="cls-8" x="1668.76" y="550.01" width="25.37" height="22.83"/><rect id="Rectangle_84" data-name="Rectangle 84" class="cls-8" x="1713.23" y="550.01" width="25.37" height="22.83"/><rect id="Rectangle_85" data-name="Rectangle 85" class="cls-8" x="1624.29" y="586.96" width="25.37" height="22.83"/><rect id="Rectangle_86" data-name="Rectangle 86" class="cls-8" x="1668.76" y="586.96" width="25.37" height="22.83"/><rect id="Rectangle_87" data-name="Rectangle 87" class="cls-8" x="1713.23" y="586.96" width="25.37" height="22.83"/><rect id="Rectangle_88" data-name="Rectangle 88" class="cls-8" x="1624.29" y="623.9" width="25.37" height="22.83"/><rect id="Rectangle_89" data-name="Rectangle 89" class="cls-8" x="1668.76" y="623.9" width="25.37" height="22.83"/><rect id="Rectangle_90" data-name="Rectangle 90" class="cls-8" x="1713.23" y="623.9" width="25.37" height="22.83"/><rect id="Rectangle_91" data-name="Rectangle 91" class="cls-8" x="1624.29" y="462.79" width="69.84" height="32.84"/><rect id="Rectangle_92" data-name="Rectangle 92" class="cls-8" x="1521.01" y="361.19" width="15.61" height="49.77"/><line id="Line_27" data-name="Line 27" class="cls-4" x1="1526.15" y1="317.07" x2="1526.15" y2="361.19"/><line id="Line_28" data-name="Line 28" class="cls-4" x1="1553.45" y1="346.31" x2="1553.45" y2="410.96"/><line id="Line_29" data-name="Line 29" class="cls-4" x1="1636.97" y1="433.03" x2="1636.97" y2="462.79"/><line id="Line_30" data-name="Line 30" class="cls-4" x1="1708.58" y1="413.53" x2="1708.58" y2="495.62"/><line id="Line_31" data-name="Line 31" class="cls-4" x1="1725.91" y1="447.91" x2="1725.91" y2="495.62"/><rect id="Rectangle_93" data-name="Rectangle 93" class="cls-8" x="1501.63" y="659.88" width="272.52" height="14.3"/></g><path id="Path_1164" data-name="Path 1164" class="cls-4" d="M630,423.08H547c0-22.08-19.89-40-44.42-40a49.65,49.65,0,0,0-9.11.84c-5.67-33.2-37.55-58.63-76-58.63-38.24,0-69.95,25.11-75.91,58-1.62-.13-3.25-.22-4.9-.22-31.4,0-56.86,22.91-56.86,51.17a45.69,45.69,0,0,0,.89,8.8H114.15"/><g id="Group_357" data-name="Group 357"><g id="Group_351" data-name="Group 351"><line id="Line_32" data-name="Line 32" class="cls-10" x1="434.37" y1="424.74" x2="434.37" y2="388.9"/><line id="Line_33" data-name="Line 33" class="cls-10" x1="434.37" y1="569" x2="434.37" y2="533.16"/></g><g id="Group_352" data-name="Group 352"><line id="Line_34" data-name="Line 34" class="cls-10" x1="404.26" y1="432.01" x2="384.34" y2="400.96"/><line id="Line_35" data-name="Line 35" class="cls-10" x1="484.4" y1="556.93" x2="464.49" y2="525.89"/></g><g id="Group_353" data-name="Group 353"><line id="Line_36" data-name="Line 36" class="cls-10" x1="382.21" y1="451.85" x2="347.72" y2="433.92"/><line id="Line_37" data-name="Line 37" class="cls-10" x1="521.03" y1="523.98" x2="486.54" y2="506.05"/></g><g id="Group_354" data-name="Group 354"><line id="Line_38" data-name="Line 38" class="cls-10" x1="374.14" y1="478.95" x2="334.31" y2="478.95"/><line id="Line_39" data-name="Line 39" class="cls-10" x1="534.43" y1="478.95" x2="494.6" y2="478.95"/></g><g id="Group_355" data-name="Group 355"><line id="Line_40" data-name="Line 40" class="cls-10" x1="382.21" y1="506.05" x2="347.72" y2="523.98"/><line id="Line_41" data-name="Line 41" class="cls-10" x1="521.03" y1="433.92" x2="486.54" y2="451.85"/></g><g id="Group_356" data-name="Group 356"><line id="Line_43" data-name="Line 43" class="cls-10" x1="484.4" y1="400.96" x2="464.49" y2="432.01"/></g></g><rect id="Rectangle_94" data-name="Rectangle 94" class="cls-4" x="464.29" y="674" width="21.38" height="72.07"/><rect id="Rectangle_95" data-name="Rectangle 95" class="cls-4" x="443.76" y="683.36" width="20.52" height="53.34"/><rect id="Rectangle_96" data-name="Rectangle 96" class="cls-4" x="539.54" y="674" width="21.38" height="72.07"/><rect id="Rectangle_97" data-name="Rectangle 97" class="cls-4" x="560.92" y="683.36" width="20.52" height="53.34"/><rect id="Rectangle_98" data-name="Rectangle 98" class="cls-4" x="485.67" y="701.25" width="53.88" height="17.56"/><path id="Path_1165" data-name="Path 1165" class="cls-4" d="M1261.68,575.89h-10.31a47.4,47.4,0,0,0-7.65-16.58l7.3-6.57a4.42,4.42,0,0,0,.48-6.24,4.35,4.35,0,0,0-.48-.48l-9.4-8.46a5.7,5.7,0,0,0-7.47,0l-7.3,6.57a59.26,59.26,0,0,0-18.42-6.88V528a5,5,0,0,0-5.28-4.75h-13.29a5,5,0,0,0-5.28,4.75v9.27a59.38,59.38,0,0,0-18.42,6.89l-7.3-6.57a5.68,5.68,0,0,0-7.46,0L1142,546a4.42,4.42,0,0,0-.49,6.24,3.78,3.78,0,0,0,.49.49l7.3,6.57a47.64,47.64,0,0,0-7.66,16.57h-10.3a5,5,0,0,0-5.28,4.76v12a5,5,0,0,0,5.28,4.75h10.31a47.58,47.58,0,0,0,7.65,16.58l-7.3,6.57a4.42,4.42,0,0,0-.48,6.24,5.44,5.44,0,0,0,.48.48l9.4,8.46a5.72,5.72,0,0,0,7.47,0l7.3-6.58a59,59,0,0,0,18.42,6.89v9.28a5,5,0,0,0,5.28,4.75h13.29a5,5,0,0,0,5.28-4.75V636a59.36,59.36,0,0,0,18.42-6.88l7.3,6.57a5.72,5.72,0,0,0,7.47,0l9.4-8.46a4.43,4.43,0,0,0,.48-6.24,5.44,5.44,0,0,0-.48-.48l-7.3-6.57a47.76,47.76,0,0,0,7.65-16.58h10.3a5,5,0,0,0,5.28-4.75v-12A5,5,0,0,0,1261.68,575.89Zm-65.17,45.94c-21.61,0-39.12-15.76-39.12-35.21s17.51-35.21,39.12-35.21,39.13,15.76,39.13,35.21-17.52,35.21-39.13,35.21Z"/><path id="Path_1166" data-name="Path 1166" class="cls-8" d="M1294.89,625.24h-7.47a34.64,34.64,0,0,0-5.55-12l5.3-4.76a3.22,3.22,0,0,0,.35-4.53c-.11-.12-.23-.24-.35-.35l-6.82-6.14a4.16,4.16,0,0,0-5.42,0l-5.3,4.77a42.91,42.91,0,0,0-13.36-5v-6.72a3.65,3.65,0,0,0-3.83-3.45h-9.64a3.65,3.65,0,0,0-3.83,3.45v6.72a42.91,42.91,0,0,0-13.36,5l-5.3-4.77a4.16,4.16,0,0,0-5.42,0l-6.82,6.14a3.21,3.21,0,0,0-.35,4.53c.11.12.23.24.35.35l5.3,4.76a34.64,34.64,0,0,0-5.55,12h-7.48a3.66,3.66,0,0,0-3.83,3.45v8.68a3.66,3.66,0,0,0,3.83,3.45h7.48a34.59,34.59,0,0,0,5.55,12l-5.3,4.77a3.2,3.2,0,0,0-.35,4.52,2.89,2.89,0,0,0,.35.35l6.82,6.14a4.13,4.13,0,0,0,5.42,0l5.3-4.77a42.91,42.91,0,0,0,13.36,5v6.73a3.65,3.65,0,0,0,3.83,3.45h9.64a3.65,3.65,0,0,0,3.83-3.45v-6.73a42.91,42.91,0,0,0,13.36-5l5.3,4.77a4.13,4.13,0,0,0,5.42,0l6.82-6.14a3.21,3.21,0,0,0,.35-4.52,3.85,3.85,0,0,0-.35-.35l-5.3-4.77a34.59,34.59,0,0,0,5.55-12h7.48a3.66,3.66,0,0,0,3.83-3.45v-8.68A3.66,3.66,0,0,0,1294.89,625.24Zm-47.27,33.33c-15.68,0-28.39-11.44-28.39-25.55s12.71-25.54,28.39-25.54S1276,618.92,1276,633,1263.29,658.57,1247.62,658.57Z"/><line id="Line_44" data-name="Line 44" class="cls-4" x1="658.59" y1="335.08" x2="927.35" y2="335.08"/><line id="Line_45" data-name="Line 45" class="cls-4" x1="946.24" y1="310.19" x2="1039.81" y2="310.19"/></g><line id="Line_46" data-name="Line 46" class="cls-3" x1="239.39" y1="650.3" x2="476.93" y2="650.3"/></g><path class="cls-4" d="M403.63,523.25a12.68,12.68,0,0,1-7-5.2,13,13,0,0,1-4.35-4.46L323.9,603.85a11.8,11.8,0,0,0,18.8,14.25l68.6-90.52A12.66,12.66,0,0,1,403.63,523.25Z"/><rect class="cls-4" x="353.27" y="568.06" width="7.22" height="23.59" transform="translate(-320.8 513.99) rotate(-52.84)"/><path class="cls-4" d="M341.29,580.9l-17.39,23a11.8,11.8,0,0,0,18.8,14.25l17.39-23Z"/><circle class="cls-11" cx="433.12" cy="479.28" r="53.56" transform="translate(-60.26 896.27) rotate(-88.1)"/><circle class="cls-11" cx="433.12" cy="479.28" r="43.32" transform="translate(-36.63 35.84) rotate(-4.55)"/><path class="cls-11" d="M396.64,472a37.2,37.2,0,0,1,58.94-22.36"/><path class="cls-11" d="M410.66,508.91A36.93,36.93,0,0,1,397.51,490"/></svg>