<svg xmlns="http://www.w3.org/2000/svg" viewBox="0 0 70.25 75.18" fill="none" stroke="#00a651" stroke-width="1.13"><path d="M35.75 35.77c-2.85-.86-3.46-1.3-3.46-2.5s1.94-1.54 3.1-1.54a6.36 6.36 0 0 1 3.16.84.66.66 0 0 0 .92-.2h0l1.44-2.23a.66.66 0 0 0-.19-.92h0a9.91 9.91 0 0 0-3.93-1.39v-1.38a.67.67 0 0 0-.66-.66h-2.67a.66.66 0 0 0-.66.66v1.6c-2.8.74-4.5 2.7-4.5 5.22 0 4.42 3.8 5.57 6.3 6.33 2.7.8 3.25 1.2 3.24 2.2s-1.86 1.43-3 1.43a5.43 5.43 0 0 1-3.68-1.48.66.66 0 0 0-.94 0l-1.94 1.83a.67.67 0 0 0 0 .94 9.05 9.05 0 0 0 4.5 2.48v1.5a.67.67 0 0 0 .67.67h2.67a.67.67 0 0 0 .66-.67v-1.45c3.1-.57 5-2.58 5-5.23.08-4.2-3.6-5.3-6.03-6.05zm-.63-21.2a23 23 0 1 0 23 23 23 23 0 0 0-23-23zm0 41.36a18.35 18.35 0 1 1 18.35-18.34h0a18.34 18.34 0 0 1-18.35 18.34z"/></svg>