<svg xmlns="http://www.w3.org/2000/svg" viewBox="0 0 70.25 75.18" fill="none" stroke="#00a651"><g stroke-linecap="round" stroke-width="1.3"><path d="M14.1 38.23l3.25 3.25m16 11s6.12 3.75 7.93 0c0 0 2.5.55 3.34-1a2.09 2.09 0 0 0-.17-2.47s2.8 1.46 3.92-.35a2.37 2.37 0 0 0 0-3S50.5 47 52 45.47s-.65-3.62-.65-3.62L35.7 31s-2.4-.74-3.38.83-3.52 5.38-7.65 2.88l4.54-7.52s1.67-2.36 6.77-2 11.1 2 13.08.8"/><path d="M51.66 42.17l4.32-3.7m-7.65 7.18l-7.98-5.24m4.1 8.56l-6.84-4.25m3.67 7.75l-5.98-4"/></g><path d="M20.05 45.56a2.3 2.3 0 0 1-3.24 0h0a2.29 2.29 0 0 1 0-3.24L18.13 41a2.28 2.28 0 0 1 3.23 0h0a2.3 2.3 0 0 1 0 3.24zm11.63 8.57a2.4 2.4 0 0 1-3.39 0h0a2.39 2.39 0 0 1 0-3.39l1.37-1.37a2.41 2.41 0 0 1 3.4 0h0a2.41 2.41 0 0 1 0 3.4z" stroke-width="1.3"/><path d="M24,48.76a2.54,2.54,0,0,1-3.59,0h0a2.53,2.53,0,0,1,0-3.59l2.24-2.25a2.54,2.54,0,0,1,3.59,0h0a2.55,2.55,0,0,1,0,3.6Z" stroke-width="1.3"/><path d="M27.15 51.87a2.21 2.21 0 0 1-3.12 0h0a2.22 2.22 0 0 1 0-3.13l2.84-2.83a2.21 2.21 0 0 1 3.13 0h0A2.21 2.21 0 0 1 30 49zM13.05 39.8a.36.36 0 0 1-.5.11l-5.43-3.44A.36.36 0 0 1 7 36l9.8-15.44a.37.37 0 0 1 .51-.11h0l5.42 3.45a.35.35 0 0 1 .12.5zm43.85.4a.35.35 0 0 0 .49.15l5.7-3a.37.37 0 0 0 .16-.5l-8.4-16.18a.36.36 0 0 0-.49-.16h0l-5.7 3a.37.37 0 0 0-.17.49h0z" stroke-width="1.3"/><path d="M28.7 28.07a11.56 11.56 0 0 1-7-1.95" stroke-linecap="round" stroke-width="1.3"/></svg>