<svg xmlns="http://www.w3.org/2000/svg" viewBox="0 0 70.25 75.18" fill="none" stroke="#00a651" stroke-width="1.05"><path d="M15.9 35.36h5.57a.57.57 0 0 1 .57.57v18.35a.57.57 0 0 1-.57.57H15.9a.58.58 0 0 1-.57-.57V35.93a.58.58 0 0 1 .57-.57zm36 20.24a2.5 2.5 0 0 1-2.5 2.5h-7.15a2.5 2.5 0 0 1-2.5-2.5h0a2.5 2.5 0 0 1 2.5-2.5h7.15a2.5 2.5 0 0 1 2.5 2.5z"/><path d="M53.9 50.18A2.91 2.91 0 0 1 51 53.09h-8.35a2.91 2.91 0 0 1-2.91-2.91h0a2.92 2.92 0 0 1 2.91-2.91H51a2.91 2.91 0 0 1 2.89 2.91z"/><path d="M54.9 44a3.32 3.32 0 0 1-3.31 3.32h-9.46A3.32 3.32 0 0 1 38.82 44h0a3.31 3.31 0 0 1 3.31-3.3h9.46A3.31 3.31 0 0 1 54.9 44zm0-6.65a3.31 3.31 0 0 1-3.3 3.31h-7.53a3.31 3.31 0 0 1-3.31-3.31h0A3.31 3.31 0 0 1 44.07 34h7.53a3.31 3.31 0 0 1 3.3 3.35z"/><path d="M22.05 37h3.74s13.7-11.67 13.7-16.5 5.62-4.74 5.62 1.74-5.64 10.76-2.8 12.3M22.05 53.4h5s1.3 4.7 15.22 4.7" stroke-linecap="round"/></svg>