<svg xmlns="http://www.w3.org/2000/svg" viewBox="0 0 70.25 75.18" fill="none" stroke="#00a651" stroke-width=".9"><path d="M34.6 42.94s-.82-.8 3.56-.9c0 0 9-.48 11.7-1.94 0 0 .58-2.48-2.93-2.14s-6.2 1-9.2.92-8.95-1.7-13-1.56-6.9 2.58-9.77 7.3L9.4 53.7h10.7s0-3.2 2.36-4.67 6.06-2.2 12.65-1.6 14.36 1.1 16.6.3 7.83-6.5 9.12-8.43c0 0-1.3-3.44-4.43-.26s-3.92 4.1-5.4 4.15-3.92-1.43-5.33-1.36-3 .7-4.3.8-6.78.3-6.78.3zM46 29.3a.83.83 0 0 1-1.43-.57.17.17 0 0 0 0-.12l-3-2.74a.41.41 0 0 1 0-.57.4.4 0 0 1 .57 0h0l3 2.68a.09.09 0 0 0 .09 0 .81.81 0 0 1 .31-.06.8.8 0 0 1 .49.16.11.11 0 0 0 .12 0l2.08-.83a.546.546 0 1 1 .44 1h0l-2.44 1a.27.27 0 0 0-.23.05zm-.58-7.83a7.22 7.22 0 1 1-7.22 7.22 7.21 7.21 0 0 1 7.22-7.22zm5.7 8h-.27a.79.79 0 1 1 0-1.57h.3A5.76 5.76 0 0 0 46.2 23v.28a.79.79 0 0 1-1.57 0V23a5.77 5.77 0 0 0-4.91 4.91H40a.79.79 0 0 1 0 1.57h-.27a5.76 5.76 0 0 0 4.91 4.9v-.27a.79.79 0 1 1 1.57 0v.27a5.75 5.75 0 0 0 4.91-4.91z"/></svg>