<svg xmlns="http://www.w3.org/2000/svg" viewBox="0 0 300 300"><style><![CDATA[.h{fill:#eec09b}.i{fill:#dba77f}.j{fill:#e6e7e8}.k{fill:#dfae83}.l{fill:#1c1e21}.m{fill:#e9e5d0}.n{fill:#352311}.o{fill:#3b2b7e}.p{fill:#047735}]]></style><path d="M211.2 159.56C206 142 190.14 120 190.14 120s-3.95-8-8.22-2.3 1.64 11.56 1.64 11.56c6.8 8.82 18 29.26 18 29.26-4.25 5.82-14.6 13.22-20.5 17.18a6.45 6.45 0 0 0-1.17 0s-11.43 3.44-13.54 11 1.6 8.4 1.6 8.4a1.55 1.55 0 0 0 1.46-.74s.9 2.5 3.36.46c0 0 1.92.8 3.4-1.57a9.42 9.42 0 0 1 6-8 5.33 5.33 0 0 0 2.9-2.56c17.43-11.48 26.16-23.14 26.16-23.14z" class="k"/><path d="M221.88 265.96l-2.26-9.38h-5.88l2.25 10.14 5.9-.76zm-26.5 0l-2.25-9.38h-5.88l2.25 10.14 5.88-.76z" class="h"/><path d="M226.7 169s.45 29.08-23.8 29.08c-25.38 0-20-29.08-20-29.08z" class="l"/><path d="M227.1 171.36a77.12 77.12 0 0 1-7.72 1.65c-8.52 1.45-22.66 2.72-34.76-1.56-.66-.23-1.3-.48-2-.75 0 0 2.18-17.74-.73-34-1.52-8.47-.7-14.3 2.12-18.5h0c3-4.42 8.12-7.06 15.1-9.08a18.1 18.1 0 0 1 16.38 7.09l.08.12c6.64 8.78 14.8 32.9 11.53 55.04z" fill="#e9ba92"/><path d="M227.1 171.36a77.12 77.12 0 0 1-7.72 1.65c4-23.32-10.7-48.06-10.7-48.06l6.92-8.63c6.6 8.78 14.77 32.9 11.5 55.04z" class="k"/><path d="M207.24 58.87s7.8 6.87 5.36 21.6c-2.2 13.36-1 14.52.73 16.16a7.82 7.82 0 0 1-4.59-3.2s1.93 5.56 4.4 5.27c0 0-8.85 4.86-14.73-.87 0 0 6.87-37.57 8.82-38.97z" class="j"/><g fill="#e9ba92"><path d="M187.72 113.5l12.56-1.56-4.5-15.97-12.9 3.06 4.85 14.47z"/><path d="M199.16 109.1s2.37-.9 1.55 3.16c-1.32 6.5-4.76 17.45-9.94 13-6.3-5.46-3.9-11.88-3.9-11.88z"/></g><ellipse cx="192.06" cy="107.9" rx="6.68" ry="5.1" transform="matrix(.931501 -.363739 .363739 .931501 -26.09 77.26)" fill="#cb976e"/><path d="M163.52 86.9h0a5.07 5.07 0 0 0 5.33-4.81l.38-6.07a5.13 5.13 0 0 0-4.71-5.46h0a5.09 5.09 0 0 0-5.33 4.81l-.38 6.07a5.12 5.12 0 0 0 4.71 5.46z" class="i"/><path d="M207.37 62.55l-1.8 29c-.63 10.36-13.87 18-25.87 17.24l-2.9-.18a16.08 16.08 0 0 1-11.09-5c-4-4.26-5.7-10.8-5.25-18l1.6-25.92A18.75 18.75 0 0 1 179.14 42a19.1 19.1 0 0 1 2.51 0l8.46.55a18.78 18.78 0 0 1 17.26 20z" class="h"/><path d="M164 57.34l-2 30.4c.2 7.2 2.55 9.88 2.55 9.88l1.13 5.92c-4-4.26-5.7-10.8-5.25-18l1.6-25.92A18.75 18.75 0 0 1 179.14 42h0C164.5 44.25 164 57.34 164 57.34z" fill="#fccda6"/><path d="M190.1 42.53l-8.46-.53a18.92 18.92 0 0 0-2.5 0l7.3.47a18.79 18.79 0 0 1 17.26 20l-1.8 29c-.6 9.48-11.73 16.7-22.83 17.25h.62c12 .78 25.24-6.88 25.88-17.24l1.78-28.95a18.78 18.78 0 0 0-17.26-20z" class="k"/><path d="M175.42 81.43s-4.84 4.9 1.24 6.3c0 0-8.54-.55-1.24-6.3z" class="i"/><g fill="#eec9ab"><ellipse cx="190.21" cy="86.41" rx="2.28" ry="3.71" transform="matrix(.065926 -.997825 .997825 .065926 91.44 270.5)"/><path d="M163.1 84.14c-.08 1.25 1.37 2.37 3.24 2.5s3.45-.8 3.53-2.06-1.38-2.37-3.25-2.5-3.44.8-3.52 2.06z"/></g><path d="M183.12 70.57a10.31 10.31 0 0 1 12.08 3.78l1.6-2.45s-3.65-7.44-13.28-4.46zm-11-.14s-5.27-5.08-9.86.86l-1-2.42s4.13-5.94 10.94-1.6z" class="j"/><path d="M205.7 89.6h0a5.09 5.09 0 0 0 5.3-4.81l.37-6.07a5.12 5.12 0 0 0-4.7-5.46h0a5.1 5.1 0 0 0-5.34 4.81l-.33 6.07a5.11 5.11 0 0 0 4.7 5.46z" class="h"/><path d="M203.45 85.8s-1.2-8.7 3-9.8c0 0-2 2.7-1.2 4.9 0 0 1.5.22 1.4 2.93s-2.52 3.04-3.18 1.95z" class="i"/><path d="M167.25 93a15.12 15.12 0 0 1 16.09 1.6c8.93 6.9-25.04 4.24-16.1-1.6z" class="h"/><path d="M224.1 181.12s-15.9 27.25-2.68 76.68H210s-14.4-38.86-2.63-70zm-23.82 2.82s-17.75 24.43-4.53 73.86h-11.38s-10-51.44 1.8-82.6z" class="l"/><path d="M224.1 276.08h-30.5a5.41 5.41 0 0 1 1.39-1.93c5.4-5.1 22.44-8.2 22.44-8.2h4.45l1.8 8.2z" fill="#636b62"/><path d="M224.1 276.08h-30.5a5.41 5.41 0 0 1 1.39-1.93h28.7z" class="l"/><path d="M197.68 276.08h-30.5a5.41 5.41 0 0 1 1.39-1.93C174 269.06 191 266 191 266h4.45l1.8 8.2z" fill="#636b62"/><path d="M197.68 276.08h-30.5a5.41 5.41 0 0 1 1.39-1.93h28.7z" class="l"/><path d="M238.9 156.7s-8.4 11.92-25.53 23.92a5.36 5.36 0 0 1-2.82 2.65 9.4 9.4 0 0 0-5.74 8.18 3.91 3.91 0 0 1-1.23 1.35 2.47 2.47 0 0 1-2.11.32c-2.42 2.1-3.38-.35-3.38-.35a1.55 1.55 0 0 1-1.44.78 3 3 0 0 1-2-2.06h0c-.47-1.24-.63-3.2.14-6.3 1.88-7.6 13.2-11.4 13.2-11.4a7.7 7.7 0 0 1 1.17 0c5.8-4.14 15.92-11.85 20-17.8 0 0-11.1-19-18.2-27.93l-.62-.76s-6.08-5.63-2-11.5c2-2.82 4-2.46 5.5-1.32h0a11.5 11.5 0 0 1 2.79 3.37s16.5 21.5 22.28 38.85z" class="h"/><path d="M175.3 89.83s9.25 0 12.35 5.23 10.45.3 11.55-10.38 2.76-21.57 8.72-22.13l-.54 10.82s-6.42-.2-6.3 9.4.76 22.72-9.75 29.68-24.1 2.32-27.3 10.75c0 0-2.84-6.25 1.56-10.74 0 0-4.9 1.52-4.37 7.9 0 0-5.2-7.06-2.4-15.64s2.4-10 2.4-10 1.37 1.92 3.38-1.3c2.26-3.6 10.7-3.6 10.7-3.6z" class="j"/><path d="M167.1 95.5s.86-2.6 6.74-2.6 9.05 1.4 9 5-18.44 3.9-15.74-2.4z" class="h"/><path d="M168.64 93.8s4.2 4.35 13.3 1.6a37.76 37.76 0 0 1-13.31-1.61z" class="m"/><path d="M182.87 78.56s4.6-3.94 8.46.52L190 80.3s-2.27-3-6.3 0zM171.4 78s-4.2-4.32-8.5-.38l1.2 1.38s2.57-2.7 6.3.66z" class="n"/><path d="M170.4 58.42s10.4-3.33 17.78.45c0 0-9.44-1.66-17.78-.45zm2.54 3.75s6.4-2.72 11 .37a30.81 30.81 0 0 0-11-.37z" class="i"/><path d="M238.9 156.7s-8.4 11.92-25.53 23.92a5.36 5.36 0 0 1-2.82 2.65 9.4 9.4 0 0 0-5.74 8.18 3.91 3.91 0 0 1-1.23 1.35c-1.17-5.8 3.06-9.85 5.13-10.22a3.41 3.41 0 0 0 2.72-2.77 91 91 0 0 0 24.77-23.15c-3.52-16.6-22-41.73-22.3-42.2a11.5 11.5 0 0 1 2.79 3.37s16.45 21.5 22.22 38.87z" class="k"/><path d="M184.63 171.45l-2-.75s2.18-17.74-.73-34c-1.52-8.47-.7-14.3 2.12-18.5-3.55 6.84-.94 14.78-.94 14.78 5.36 19.88 2.92 33.37 1.55 38.48z" fill="#fccda6"/><path d="M230.75 156.67s-9.3 11.56-20.75 18.53c0 0-14.26-.2-15.35 16.3-.47-1.24-.63-3.2.14-6.3 1.88-7.6 13.2-11.4 13.2-11.4a7.7 7.7 0 0 1 1.17 0c5.8-4.14 15.92-11.85 20-17.8 0 0-11.1-19-18.2-27.93 2.8 3.46 14.3 18.04 19.8 28.6z" fill="#fcd2af"/><path d="M194 142.8s9.68 1.6 16.07-1a15.87 15.87 0 0 1-16.07 1zm-6.25-1h-5.06s1.97 2.6 5.06 0zm2.25 22.36s3 1.17 0 3.5c0 0-3.22-1.86 0-3.5z" fill="#d8aa83"/><path d="M105.9 94.56l13.76.43v3.9l-13-1.26-.77-3.06z" fill="#394e73"/><g class="i"><path d="M82.1 64.48s3.94-4.83 8.17-6.06c0 0 1.24 2.36-.76 3.87 0 0 2 1-.4 3.54s-2.1 6-1.45 7l-4.24 1.2z"/><path d="M87.6 81.33a18.45 18.45 0 0 0 2.51-6.12c.9-3.9 4-5.54 1.4-7.6s-2.5 3.68-6.25 4.85l-4.58 3.93z"/></g><path d="M76.16 87.66l3.47-9.37 7.97 3.04-4.43 11.2-7-4.86z" class="h"/><path d="M93.7 163.8s.54 21.87 23.3 22.6 23.55-26.32 23.55-26.32z" class="o"/><path d="M142.23,123.6l8.44,16.58-.18,8.53s-6,3.58-14.62-20.27Z" class="h"/><path d="M140.53 160.1a33.46 33.46 0 0 1-9.64 4.21 48.26 48.26 0 0 1-5.64 1.19c-15.3 2.3-31.56-1.7-31.56-1.7 8.35-31.53.27-49.38.27-49.38l-.54-12.13c4.85-4.14 13.63-5.5 13.63-5.5l12.67-.26 7.5 2.13c9.33 24.27 13.3 61.44 13.3 61.44z" fill="#009345"/><path d="M125.25 165.5c1.3-23.24-4.3-60.4-4.3-60.4l5.16-1.46 4.78 60.66a48.26 48.26 0 0 1-5.64 1.19z" class="p"/><g class="i"><path d="M119 96.94l-12.05 2.8-1.03-16.2L118.76 82l.23 14.95z"/><path d="M107.05 96.78s-2.46 0-.4 3.43c1.95 3.25 5.95 3.23 7.8 6.24 1.5 2.45 2.28 15.06 4.08-.14l1.2-9.8z"/></g><ellipse cx="112.83" cy="92.95" rx="6.15" ry="4.68" fill="#cb976e"/><path d="M121.74,276.16h29.8a5.24,5.24,0,0,0-1.36-1.89c-5.26-5-21.92-8-21.92-8h-4.35l-1.76,8Z" fill="#26150d"/><path d="M121.74,276.16h29.8a5.24,5.24,0,0,0-1.36-1.89h-28Z" fill="#ab562b"/><path d="M128.88 259.18l-.62 7.1h-4.35v-7.1h4.97z" class="i"/><path d="M137.46 169.2l5.8 49.16-11.07 48.25-13.2-4.57 9.9-42.26-11.1-46.1 19.68-4.48z" class="o"/><path d="M178.27 122s6.22.5 9.7 3.36c0 0-1.18 2.43-3.58 1.62 0 0 .38 2.3-3.1 1.75s-6.08 1.75-6.54 2.9l-2.24-2.5z" class="i"/><path d="M119.67 95l-1.14 11.32 3.57 7.3v-17L119.67 95z" class="p"/><ellipse cx="185.99" cy="126.29" rx="3.1" ry="6.69" fill="#bbbdbf"/><ellipse cx="185.09" cy="126.29" rx="3.1" ry="6.69" class="j"/><path d="M182.15 128.5l.28-.9 1.94-.12a2.25 2.25 0 0 0 0-2.21h-3.86l-.27 3.24z" fill="#d0d2d3"/><path d="M164.9 136.2s5.73.37 9.4-1.16 8.9-.65 9-4-6.56.75-9.66-1.68c0 0 3.86-9.1 6-3.8 1.57 4 4.85.6 4.85.6s-3.8-7.88-7.5-6.38-9.18 8-9.18 8z" class="h"/><path d="M90.9 98.2l-17.2 8.72-7.8 18.14 31.9-7.45s.43-15.97-6.9-19.4z" class="j"/><path d="M100.07 276.16h29.8a5.36 5.36 0 0 0-1.36-1.89c-5.27-5-21.92-8-21.92-8h-4.36l-1.75 8z" fill="#26150d"/><path d="M100.07 276.16h29.8a5.36 5.36 0 0 0-1.36-1.89h-28z" fill="#ab562b"/><path d="M107.22 259.18l-.62 7.1h-4.35v-7.1h4.97z" class="i"/><path d="M105.9 94.56l8.37 12.16-2.08 7.75-8.63-17.4 2.34-2.52z" class="p"/><path d="M115.8 169.2l-5.25 97.4-11 .9-3.44-93.84 19.68-4.48z" class="o"/><path d="M148.38 138.94l19.73-11.46 3.17 7.8-20.8 13.43-2.1-9.77z" class="h"/><g class="j"><path d="M107.5 217.46s-17.45-1.13-23.3-6.26a5.36 5.36 0 0 1-1.77-2.67s5.62-25.88 8.93-48.44c2.36-16 2.87-28.54.5-41v-.12l-.28-1.38-.67-19.4a106.67 106.67 0 0 1 13.79-2.33 342.57 342.57 0 0 1 6.48 49.72c1.23 24.93-2.4 59.93-3.67 71.87zM121 95.87s3.8 12.46 7 44c3.48 34.75-.86 78.5-.86 78.5s8.65-.42 15.2-1.3 8.3-4.08 8.3-4.08l-12.5-69.9-4.72-42A27.9 27.9 0 0 0 121 95.87z"/><path d="M133.1 101.3l16.7 35.54 14-7.63 4.27 8.88L148 151s-3.86-2.1-13.24-22.83z"/></g><path d="M105 94.56l-5 1.3-2.15 17.8 13.3 30.44s-1.82-30.67-6.14-49.56z" fill="#c7c8c9"/><path d="M132.9 71.57h0a5 5 0 0 1-5.53-4.32l-.77-5.9a5 5 0 0 1 4.22-5.65h0a5 5 0 0 1 5.52 4.29l.78 5.9a5 5 0 0 1-4.22 5.68z" class="i"/><path d="M121.37 93.6l-2.8.4c-11.65 1.6-25.3-6.78-26.57-16.83L88.5 50.9A18.41 18.41 0 0 1 104 30.19l8.2-1.13a18.16 18.16 0 0 1 20.26 15.83l3.3 25.1c1.52 11.7-2.98 22.05-14.4 23.6z" class="h"/><path d="M112.18 68.9h0a1.45 1.45 0 0 1-1.61-1.26l-.25-1.9a1.46 1.46 0 0 1 1.23-1.64h0a1.43 1.43 0 0 1 1.6 1.25l.25 1.92a1.46 1.46 0 0 1-1.22 1.64zm17.04-2.77h0a1.44 1.44 0 0 1-1.61-1.25l-.25-1.88a1.47 1.47 0 0 1 1.23-1.64h0a1.44 1.44 0 0 1 1.6 1.26l.26 1.9a1.46 1.46 0 0 1-1.23 1.6z" class="n"/><path d="M120.92 67.08s5 4.44-.8 6.23c0 0 8.3-1.13.8-6.23z" class="i"/><g fill="#eec9ab"><path d="M109.2 72.56c.16 1.22-1.32 2.43-3.3 2.7s-3.73-.5-3.9-1.72 1.32-2.43 3.3-2.7 3.72.5 3.88 1.72z"/><ellipse cx="131.69" cy="69.48" rx="3.31" ry="2.23" transform="matrix(.990122 -.14021 .14021 .990122 -8.44 19.16)"/></g><path d="M114.54 58.6a10 10 0 0 0-12.34.25l-.85-2.74s5.37-6 13.65-.56zm8.6-2.33s2.86-5.42 9.2-1.85l-.18-2.74s-5.73-4.78-10.25 1.77z" fill="#3b2314"/><path d="M92 77.17h0a5 5 0 0 1-5.52-4.32L85.65 67a5 5 0 0 1 4.23-5.65h0a5 5 0 0 1 5.52 4.32l.77 5.9A5 5 0 0 1 92 77.17z" class="h"/><path d="M93.9 73.3s.6-8.58-3.6-9.34c0 0 2.17 2.5 1.5 4.7 0 0-1.44.32-1.16 3s2.68 2.74 3.25 1.63z" class="i"/><path d="M127.35 79.6a22.1 22.1 0 0 1-3.52 3.3c-4.35 3.18-7.57 2-9.66.15a12.82 12.82 0 0 1-3-4.22c5.47 3.9 16.18.77 16.18.77z" class="n"/><path d="M123.83 82.9c-4.35 3.18-7.57 2-9.66.15a8.12 8.12 0 0 1 3.83-1.64 7 7 0 0 1 5.83 1.49z" fill="#be1e2d"/><path d="M133.9 55.67l-.2-1.24a44.45 44.45 0 0 0-1-4.44h0c-1.24-4.5-3.6-10.33-7.83-12.18h0c-.2.38-5.92 11.08-23.27 14.7 0 0-7 .76-2.92 15.2l-2.07.92s.4-6.32-6.73-7.34a4.56 4.56 0 0 0-2.75 1.37 31.39 31.39 0 0 1-2.65-6.36 29.64 29.64 0 0 1-1.29-10.07 22 22 0 0 1 3.18-10.36c2.6-4.3 14.76-18.38 39.47-8.75.01.01 16.38.87 8.06 28.54z" fill="#3b2314"/><path d="M133.9 55.67l-.2-1.24s4.73-19.7-7.88-25.5c0 0-32.2-12.55-42.52 17.78l-.13-.43a22 22 0 0 1 3.18-10.36c2.6-4.3 14.76-18.38 39.47-8.75.03-.04 16.4.82 8.08 28.5z" fill="#663d23"/><g fill="#1f130c"><path d="M124.87 37.82c-.2.38-5.92 11.08-23.27 14.7 0 0-7 .76-2.92 15.2l-2.07.92s.4-6.32-6.73-7.34a4.56 4.56 0 0 0-2.75 1.37 31.39 31.39 0 0 1-2.65-6.36A17.58 17.58 0 0 1 99.37 50c13.82.8 25.15-11.8 25.5-12.18z"/><path d="M132.7 50c-1.24-4.5-3.6-10.33-7.83-12.18 7.78-2.1 7.83 11.83 7.83 12.18z"/></g><path d="M76.6 82.22l9 6s-10.85 37.34-19.7 36.84-5.5-16.76 10.7-42.84z" class="j"/><path d="M120.42,95s6.75,30.9,7.7,46.82l3.14-31.18L125.46,97Z" fill="#c7c8c9"/><path d="M153.82 161.38a15 15 0 0 1-2-.13c-18.5-2.47-30.35-49.77-30.84-51.78a1.18 1.18 0 0 1 .83-1.42 1.14 1.14 0 0 1 1.38.85c.12.48 11.94 47.77 28.92 50s28-30.28 28.1-30.6a1.14 1.14 0 0 1 1.45-.72 1.17 1.17 0 0 1 .71 1.48c-.45 1.4-11.06 32.33-28.54 32.33z" fill="#111719"/><path d="M133.36 85.7c-1.28 11.14-4.36 22.06-11.36 22.9-14.46 1.73-30.7-36.84-30.86-37.23l-1 .46c.66 1.58 16 38 31 38a7.83 7.83 0 0 0 1.08-.07c8.53-1 11.65-14.86 12.72-27.5a19.3 19.3 0 0 1-1.58 3.44z" class="m"/><path d="M90.7 68.33s-.5-.78.2-1.22a1.84 1.84 0 0 1 1.64-.33c.3.16 1.3 2.1.52 2.77s-1.57.7-2-.4-.37-.82-.37-.82z" fill="#fffae5"/><path d="M121.28 110.33c-6.9 0-13.35-7.55-13.65-7.9a1.18 1.18 0 0 1 .12-1.64 1.12 1.12 0 0 1 1.61.12c.07.08 7.18 8.4 13.47 6.9 3.7-.87 6.52-5 8.42-12.25a1.12 1.12 0 0 1 1.39-.83 1.18 1.18 0 0 1 .81 1.43c-2.13 8.16-5.54 12.85-10.12 13.92a9 9 0 0 1-2.05.24z" fill="#111719"/><path d="M91.23 67.72a3.14 3.14 0 0 0-1.11 4.12l1-.46s-.93-1.92.74-2.44a.87.87 0 0 0-.63-1.22z" class="m"/><ellipse cx="180.02" cy="126.29" rx="1.6" ry="3.46" fill="#bbbdbf"/><ellipse cx="179.56" cy="126.29" rx="1.6" ry="3.46" class="j"/><path d="M87.6 81.33s1.7-4.1-2.62-8.6c-2.92-3-3.2-7 2.1-12.07a3.94 3.94 0 0 0 .38-3.85s-5.27 3.08-7.1 6.3c-2.8 4.9-1.2 16.54-1.2 16.54z" class="h"/><path d="M143.35 177.42a101.12 101.12 0 0 1-12.09 4l.65 4.45s7.32-1.2 11.92-4.2zm-52.65-.12s9 2.62 17.4 4.12l-.82 4.44s-10.5-1.3-17.16-4.37z" fill="#cccdce"/><path d="M122.1 60.2a9.22 9.22 0 0 0 2.46 7.48 16 16 0 0 0 9.27-.84s2.48-2.76 1.44-7.9c0 .04-7.02-2.87-13.17 1.25z" fill="#fff" opacity=".33"/><path d="M137.48 59a14.16 14.16 0 0 1-1.67-.36s-7.53-3.08-14.23 1.3h0a4.79 4.79 0 0 1-3 .64h0c-8.52-1.35-14.13 1.85-16.4 3.53l.08-.06a22.35 22.35 0 0 1-2.88 1.61h0L95.7 67l.15.94L99.7 67a2.44 2.44 0 0 0 .72-.18c.73-.3 1.14 1.12 1.14 1.12a.11.11 0 0 0 0-.05 16.68 16.68 0 0 0 3.32 5.35c6.7.9 13.6-3.47 13.6-3.47a11.09 11.09 0 0 0 .66-6.66v.06s-.25-1.6 1.23-1.7a1.1 1.1 0 0 1 1 .52 10.44 10.44 0 0 0 2.73 6.13s4.2 1.23 10.12-.92a9.07 9.07 0 0 0 1.88-5.43h0c.14-1.34.75-1.23.75-1.23 1.64-.05 1.14-1.55.62-1.55zM118 69.4s-6.52 4-12.8 3.22c0 0-3.53-3.47-3.6-7.33 0 0 5.86-5.7 16.53-4.16-.02 0 1.68 4.95-.13 8.27zm15.85-2.54a16 16 0 0 1-9.27.84 9.22 9.22 0 0 1-2.46-7.48c6.15-4.12 13.17-1.25 13.17-1.25 1.02 5.13-1.46 7.9-1.46 7.9zM102.23 64h0z" fill="#101d28"/><path d="M118 69.4s-6.52 4-12.8 3.22c0 0-3.53-3.47-3.6-7.33 0 0 5.86-5.7 16.53-4.16-.02 0 1.68 4.95-.13 8.27z" fill="#fff" opacity=".33"/><path d="M125.84 28.9s-20.75-3.46-30.18 6.8c0 0 7.35-14.34 30.18-8.55z" fill="#663d23"/><path d="M128.35 265.28l14.92-46.9-11.07 48.25-3.85-1.34zm-17.8 1.34l4.32-80.2-6.76 80.3 2.44-.1z" fill="#606060"/><path d="M84.2 211.2a5.36 5.36 0 0 1-1.77-2.67s5.62-25.88 8.93-48.44c2.36-16 2.87-28.54.5-41 6.95 33.03-4.32 79.57-7.66 92.1z" fill="#cccdce"/></svg>