<svg xmlns="http://www.w3.org/2000/svg" xmlns:xlink="http://www.w3.org/1999/xlink" viewBox="0 0 300 300"><style><![CDATA[.A{isolation:isolate}.V,.W,.Z,.y{mix-blend-mode:multiply}.AF{fill:#fcc7aa}.AG{fill:gray}.AH{fill:#b5b5b5}.AI{fill:#dedede}.AJ{fill:#fad3be}.AK{fill:#f0f0f0}.AL{fill:#dee7ed}.AM{fill:#ffd6bf}.AN{fill:#079b46}.AO{fill:#d1c6c4}]]></style><g class="A"><g><path d="M156.2 211.78l-54.05-39-3.16 2.1 53.84 38.9 3.37-2z" fill="url(#Áåçûìÿííûé_ãðàäèåíò_291)"/><path d="M152.84 217.44l-54.3-39.17.44-3.4 53.84 38.9.01 3.67z" fill="#fcad3d"/><path d="M156.2 215.45l-3.37 2-.01-3.67 3.37-2v3.67z" fill="url(#Áåçûìÿííûé_ãðàäèåíò_269)"/><path d="M97 175.2v9.72l111.16 60.14-5.08-10.76-103.46-60.68a1.77 1.77 0 0 0-2.62 1.58z" fill="#747474"/><path d="M93.47 176.76a7.22 7.22 0 0 1 7.36 0l94.88 55.9c4.5 2.65 7.28 4.25 7.28 9.56 0 0 .58 2.36-3.6 5l-47 27.82 1.42-8.93L48 203.72z" fill="#56555c"/><path d="M195.62 240.77a8.37 8.37 0 0 1 1.37 5s.58 2.36-3.6 5l-41 24.27 1.42-8.93-.53-.3z" fill="#606060"/><path d="M192.24 237.75a11.51 11.51 0 0 1 3.38 3l-42.35 25-4.27-2.48z" fill="#7d7d7d"/><path d="M207.7 227.9l-70.02 41.32 5.05-1.36 70.02-41.33-5.05 1.37z" fill="url(#Áåçûìÿííûé_ãðàäèåíò_18)"/><g fill="#424242"><path d="M212.82 228.5l5.32 10.63-10.1 5.87-4.98-10.7 9.77-5.8zm-59.4 35.23l5.08 10.7-10.4 6.2-5.3-10.62 10.63-6.3z"/></g><path d="M108.8 167.22l104 61.28-9.78 5.8-104.5-61.06-49.18 29.14 104.1 61.34L142.8 270 36.23 208.3l9.56-5.95a3.27 3.27 0 0 1 3.54 0h0L98.5 173.2z" fill="#f7f7f7"/><g fill="#757575"><path d="M35.6 208.74h0a3.93 3.93 0 0 0 .7 6.21l111.8 65.7-5.3-10.65-104.48-61.58a2.27 2.27 0 0 0-2.71.32z"/><path d="M137.68 269.23v6l14.36 8.57v-7.74l-2.86-4.3-6.45-3.88-5.05 1.36z"/></g><path d="M212.75 226.54l-70.02 41.33 6.45 3.88 70.02-41.32-6.45-3.9z" class="AK"/><path d="M116.53 90.85h-5.42v81.34a1.39 1.39 0 0 0 .79 1.12 4.18 4.18 0 0 0 3.83 0 1.4 1.4 0 0 0 .74-1h0z" fill="url(#Áåçûìÿííûé_ãðàäèåíò_216)"/><path d="M209.7 149.92h-5.55v81.76a1.41 1.41 0 0 0 .81 1.14 4.21 4.21 0 0 0 3.92 0 1.46 1.46 0 0 0 .77-1h0z" fill="url(#Áåçûìÿííûé_ãðàäèåíò_216-2)"/><path d="M98.26 83.2h0a2.81 2.81 0 0 0 1 3.79L239 169.55l2.3-1.85.5-2.9L102 82.18a2.67 2.67 0 0 0-3.74 1.01z" fill="url(#Áåçûìÿííûé_ãðàäèåíò_216-3)"/><g fill="#d2d3d5"><path d="M219.2 230.43l-70.02 41.32 2.77 4.3 70.02-41.33-2.77-4.3z"/><path d="M222.06 242.4l-70.02 41.32-.1-7.68 70.02-41.33.1 7.7z"/></g><g fill="#39312a"><path d="M127.76 221.5a7.42 7.42 0 0 0-1 2.28 19.13 19.13 0 0 0 .06 2.12s2.83 2.07 4.7 2.3a15 15 0 0 1 4.49 1.38 10.64 10.64 0 0 0 4.3 4c3 1.48 4.58 1.84 6.73 1.78s3.06-2.48 3.06-2.48a8.88 8.88 0 0 0 0-3c-.34-.9-5.4-2.16-5.4-2.16zm-34.26-7.6a1.94 1.94 0 0 0-1.08 1.64 8.52 8.52 0 0 0-.21 3.29 11.75 11.75 0 0 0 2.6 3.17 7.67 7.67 0 0 1 1.65 2.16c.1.22 2.14 4.7 5 6.28s6.56.86 8.13.54a6.37 6.37 0 0 0 3.16-2.24c.18-.3.17-2.05-.23-2.33s-3.23-2.86-3.23-2.86z"/></g><path d="M129.46 216.7l-2 1.8-.3 4.87a12.64 12.64 0 0 0 4.16 2.61c3.18 1.44 6.35 4.3 7.55 5.2s4.7 3 7.44 2.94 3.65-2 3.7-2.78-.3-2.17-2.36-4.65-8.08-6-8.08-6-2.64-2.94-3.07-3.26-7.03-.73-7.03-.73z" class="AL"/><path d="M129.05 215.2l-.93 3.68c-.26 1.07.22 2.67 3.56 4.3s4.6 1.85 6.2 1.86 2.6-.54 2.62-.74-.55-2.8-1.1-3.2a12.68 12.68 0 0 1-1.72-2.55l.17-4.93z" class="AF"/><path d="M144.34 184.4c-.16 2.55-5.73 32.9-5.73 32.9s-3.27 1.4-5.1 1.3a9.31 9.31 0 0 1-2.59-.65c-1.62-.64-3.2-1.67-3.06-2.82.2-1.78.2-15.32.5-17.2s1.2-11.5.4-14.62c-.53-2.1-4.06-9.45-6.34-14.12h0l-2-4a26.81 26.81 0 0 1-2.92-5.42 14.1 14.1 0 0 1-1-5.44 10.3 10.3 0 0 1 2.29-6.26 14.81 14.81 0 0 1 4-3.38c4.9-2.9 11.08-3.55 12.6-2.53a6.28 6.28 0 0 1 2.07 2.92c1.56 3.76 2 9.6 2.47 11.86l3.23 18.23a76.42 76.42 0 0 1 1.19 9.24z" fill="#cfd9e0"/><path class="V AI" d="M131.33 214c0 .65-.16 2.1-.42 3.9-1.62-.64-3.2-1.67-3.06-2.82.2-1.78.2-15.32.5-17.2s1.2-11.5.4-14.62-8.33-18.13-8.33-18.13c-2.92-4.27-4-7.86-3.94-10.86a7.65 7.65 0 0 1 1-.5c5.6-2.38 8.1 7 8.1 7s-1.07 5.35.38 8 3.8 11.9 4 12.16 2.28 5.64 2.16 7.56-1.18 5.54-1.2 8.44.6 14.3.43 17.07z"/><path d="M97.13 209.42l-.85-1.13A27.38 27.38 0 0 0 93.6 211c0 .2-1.47 3.33-1.1 4.9s4.77 5.45 5.24 7.45 1.68 4.53 5.43 6.23 8.48-.34 8.9-1.65-3-5.47-3-5.47-2.76-4-3.16-6.42a13 13 0 0 0-2.25-4.86z" class="AL"/><path d="M96.55 208.7s-1.56.84-1.3 1.85 2.62 9.64 5.42 10.47 4.4.07 4.88-.33.1-2.52.1-2.52l-.6-5.9c-.03-.9-.3-3.32-.73-3.73s-7.8.17-7.8.17z" class="AF"/><path d="M127.66 161.76c0 .5-4 3-4.22 3.25 0 .07-.44 1.7-1 4.15l-5.88 23.35c-.88 2.1-10.24 19.8-10.24 19.8a8.89 8.89 0 0 1-6.09 2c-2.08-.2-2.9-1.7-3.7-3a7.28 7.28 0 0 1-.86-1.94c-.05-.44 0-.76.83-2.52s2.87-11 3.93-14.57 5.07-6.1 4.86-8.18-1.9-11.1-3.17-17.77a50.28 50.28 0 0 1-.88-9.09c0-1.3.08-2 .08-2a7.1 7.1 0 0 1 1.14-2 14.81 14.81 0 0 1 3.16-3c4.93-3.5 12.62-5.66 17.15-5.52 1.88.06 3.22.52 3.57 1.43.1.2.15.4.23.65.85 2.86 1.1 8.08 1.16 11.55l-.06 3.4z" class="AL"/><g class="AI"><path class="V" d="M143.1 175.14l-1.7.22-3.84 1-7.93 2.22a11.43 11.43 0 0 1-2-1.59c-.63-.73-2-8.9-2-8.9s.2-1.94 3.25-3.63a9.87 9.87 0 0 1 5.67-1.33c.06 0 2.8-1.37 2-1.77s-7-2.44-8.8-3l-.46-.15a28.74 28.74 0 0 1-9.14 3 40.22 40.22 0 0 1-10.8 0c-2.18-.5-4.3-2.63-6.1-4l.08-2a7.1 7.1 0 0 1 1.14-2 14.81 14.81 0 0 1 3.16-3c2.36-.34 7.36-1.2 13.12-2.2l7.76-1.3 10.88-1.7c1.56 3.76 2 9.6 2.47 11.86l3.23 18.27z"/><path class="V" d="M108 185.36c.06 1.2-5.07 5.92-6.2 9.62-.94 3.08-2.23 9.83-5.3 16.28a7.28 7.28 0 0 1-.86-1.94c-.05-.44 0-.76.83-2.52s2.87-11 3.93-14.57 5.07-6.1 4.86-8.18-1.9-11.1-3.17-17.77a43.56 43.56 0 0 1-.8-11.11 7.1 7.1 0 0 1 1.14-2 78.71 78.71 0 0 1 1.14 3 46.21 46.21 0 0 0 2 12.65 74.32 74.32 0 0 1 2.41 16.54z"/></g><path d="M150.25 166.1l-1.52-1a83.11 83.11 0 0 0-9.36-5.39c-2.7-1.26-3.53-3.1-3.75-4.4a6.73 6.73 0 0 1 2-5.56l.53-.4c35.37-20.82 37.52-20.87 38.33-20.9 2.42 0 15 1.23 16.44 1.38l7.2.74zm-9.3-11.8a2.9 2.9 0 0 0 .66.39 82 82 0 0 1 8.54 4.8l16.2-4.6 25.53-19.87-15-1.14c-2.86 1-20.26 10.9-35.65 19.94a2.55 2.55 0 0 0-.27.47z" class="AK"/><path d="M173.25 134.63c0 .2-.4 1.34-.4 1.34l-.24.7a3.58 3.58 0 0 1-.51 1.09 2 2 0 0 1-.47.27s-.8 1.36-1.08 1.38a3.61 3.61 0 0 1-.56 0s-.42 1-1.08 1.07-.8-.28-.8-.28a14.4 14.4 0 0 0-.7-3.33c-.35-.44-1.42-2.65-1.77-2.8s-.65.65-.68 1.2a4.52 4.52 0 0 0 .05.73l.24 1.93c0 .36.08.7.1 1a10.54 10.54 0 0 1-.36 2.14 1.1 1.1 0 0 1-1 .39.5.5 0 0 1-.26-.1 2.39 2.39 0 0 1-.79-1.27c-.26-.83-1-2.62-1.16-3s-.5-3.6-.65-4.42-2.42-3.64-3.58-4-9.07-4.27-12.5-7.65-13-13-13.3-13.7a2.4 2.4 0 0 1 0-.7c.2-2.36 1.92-9.45 5.37-6.62 4 3.25 7.8 7.5 11.66 10.65s11.07 11.75 14.58 14.63 4.13 3.53 4.75 3.78 3.8 1.08 4.2 1.6a16.42 16.42 0 0 1 .96 3.98z" class="AF"/><path class="W AJ" d="M163.74 141.1a2.25 2.25 0 0 0 0 .26 2.39 2.39 0 0 1-.79-1.27c-.26-.83-1-2.62-1.16-3s-.5-3.6-.65-4.42-2.42-3.64-3.58-4-9.07-4.27-12.5-7.65-13-13-13.3-13.7a2.4 2.4 0 0 1 0-.7 5.22 5.22 0 0 1 3.39-.63s1.9 3.68 3.43 6a77.46 77.46 0 0 0 8.24 9.24c.8.56 6.2 3.78 8.25 4.94s5.42 3.32 5.9 3.74.88 3.72.85 4.18a13.7 13.7 0 0 0 .53 3.55c.4 1.25 1.43 2.95 1.4 3.45z"/><path d="M138.45 99.82s.46 4.28-.3 4.86-4.54 3.76-6.57 4.1S123.2 95.6 123 95.4s1.62-9.73 3.43-9.32 5.58 3.68 7.32 7.1 4.6 5.43 4.7 6.63z" fill="#b3caff"/><path d="M137.4 146.82c-.1 1.54-.42 8-8.6 10.48l-1 .3c-9.2 2.22-11.7 3.77-18.22 2.92a20 20 0 0 1-6.72-1.8 6.16 6.16 0 0 1-1.75-1.3 15.12 15.12 0 0 0-1.95-1.35s1.72-8 2-10.53-1.28-4.9-1.5-5.8c-.18-.64-.33-14.75-.62-22.88a52.25 52.25 0 0 0-.37-5.44c-.57-2.5-2.1-11.74-2.1-11.74a35.12 35.12 0 0 1 6.36-9.68c4.56-5 11.44-7 11.44-7l13 3.37c.18.1 6.55 3.75 6.64 13.1s-.42 13 .38 19.82 1.94 19.9 1.94 19.9a38.21 38.21 0 0 1 1.07 7.27 2.8 2.8 0 0 1-.01.36z" fill="#78bbf5"/><path d="M123.7 91.74s2.1 4.5-2.93 5.46-12.18-5.6-12.93-6.3a3.18 3.18 0 0 1-1.27-2.44c.06-.94.16-1.2.3-1.3a4.51 4.51 0 0 0 1.45-3.72s-.2-6.78-.85-9.18 1-7 3.1-7.52 7.22.48 8.76 2 2.86 17.16 3 18.07a47.65 47.65 0 0 0 1.38 4.93z" class="AF"/><path class="W AJ" d="M113.72 81.8a13.58 13.58 0 0 0 1.88 3.42 23.54 23.54 0 0 0 4.58 3.47c.55.27 2 2.34 2.67 2.42s2.14-1.32 2.62-1.37a23 23 0 0 0 2.68-.94s.8-.68.3-1-3.16-2-3.62-2.1-5.52-2.37-5.52-2.37z"/><path class="Z" d="M137.4 146.82c-.1 1.54-.42 8-8.6 10.48a23.05 23.05 0 0 1-4.07-2.23c-1.8-1.48-1.6-5.14-1.6-5.25a63.54 63.54 0 0 0-5.76-3.3c-1.93-.84-14.43-5-14.43-5a28.15 28.15 0 0 0 .5 5.52c.44 2.2-.28 8.75-.63 11.63a6.16 6.16 0 0 1-1.75-1.3 15.12 15.12 0 0 0-1.95-1.35s1.72-8 2-10.53-1.28-4.9-1.5-5.8c-.18-.64-.33-14.75-.62-22.88l1.57-.32 4.48 14.1 4 5.32s17.94 3.75 26.64 9.25a9 9 0 0 1 1.66 1.32 2.8 2.8 0 0 1 .05.33z" fill="#d1d1d1"/><g class="AF"><path d="M151.42 149.6a2.92 2.92 0 0 1-.61 1l-1.15 1.28c-.52.52-.52.3-.52.3a5.38 5.38 0 0 1-.9.88 1.32 1.32 0 0 1-.68 0 6.57 6.57 0 0 1-1.31.79 2.46 2.46 0 0 1-.94 0h-.67a1.33 1.33 0 0 1-1 .43c-.53-.07-.4-.63-.4-.87s.34-2.06.34-2.06a21.52 21.52 0 0 0-1.57-2.47c-.16 0-2.5-1-3.53-1.4l-2.36-.8-1-.7s-11.7-1-21.13-4.12-9.36-3.88-9.9-4.52-3.36-7.72-4.9-14.46a23.85 23.85 0 0 1-.09-9.25 25.85 25.85 0 0 1 1.14-4.4c.1-.25 10.2 2.38 11.14 10.37s.75 9.5.75 9.5 10.08 5.54 15.44 7.43 11.82 4.54 12.27 4.67 6.82.8 7.63 1.35a36.43 36.43 0 0 1 3.63 3.58c.08.16.36 3.1.34 3.48zm-27.78-87.87s2.1.4 2.87 4.43a32.57 32.57 0 0 1 .56 7.66 46.75 46.75 0 0 1-.06 5.79l-.9 7.1c-.37.54-1.82 1-3.3 1.24s-8.66-4.46-9.43-5.5a29.75 29.75 0 0 1-2.44-6.39c-.22-1.1-1-6.22-.45-9.58s-.83-5.38 1.45-6.3 11.7 1.54 11.7 1.54z"/></g><path d="M124.88 65.5a28.36 28.36 0 0 1-5.1 1c-1.94.22-3.93.56-4.08.93s-1.16 3.87-1.6 4.8a12.59 12.59 0 0 0-.47 3.48l-1.6.1s-.44-2.3-1.82-2.35-.08 4.67-.3 4.87L108.13 80a15 15 0 0 1-4.13-7c-1-4.17-1.64-7.17.46-11.36S110.1 57 110.1 57s4.56-2 8.7-.3 6.9 4 7.8 5.74.07 4.68.07 4.68-.25-2.3-.74-2.24a2.4 2.4 0 0 0-1.06.6z" fill="#4a2727"/><g class="AM"><path d="M112.2 78.78a1.8 1.8 0 0 1-1.91.65c-1.22-.33-3.2-3.45-3.1-4.92a1.9 1.9 0 0 1 2.44-1.7c1 .24 2.46 1.56 2.27 2.5s.75 2.88.3 3.48zm12.3-12.63a14.2 14.2 0 0 1 .73 4.34c-.2 1.4-.2 1.47-.6 1.6a29.2 29.2 0 0 0-3.72.58c-1.32.43-3.24.9-3.47 2.24a2.52 2.52 0 0 0 1.56 2.76 18.75 18.75 0 0 1 2.52 1.1s-.26 1.57-1.2 2-4.4-.7-4.54-.94-1.72-3.78-1.72-3.78l.76-3.73a35.56 35.56 0 0 1 1.19-4.43 6 6 0 0 1 2.88-.84 16.79 16.79 0 0 0 5.62-.89z"/><path d="M124 71.05l.6 4.3c0 .3-.2 1.36-.53 1.55s-.44 1.3.26 1.4 2.48.25 2.3-.4l-1.92-6.44c0-.34-.73-.44-.73-.44z"/></g><g class="AJ"><path class="W" d="M172.6 136.66a3.58 3.58 0 0 1-.51 1.09 2 2 0 0 1-.47.27s-.8 1.36-1.08 1.38a3.61 3.61 0 0 1-.56 0s-.42 1-1.08 1.07-.8-.28-.8-.28a14.4 14.4 0 0 0-.7-3.33c-.35-.44-1.42-2.65-1.77-2.8s-.65.65-.68 1.2a4.52 4.52 0 0 0 .05.73 4.48 4.48 0 0 1-.16-2.21c.28-.87.86-.6.86-.6l2.54 3.1a13.72 13.72 0 0 1 .31 2.91l.7.16a5.83 5.83 0 0 0 .34-1.38c0-.6.25-1.9.25-1.9l-1.66-4a49.8 49.8 0 0 1 2.22 4.46c0 .3.15 1.72.15 1.72a3.27 3.27 0 0 0 .59-.8 7.83 7.83 0 0 0 0-2.41c-.1 0-1-3-1.15-3.35l1.8 3.87-.16.9.5-.68v-1.32l-1.1-2.8 1.52 3.05c.02.05-.27 1.7.05 1.95zm-21.8 13.94l-1.15 1.28c-.52.52-.52.3-.52.3a5.38 5.38 0 0 1-.9.88 1.32 1.32 0 0 1-.68 0 6.57 6.57 0 0 1-1.31.79 2.46 2.46 0 0 1-.94 0h-.67a1.33 1.33 0 0 1-1 .43c-.53-.07-.4-.63-.4-.87s.34-2.06.34-2.06a21.52 21.52 0 0 0-1.57-2.47c-.16 0-2.5-1-3.53-1.4l-2.36-.8-1-.7s-11.7-1-21.13-4.12-9.36-3.88-9.9-4.52-3.36-7.72-4.9-14.46a23.85 23.85 0 0 1-.09-9.25 12.84 12.84 0 0 1 .68 5.63s2.35 10.67 4.1 14.82 3 3.52 7.06 4.95 13 3.47 16.66 4.17 7.4 1.5 8.14 2a20.2 20.2 0 0 0 2.62 1.46 36.17 36.17 0 0 1 3.88 1.74c.28.32 2.23 2.54 2.2 2.93l-.1 1.42 1.22-.1-.14-2.45-1.76-3.93 2.1 3.14.48 3.2.47-.3.62-1.1-.1-2.74-1.87-3.42 2.55 3.38.06 3.65 1-.58.2-3.2-1.78-3.64 2.83 3.62s-.1 2.14-.14 2.26.34.07.73.06z"/></g><path d="M112.12 119.1s-4.75-.88-7-.46l-6.43 1.18.22 1.93a2.22 2.22 0 0 1-1.73-1.23c-.65-1.18-1.65-14.8-1.46-17.8s1.87-4.85 2.55-5 7-1.9 9.66 5.36a111.74 111.74 0 0 1 4.19 16.03z" fill="#b3caff"/><path d="M204.18 144.13l3.38 2-3.1 1.84-3.37-2 3.1-1.84z" fill="url(#Áåçûìÿííûé_ãðàäèåíò_19)"/><path d="M158.13 158.74l2.1 26.02 6.15 15.75 3.96 49.42 6.7 5.35 1.78 12.76 3.37 2-2-114.3-22.05 3.02z" fill="#a8a9ab"/><path d="M203.4 142.28l.52 23.12-4.14 27.83 1.46 65.34-19.07 11.46-1-62.63-7.07-25.8-.48-21.65 29.78-17.66z" fill="#d2d3d5"/><path d="M203.9 163.8l-29.84 15.15-14.33-.4-.84-10.57 44.8-13.7.2 9.52z" fill="#a8a9ab"/><path d="M151.22 160.2l3.37 2-3.1 1.84-3.38-2 3.1-1.84z" fill="url(#Áåçûìÿííûé_ãðàäèåíò_19-2)"/><path d="M167.66 175.06c.5 0 3.4-.34 5.33-.56l1.1-.12h.28a12.94 12.94 0 0 0 3.86-1.3c7.36-3.8 28.6-15.78 28.6-15.78l1.64-.9.32-.17 1.6-1.23c.54-.4 1-.88 1.5-1.26 5.15-3.9 5.83-17.68 3-20.73l-26.58-2 .8 6.42 2.94 2.24-6.9 5.12-1.32 1-18.44 10.15-6.53-1.5-15 3 .8 6.4 13.08 9.8a19.4 19.4 0 0 0 9.94 1.44z" fill="#d7d7d7"/><path d="M166.88 164.34l6.65-.74a12.57 12.57 0 0 0 3.95-1.3c7.4-3.83 28.58-15.76 28.58-15.76l1.63-.9.32-.17 1.6-1.22c.54-.4 1-.84 1.5-1.26 4.82-4.3 6.62-7 3.8-10l-24.4-4.47-2.2 2.5 2.94 2.24-5.4 4.56-2.86 1.5-18.55 11.7-1.78 1-9.15 3.06-2.06-.45-.27.32-7.33 2.38 13.08 5.5a19.85 19.85 0 0 0 9.94 1.54zm-1.72-3.55l-13.22-3.43 7.2-1.93 16 3.8a14.08 14.08 0 0 1-9.99 1.57zm44.53-21.53l-17.83-2.38 4.38-3.4 12.42 1.63a2.41 2.41 0 0 1 1.03 4.14z" class="AK"/><path d="M192.17 141.2l14.34 1.72-22.32 13.03-14.34-1.73 22.32-13.02z" fill="#77a260"/><path d="M203.8 144.48l-11.3-1.3-19.64 11.48 11.32 1.3 19.63-11.48z" fill="#97e7a1"/><path d="M185.62 140.75l.23.77-3.08 1.77-.23-.77 3.08-1.77z" class="AG"/><path d="M180.26 142.2l.23.77 2.28.3-.23-.77-2.28-.3z" class="AH"/><use xlink:href="#B" fill="url(#Áåçûìÿííûé_ãðàäèåíò_16)"/><path d="M180.98 143.5l.22.77-3.08 1.77-.22-.77 3.08-1.77z" class="AG"/><path d="M175.62 144.95l.23.77 2.27.3-.22-.77-2.28-.3z" class="AH"/><path d="M178.7 143.17l-3.08 1.78 2.28.3 3.08-1.77-2.28-.32z" fill="url(#Áåçûìÿííûé_ãðàäèåíò_16-2)"/><path d="M176.33 146.23l.23.77-3.08 1.78-.23-.78 3.08-1.77z" class="AG"/><path d="M170.97 147.7l.23.77 2.28.32-.23-.78-2.28-.3z" class="AH"/><path d="M174.05 145.9l-3.08 1.78 2.28.3 3.08-1.77-2.28-.32z" fill="url(#Áåçûìÿííûé_ãðàäèåíò_16-3)"/><path d="M171.7 148.97l.22.77-3.07 1.78-.23-.77 3.08-1.78z" class="AG"/><path d="M166.33 150.43l.23.77 2.28.32-.23-.77-2.28-.32z" class="AH"/><path d="M169.4 148.65l-3.08 1.78 2.28.32 3.08-1.78-2.28-.32z" fill="url(#Áåçûìÿííûé_ãðàäèåíò_16-4)"/><path d="M188.7 141.33l.23.77-3.08 1.77-.23-.77 3.08-1.77z" class="AG"/><path d="M183.34 142.78l.23.78 2.28.3-.23-.77-2.28-.32z" class="AH"/><path d="M186.42 141l-3.08 1.77 2.28.32 3.08-1.78-2.28-.3z" fill="url(#Áåçûìÿííûé_ãðàäèåíò_16-5)"/><path d="M184.06 144.07l.22.77-3.08 1.77-.22-.77 3.08-1.77z" class="AG"/><path d="M178.7 145.52l.22.78 2.28.3-.22-.77-2.28-.32z" class="AH"/><use xlink:href="#B" x="-1.56" y="3.32" fill="url(#Áåçûìÿííûé_ãðàäèåíò_16-6)"/><path d="M179.4 146.8l.23.77-3.08 1.77-.23-.77 3.08-1.77z" class="AG"/><path d="M174.05 148.27l.23.77 2.28.3-.23-.77-2.28-.3z" class="AH"/><use xlink:href="#B" x="-6.21" y="6.07" fill="url(#Áåçûìÿííûé_ãðàäèåíò_16-7)"/><path d="M174.77 149.55l.22.77-3.08 1.78-.22-.78 3.08-1.77z" class="AG"/><path d="M169.4 151l.22.77 2.28.32-.22-.78-2.28-.3z" class="AH"/><path d="M172.5 149.23L169.4 151l2.28.3 3.08-1.77-2.28-.32z" fill="url(#Áåçûìÿííûé_ãðàäèåíò_16-8)"/><path d="M66.34 121.37h-5.4v95.7a1.39 1.39 0 0 0 .8 1.12 4.15 4.15 0 0 0 3.83 0 1.39 1.39 0 0 0 .74-1h0z" fill="url(#Áåçûìÿííûé_ãðàäèåíò_216-4)"/><path d="M159.52 180.45H154v81.76a1.43 1.43 0 0 0 .82 1.14 4.24 4.24 0 0 0 3.92 0 1.43 1.43 0 0 0 .76-1h.05z" fill="url(#Áåçûìÿííûé_ãðàäèåíò_216-5)"/><path d="M48.07 113.72h0a2.81 2.81 0 0 0 1 3.78l139.75 82.58 2.3-1.85.5-2.9L51.77 112.7a2.68 2.68 0 0 0-3.7 1.02z" fill="url(#Áåçûìÿííûé_ãðàäèåíò_216-6)"/><g fill="#5c3600"><path d="M238.27 181.8l.62.77a6.92 6.92 0 0 1 .46 1.21l.08 2.2s-.58 1.1-4.28 1.9-3.85.36-5 .6-1.8 2.1-4.6 3.23a21.5 21.5 0 0 1-7.58 1.5 3.83 3.83 0 0 1-2.88-2.42c-.5-1.65-.4-2.65.18-2.9s23-6.1 23-6.1zm17.86 12.67a2.19 2.19 0 0 1 1.39 1.22 5.35 5.35 0 0 1 .28 2.39c-.05.72-1.3 1.8-2.52 2.73s-1.86 4.1-4.7 6.5-5.88 3.3-10.3 2.6c-2-.32-3.05-.87-3.56-1.65a4.28 4.28 0 0 1-.37-1.31 2.8 2.8 0 0 1 0-.83l.77-1z"/></g><path d="M209.8 89.36l-2.14 1.7c-.07 0-3.5-.5-4.05-.4s-1.74.4-1.74.4a1.69 1.69 0 0 1-1.58 0c-1.05-.4-1.93-.5-2.23.27s.43 1.25.5 1.35a13.08 13.08 0 0 0 1.48.76s1 .5.62 1-1.3 1-1.4 1.65-.2.94.17 1.23a10.88 10.88 0 0 0 1.6.83 10.53 10.53 0 0 0 1.45 1.42l1.25.9a3.8 3.8 0 0 0 2.37 1c1.3 0 2.3-.9 3.2-1.7a11.38 11.38 0 0 0 1.65-2.57c.24-.25.72-.23 1.24-.75s2.66-.38 2-1.66 3.82-6.95-4.4-5.42z" class="AF"/><path d="M236.77 43.75s-1.57-.87-5.3 2.1-4.47 11.72-6.57 17.1-4.13 11.85-4.06 12.92 6.24 5.28 7.9 3.65 20.97-32.42 8.03-35.76z" class="AN"/><path d="M207.56 90.17a3.09 3.09 0 0 1 3.61 1.41 9.46 9.46 0 0 1 1.08 3 14.64 14.64 0 0 1 .3 2.66s6.53-3.2 9.76-5c2.43-1.38 6.6-8.32 8.5-11.7.64-1.13 1-1.86 1-1.86s-8.15-7.83-11-2.75S211 88.2 207.56 90.17z" fill="#ebeaea"/><path class="y AO" d="M212.55 97.22s6.53-3.2 9.76-5c2.43-1.38 6.6-8.32 8.5-11.7a15 15 0 0 0-5-3s-5.82 12.74-7.5 14.26-6.07 2.78-6.07 2.78a14.64 14.64 0 0 1 .3 2.66z"/><path d="M228.76 179.18l-5.67 1.72a45.56 45.56 0 0 0-7.12 5.69c-.77 1.08-1.57 2.78-.12 4.12s2.43 1.7 6.05 1 7.53-3.93 9.14-4.7 2.4-.72 4.22-1.43 3.18-1 3.55-2.33-.6-7-.6-7-9.03 2.37-9.45 2.92z" fill="#d16800"/><path d="M225.7 155.9c.2.66 2.05 23.73 2.05 23.73s1.48 2.6 5.82 2.65a8.07 8.07 0 0 0 3.69-.74 4.44 4.44 0 0 0 2.54-3.1c.27-1.5.1-15.4 1.58-20.82 1.2-4.45-.5-21.7-1.3-29.2l-.38-3.28c-.3-2.7-12.6-16.35-19-12.15a124.4 124.4 0 0 0 1.54 22.49l3.47 20.43z" fill="#3b2b7e"/><path class="V AI" d="M237.57 163.47c-.78 4.2-.74 12.8-.3 18.06a4.44 4.44 0 0 0 2.54-3.1c.27-1.5.1-15.4 1.58-20.82 1.2-4.45-.5-21.7-1.3-29.2a25.77 25.77 0 0 0-9.26 1.19s2.16 8.92 3.3 10.83 2.27 9 2.56 11.54 1.77 6.85.9 11.5z"/><path d="M255.56 190.8l1.58 4.45c.26.8.7 1.77-1.92 4.08s-3.15 6.37-6.95 8.15-8.76 2.27-11.68-.4c.78-3.8 1.78-4.72 3.28-7.13s3.86-6.06 4.1-6.3 11.58-2.85 11.58-2.85z" fill="#d16800"/><path d="M230.38 131.16a73.63 73.63 0 0 0 5.09 7.35c.26.3 2.63 13.52 3.33 20.25.6 5.66 4.52 35.42 4.52 35.42s2 3.4 7.15 1.7a13.59 13.59 0 0 0 3.58-1.72c1.9-1.38 2.2-2.8 2-3.52-.3-1 1.17-7.55 2.06-15.18a54.43 54.43 0 0 0-1-17c-.4-1.43-1.17-8.57-1.58-11.6s3.3-11.4 3.78-16.7a53.87 53.87 0 0 0 .2-6.93c-.05-1.28-.13-2-.13-2s-29.28-9-30-6.36.12 14.47 1 16.3z" fill="#3b2b7e"/><path class="V AI" d="M254.05 194.15c1.9-1.38 2.2-2.8 2-3.52-.3-1 1.17-7.55 2.06-15.18a54.43 54.43 0 0 0-1-17c-.4-1.43-1.17-8.57-1.58-11.6s3.3-11.4 3.78-16.7c.16-1.72.24-3.46.24-5.2 0-1.45.13-2.06-1.3-1.52-3.27 1.24-7.42.26-10.9.13-3.77-.15-7.55-.2-11.3-.57-2.94-.3-5.86-1.14-8.8-1.24.27.9.86 1.07 1.58 1.48 1.1.65 2.1 1.5 3.2 2.15a17.48 17.48 0 0 0 3.73 1.36 81.39 81.39 0 0 0 8.64 2.54c1.88.4 4.3 0 6.23 0a17.75 17.75 0 0 0 6.39-.88 28.43 28.43 0 0 1-.55 5.6c-.5 2.18-2.9 11.44-2.67 13.3s2.36 11.34 2.5 13.83a100.6 100.6 0 0 1-2 17.87c-.97 3.73-.56 11.23-.23 15.13z"/><path d="M223.5 119.3c4.3 4.4 15.16 7.72 23.86 8.48a19.91 19.91 0 0 0 9.09-1.13 10.76 10.76 0 0 0 3.52-2.09 9 9 0 0 0 .52-4.47c-.32-2.7-1.28-8.35-1.7-9.74s.2-1.85.35-8.1c.08-3.13 2.27-10.17 4.2-17.3S267 70.66 266 67.13c-1.83-7.07-6.67-10.55-9.3-14.56s-5.25-4.75-5.25-4.75S247.1 43 242 43.1s-7.53.94-10.3 3.94-6.2 13-6.7 20.2-.4 15.77-.5 18.6c-.05 1.2-.5 4.3-1 7.7l-.42 3-.1.75-.06.43a60.27 60.27 0 0 0-.74 7.28c.13 3-2.5 8.44-2.5 8.44s-.5 1.47 3.8 5.88z" fill="#009345"/><path d="M228.66 61.12l6.04 4.44-2.05 5.3-5.7-4.27 1.72-5.46z" fill="#f7f7f7"/><path class="y AO" d="M222.93 97.68s3.44.13 4.68 1.23A23.93 23.93 0 0 0 233 102a73 73 0 0 0 10.65 3l7.05 1.74a17.77 17.77 0 0 1 3.67 1.58c.46.33-.32 3.16-1 3.82s.63 3.45 1.27 4.17.88.4 1.14 3.82l.72 6.5a10.76 10.76 0 0 0 3.52-2.09 9 9 0 0 0 .52-4.47c-.32-2.7-1.28-8.35-1.7-9.74s.2-1.85.35-8.1c.08-3.13 2.27-10.17 4.2-17.3a20.9 20.9 0 0 0-12.11-8.73s-2.65 9.4-2.1 11.38a35.92 35.92 0 0 1 .85 4.52l.2 4.5-26.68-3.1-.42 3-.1.75z"/><path d="M252.75 92.47l.34 1.52s-.18 6.68 5.06 10.2a10.85 10.85 0 0 0 1.82 1c7.1 3.06 7.6-20.8 7.57-25.82s.27-12.35-2.9-16.06a4.63 4.63 0 0 0-.58-.59h0c-3.22-2.82-8.08-.48-10.16 1.92-2.2 2.55-3.14 11.2-2.47 18.36a91.19 91.19 0 0 0 1.33 9.46z" class="AN"/><path d="M228.93 95.8a2.67 2.67 0 0 0 .4 1.33l11.67 4.68c7.14 2.82 18 3.93 19 3.38a3.79 3.79 0 0 0 1.06-1.36h0c.95-1.72 1.83-4.63.8-6.4-1.44-2.48-6.1-4.92-8.6-5h-.5c-3.82-.32-20.6-3.22-21.2-3.36s-1.45.94-2.3 3.93a7.74 7.74 0 0 0-.35 2.79z" fill="#ebeaea"/><path d="M252.26 92.42s2.52.14 3.85 4.8-2.52 7.9-2.52 7.9l7.68.36s3.05-4.15 1.4-8.25-8.26-5.5-10.42-4.8z" class="AN"/><path d="M197.42 93.77s-.47 1 4.2 3.42 19.46 6.9 19.46 6.9l-9.57-7.15-10.07-3.66s-.64.65-2.9-.6l-1-.48z" fill="#fff"/><path class="y AO" d="M228.93 95.8a2.67 2.67 0 0 0 .4 1.33l11.67 4.68c7.14 2.82 18 3.93 19 3.38 7.1 3.06 7.6-20.8 7.57-25.82s.27-12.35-2.9-16.06a4.63 4.63 0 0 0-.58-.59 42.88 42.88 0 0 1 1.18 10.14c-.1 5-1.5 23.1-1.5 23.1s-.68 6.38-2.7 7.88h0a4.93 4.93 0 0 1-2.88.36c-4.4-.26-12.34-2.35-17.5-3.6a47.69 47.69 0 0 1-11.76-4.8z"/><path d="M252.77 43.6s-.12 4.42.43 5.6a24.15 24.15 0 0 0 2.64 3.59A25.86 25.86 0 0 1 245 57c-6 .7-6.1-1.3-6.4-2s1-5.67.88-8 .74-11.53 4.94-11.13 2.7-10.16 6.3-7.45 6.26 5.76 5.93 7.25.28 2.2-3.87 7.93z" class="AF"/><path class="W AJ" d="M234.67 45.47a28.9 28.9 0 0 0-1.38 4.58c-.22 1.58 4.4 1.85 4.57 1.94a11.51 11.51 0 0 0 4.93-1.32 11 11 0 0 0 4.33-4.16 23.26 23.26 0 0 0-4.07-1.91c-.8-.06-8.38.87-8.38.87z"/><path d="M215.2 87.35l-5.5 8.05-.18 2.1 2-1.35 5.34-8.6-1.65-.18z" fill="#504a4d"/><path d="M217.57 93a2.15 2.15 0 0 0 .33 1.52c.47.55.83.43 1 .3a13.49 13.49 0 0 0 1.1-1.2 7.12 7.12 0 0 1 2.24.44c.57.35 1.6 1.67 3.5 1.74s1.8-.5 3.92.5 4.43-.55 4.43-.55-.57-5.17-2.17-5.8a17.89 17.89 0 0 1-3.51-2.08c-.52-.35-2.7-3.2-3.83-3.74s-6.5-.5-7.57-.18a4.92 4.92 0 0 0-2.29 2.37 3 3 0 0 0 .2 1.69l.27.42a1.86 1.86 0 0 0-.15 1.69 5.3 5.3 0 0 0 1 1.17l.14 1.8c.07.22 1.26.8 1.38-.1z" class="AF"/><path d="M217.02 84.76h1.73l6.4-7.6-.1-.8-.6-.44-.7.18-6.76 8.66z" fill="#504a4d"/><path d="M239.37 22.64a9.43 9.43 0 0 0-4.2 6.06c-.94 4.3-1 4.67-.76 6.47s-1 3.3-.74 5.7 1.4 8.57 1.5 8.82a4.21 4.21 0 0 0 3 .58c1.42-.2 8.5-2.56 9.78-4.65s2.38-3.45 3-5.87 2.47-7.5 1.1-11-12.68-6.12-12.68-6.12z" class="AF"/><g class="AM"><path d="M239.48 26.66a15.31 15.31 0 0 1 4 1.16 10.73 10.73 0 0 1 2.08 1.4c.1.24.28 2.87.42 3.56s1.74 2.1 1.75 2.58-.12 4-.8 5-3.15 2.3-5 2.85-3.73-1.87-2.9-3 .4 0 2.83-.52 2.8-1.3 2.85-2.3-2-3-2.7-3.17-4.76-.24-5.18-.5-.38-7.4 2.68-7.07z"/><path d="M237.4 33.12l-.2.7-.73 3.28-.35 1.73a9.35 9.35 0 0 1 .89 1.28c.33.62-.08.92-.08.92a3.32 3.32 0 0 0-1.63-.42 1.85 1.85 0 0 1-1.23-.28l1.32-2.5a29.88 29.88 0 0 0 1.29-4.63c-.05-.76.72-.1.72-.1z"/></g><path d="M237.84 25.75a26.82 26.82 0 0 1 5 1.4c1.16.65 2.88.82 3 1.6l.35 3s2 2.37 2.23 3.52a14.35 14.35 0 0 1 0 3.3l1.36-.16s.55-4.13 2.65-3.63.9 3.9.9 3.9l-.65 4.9s6-3.4 6.16-14-7.63-11.6-10.66-11.84-8.33.52-10.9 3.6-2.3 8.05-2.3 8.05l1.5-2.8s-.28-.95 1.33-.88z" fill="#4a2727"/><path d="M239.6 25.08l4.3 2 3 1.17c.37.17 1.67.2 2.17.32a6.22 6.22 0 0 0 2.1-.52L250.5 27l-.7-1a3.59 3.59 0 0 1 .66-.69 3.92 3.92 0 0 1 1.52 0 6.09 6.09 0 0 0 .83.43l1-1.1s-.7-.87-.07-.56 2 1.12 2 1.12l.27.7.84-.07-.33-1.2 1.2-.15a8.14 8.14 0 0 0-2.77-4 11.17 11.17 0 0 0-5.58-1.71L247 19a15 15 0 0 1 1.15 1.45c0 .12.4-.12-3.4.3s-3.75 1-2.07 1.1a12.22 12.22 0 0 1 1.81.2l-3 .67 2 .62h-3.15c-.37 0 1.8.88 1.8.88h-2.53s2.22.67-.02.87z" fill="#613b37"/><path d="M250 39a5.57 5.57 0 0 1 2.08-3.8c1.9-1.32 2.76.4 2.73 1.44s-2.3 4.07-2.77 4.88-1.92.73-2-.17A16.52 16.52 0 0 1 250 39z" class="AM"/></g></g><defs ><path id="B" d="M183.34 140.43l-3.08 1.77 2.28.32 3.08-1.77-2.28-.32z"/></defs></svg>