<svg xmlns="http://www.w3.org/2000/svg" xmlns:xlink="http://www.w3.org/1999/xlink" viewBox="0 0 300 300"><style><![CDATA[.T{fill:#d8a798}.U{fill:#282a35}.V{fill:#aa0031}.W{fill:#151823}.X{fill:#009345}.Y{fill:#cad5e5}.Z{fill:#d1203d}]]></style><defs><linearGradient id="A" x1="322.897" y1="7.718" x2="151.009" y2="123.104" gradientUnits="userSpaceOnUse"><stop offset=".21" stop-color="#fff"/><stop offset=".96" stop-color="#3d3d3d"/></linearGradient><linearGradient id="B" x1="241.004" y1="-28.756" x2="70.505" y2="112.381" xlink:href="#A"/><linearGradient id="C" x1="115.442" y1="77.307" x2="127.297" y2="46.454" gradientUnits="userSpaceOnUse"><stop offset=".25" stop-color="#fff"/><stop offset=".64" stop-color="#c6c0b9"/></linearGradient><linearGradient id="D" x1="128.779" y1="174.298" x2="146.187" y2="143.177" gradientUnits="userSpaceOnUse"><stop offset="0" stop-color="#fff"/><stop offset=".41" stop-color="#baada6"/></linearGradient></defs><path d="M241.16 259.2a2.24 2.24 0 0 0-1-1.68.61.61 0 0 1-.21.11l1.3-65.63a1.73 1.73 0 0 0 .68-1.54l.4-25.74c0-.34-.2-.47-.55-.52l.17-9.26a13.1 13.1 0 0 0-.47-4 3.58 3.58 0 0 0 .75-1.06 8.36 8.36 0 0 0 .95-3 1.5 1.5 0 0 1-.1-.15 1 1 0 0 0 0-.17 5.14 5.14 0 0 0-1.84-2.66h0c-.06-.06-.07-.07-.06 0l-2.42-2.27-.1-.15a9 9 0 0 1-.37-1.76l1.67-.52s2.44-21.54 1.62-25.87c-1.52-8-8.8-40-13.54-39.52l-.1-.06c-6.17-2.64-12.78-6.22-13.62-6.67a.23.23 0 0 0 0 0h0v.16a9.77 9.77 0 0 0-2-1.15c0-.25.08-.5.13-.76a25.15 25.15 0 0 0 2.82-4.45c.7-1.36.68-2.44.2-3h0a43.41 43.41 0 0 0 1.88-5.57c.74-2.5-3.17-12.38-8.78-12.33-.9-.45-2-.85-3.13-1.48-3.86-2.14-16.48 2.8-16.6 9.28-.08 4.82-.1 7.06.15 7.68a2.27 2.27 0 0 0-1.35 1.65c-.2 1.52 1.73 6.08 3.13 7l.06.53a8.82 8.82 0 0 0-1.86.89h0a35.96 35.96 0 0 0-1.66.66c-9.38 2.75-15.5 3.27-18.08 6.32-5 2.26-13.86 28.66-16.17 36.26-1.32 4.35-1.57 30-1.57 30s.65.17 1.65.38c-2.07 1.3-4.82 2.2-5.24 3.67a6.76 6.76 0 0 0-.08 1.74 3.68 3.68 0 0 0-.81.95c-1.63 2.7-1.93 7-2.82 12.76-1.17 8.06-9.76 97.94-9.76 98a1.76 1.76 0 0 0 1.64 1.88h.2a2 2 0 0 0 2-1.71l4.15-42.72a2.69 2.69 0 0 1 2.38-2h.33l3.7.7a1.62 1.62 0 0 1 .87.47l-3.07 46.77h-.1a3 3 0 0 0-1.18 1.88l-.53 3.58c-.3 2 1.57 2.6 3.88 2.6s4.16-.53 4.1-2.56l-.1-3.6a2.64 2.64 0 0 0-1-2l-.1.05 4.33-65.1a2.21 2.21 0 0 0 .59-1.5l1.43-20.35c2 .17 4.78.3 8.1.43-1 9.67-2 20.37-2 26.07a292.38 292.38 0 0 1 3.72 37.93 3.19 3.19 0 0 0 2.67 3.12c-1.23 3.47-2.9 6-4.18 10.73h0l-.13.1s-1.27 4.05.16 6c1.13 1.54 19.1-29.23 19.1-30.4 1.17 6.14 4.8 16.58 3 18.72-3.17 3.7-.2 5.84.65 9.26a6.74 6.74 0 0 0 .2 1.09c-.28.5.17 4.3 1.64 3.95s2.8 1.7 4.5 3.4 8.28.35 10.47 0a15.56 15.56 0 0 1 4.31 0s1.76-3.35.65-4.56c.36-2.16-1.15-4.15-5-6.34-.13-.08-.5-12.47-.5-12.47-.47-1 4.7-22.56 4.88-25.6.24-4.14.48-4.62 3-9.77 2.4-5 3.92-19.53 5.16-31.34l10.23-.52-4.65 78.43a2.2 2.2 0 0 0-.85 1.4l-.37 2.65c-.2 1.5 1 .7 2.64.67s2.43-.4 2.37-1.9l.3-3.88a983.8 983.8 0 0 1 1.25-29 1.5 1.5 0 0 0 .27-.71h0l.3-5a4.09 4.09 0 0 1 .86-2.37 1.58 1.58 0 0 1 1.2-.69h.1l3.2.36a1.65 1.65 0 0 1 1.1.88 4 4 0 0 1 .54 1.72v1.63l-.17 3.46a1.54 1.54 0 0 0 .1.56l-.67 37h-.14a2.64 2.64 0 0 0-1 1.67l-.37 3.13c-.2 1.77 1.4 2.2 3.4 2.15s3.57-.62 3.48-2.38zm-8.47-99.15l.2-3.94a47.13 47.13 0 0 1 .67-6 9 9 0 0 0 1.17 1.92c.5.44 1.36-.57 1.45-2a2 2 0 0 0 0-.35 5.18 5.18 0 0 1 .47.58 5.31 5.31 0 0 1 .44.81c-.55.3-1.1.66-1.12 1.17s.4.43 1 .3a.71.71 0 0 0 .64.3 10 10 0 0 1 .2 2.25l-.18 9.46c-.12 0-.22.08-.23.14v1.2l-4.9-1 .25-4.75zm-79.4-11.88a.88.88 0 0 1 .22.4 6.39 6.39 0 0 1-.23-.41h0zm.44 2.12v-.66q0 .3 0 .66zm3-5.7l.23.2a1.5 1.5 0 0 0-.24-.2zm-8.63 14.1c.56-3.84 1-7.08 1.5-9.18l.1-.36c.54.5 1 .8 1.27.67a2.24 2.24 0 0 0 2.06.61 5.21 5.21 0 0 0 .74.48v.38l-.85 12.86c-.45 0-.75 0-.8.36v.28l-4.55-1.5.55-4.62zm9.7-12.82l.1.12c0-.07-.07-.12-.1-.18zm-8.17 63.5l-3.7-.7a4.5 4.5 0 0 0-1-.1 5.49 5.49 0 0 0-2 .4l4.17-41.43 4.72 1.53-1.66 24.1c-.08 1 .2 1.4.75 1.58l-1 14.72-.32-.1zm8.66-41.8l.18-2.47c0-.5-.12-.54-.57-.5l.87-13.2a15.27 15.27 0 0 0-.14-3.24c.56-2.35 3-4.12 2.85-6.25a15.25 15.25 0 0 1 .15-2.13 4.51 4.51 0 0 0 1.47-.47c3-1.68 3.86-23.46 3.86-23.46s1.7-3.05 3.6-6.83a27.27 27.27 0 0 1-.88 9.21c-1.64 5.3-6.08 20.64-2 24.2-.5 2.63-1.5 5.82-1.5 5.82a66.86 66.86 0 0 0 2.79.69l-.7 5.62c-.38 2.4-1 7.47-1.72 13.45-3.57-.14-6.46-.3-8.3-.46zm60.46.4a263.62 263.62 0 0 0 .93-17.77 13.07 13.07 0 0 0 2.27-1.3 7.82 7.82 0 0 1 0-4.52c2.1-1.66 3.92-10.34 2.78-22.63-.45-4.87-.74-8.78-.78-12.1a223.55 223.55 0 0 0 2.52 6.94s1.23 19.76 2.27 23c.24.73 1 1.08 2 1.2a6.29 6.29 0 0 1 .1 2 3.91 3.91 0 0 0-.06 1.67 6.52 6.52 0 0 0 .09 1.25 2.85 2.85 0 0 0 .22.7c-1.26 2.2-1.48 5.43-1.78 9.54l-.2 4c0 1.07-.2 3.7-.4 7.4-3.1.2-6.48.38-10.05.5zm16.88 41.67l-3.17-.36a3.71 3.71 0 0 0-.47 0 4.69 4.69 0 0 0-2.14.55l2.22-37.57c1.86-.15 3.6-.3 5.2-.5l-.5 19.12a1.65 1.65 0 0 0 .43 1.36l-.33 17.82a4.35 4.35 0 0 0-1.22-.39z" fill="url(#A)"/><path d="M172 109.7c-3.5 0-11.36-8.8-14.64-8.14a59.41 59.41 0 0 0-2.32-6.73c.35-.4.55-.74.5-.93-6.46-23-17.17-22.43-17.36-24.36 3.57.6 8.5.6 10.15 0-.36-.47-.77-7.4-.55-12.34 3.67-3.42 3-9.82.57-13.3a12.19 12.19 0 0 0-4.33-4c-4.48-3.4-13-2.24-17.1 2.45-2.76 3.13-5.32 10.5-5.7 14.8-1.32 2.4-2.83 4.48-3.72 4.7.48.92 3 3.16 6 4.67a20.08 20.08 0 0 1-4.12 2.25v-.08s-8.1 2.3-11.38 2.8l-.07.07a7.24 7.24 0 0 0-2.24.8c-2.4 1.2-4.08 3.1-4.94 8-.7 3.9 4 15.65 6 20.26 0 .32-.05.66-.07 1-.8 13.32-9.8 12-16.32 36-.12.43.2.92.77 1.43-7.22 17.25-4 25.22-8.93 51.16a16.81 16.81 0 0 1-1.09 3c-1.57 3.12-4.42 6.75-7.36 15a36.14 36.14 0 0 0-1.8 5.72l.4.28-.64 1.86c-3.2 9.64-4.75 20.5-6.63 24.8-1.14 2.62-3.3 4.9-4.64 6.86v-.1c0-1.76-6.33 8.08-1.73 10.45 7 3.6 11.28-4.3 11.66-7.54l-.14.07c.4-1.73 1.4-4.52 2.17-7.12 5.56-9 16-24.5 16-24.5s20.88-42.34 25-53.44c-.82 10.63-4.52 24.76-5.66 31.33-.83 4.8-1.86 13.57-2.32 16.74a1.79 1.79 0 0 0 0 .69.24.24 0 0 1 0 .07l.07.1a2.49 2.49 0 0 0 .6.91c-1 10.6 2.1 13.54-.85 25.5-.45 1.83-.87 3.13-1.26 4.27a1.56 1.56 0 0 1 .06-.74c-1.47 1.66-1.7 4.5-1.53 6.28s.18 3.26.64 3.38 1.08.44 1.88.66 2-.2 3.45.8c4.06 3.8 11.22 5 14.94 4.32 6.63-1.2-2.6-7.65-3.34-8.78v.45a28 28 0 0 1-4.11-5.34c-3.24-6.55 5.25-28.08 5.55-28.14 3.6-9.1 2.67-12.43 5.87-24.45 2.37-8.86 9-28.2 9.33-46.47a1.46 1.46 0 0 0 .83-.92c1.44-8.46 0-21.28-.28-24.17a29.43 29.43 0 0 1 .48-8.27 36.88 36.88 0 0 0 8.38.75c2.4.48 6.2-1.85 7.1-1.73.5 0 1.26-.18 2-.33 4.8 2.35 17.22 5.18 17.22 5.18s3.2-8-.44-7.98zm-18.6 2.1c0-.1.07-.16.22-.23l.23.2h-.45z" fill="url(#B)"/><path d="M142.33 76.63c2.7 5.24 7 13.54 8.9 19.9 3.2-.7 11.27 8.13 14.7 8.06s.68 8.17.68 8.17-17.73-3.94-19-6.38c0 0-8.74-10.37-10.48-17.14-.76-3.24 5.2-12.6 5.2-12.6z" fill="#cc9483"/><path d="M139.82 97.66c1.74-1.33 9.64-7.65 9.35-8.84-4.62-18.6-10.17-17.1-10.17-17.1s-3.67 15.46-3.38 16.18c1.85 4.7 4.2 9.75 4.2 9.75z" class="X"/><path d="M120.3 191.8c.1 3.06 1.54 12.8-.47 24.52s-8 23.24-4.58 30.16c.94 1.88 3.57 4.93 6.33 7.87 3 3.23-9 4.87-11 1.74-1.86-2.88-9.27-3.57-8-8.17.53-2 1.17-3.7 1.85-7 2.57-12.66-.63-15.7.07-27 1-15.93 3.28-22.27 3.7-27.8s12 2.62 12.1 5.7z" class="T"/><path d="M128.7 123.48c9.94 23.73-2.32 54.1-5.1 66.63s.06 19.1-2.86 25.57c-14.2 3.16-17-2.63-17-2.63s1.44-17.37 2.68-25.76c.2-1.2 2.26-44.23 3.33-58.28.48-6 18.95-5.53 18.95-5.53z" fill="#3b2b7e"/><path d="M108.17 150.12c3.9 8.48.93 40.82.93 40.82a39.83 39.83 0 0 0-.2 11.79c.14 2.14-1.25 11.15-1.5 12.67-.05.42-3.94-.8-3.68-3.15l1.78-17.46c1.4-10.35 2.67-44.67 2.67-44.67z" fill="#2f256b"/><path d="M103.3 244.62s-.4.88.83 3.26c1 1.87 3.58 3.9 5.75 5.32 2.3 1 5.15 1.86 7.64 1.6 2-.1 2.12-.6 2-3.17.78 1.2 10.25 8.05 3.64 9.3-3.7.7-10.9-.54-15.1-4.58-1.44-1.05-2.8-.64-3.46-.83s-1.43-.6-1.9-.7-.5-1.7-.74-3.57-.1-4.88 1.33-6.64z" class="U"/><path d="M78.94 195.7a85.39 85.39 0 0 0-8.5 19.23c-2.92 10.1-4.18 21.48-5.94 26-1.5 3.87-5 7-5.48 9.58-.65 3.86 3.07 7.14 6.24 6.27s3.92-2.12 4.5-5.28c.3-1.78 1.3-4.92 2-7.82 2.84-11 9.1-14.9 12.9-24.1 5.36-13 4.87-16 6.66-20.58s-11.13-5.7-12.38-3.3z" fill="#cc9483"/><path d="M60 248.06c.18 3.8 4.15 6.12 9.92 3.06-.3 3.42-4.36 11.78-11.4 8C54 256.6 60 246.2 60 248.06z" class="U"/><path d="M93.5 125.6c-10.28 15.73-6 23.17-13.4 62.35-1 5.1-7.83 15.35-9.5 24.75a40.15 40.15 0 0 0 15.08 6.72 178.75 178.75 0 0 0 6.83-18.07 86.07 86.07 0 0 0 4.25-9.14c4.37-14 15.52-42.83 16.25-52.83.4-5.32-19.52-13.78-19.52-13.78z" fill="#3b2b7e"/><path d="M80.12 187.94c4.9-31.36-.6-37.15 11.75-62.66l10 .53c-8.26 6.15-14.52 47.64-16.3 60-.7 4.87-3.86 8.93-5.27 12.22-1.33 3.07-5.17 12.24-5.2 17.52a32.74 32.74 0 0 1-4.45-2.82c3.98-16.6 8.68-19.67 9.48-24.8z" fill="#2f256b"/><path d="M140.54 48.33c-.77 3.65.22 15.5.7 16.1-2.4 1-12.4.67-13.64-1.22s12.94-14.88 12.94-14.88z" class="U"/><path d="M116.73 45.53c.38 2.32-3.9 11.2-5.7 11.7.8 1.5 7.1 6.5 11.86 5.9 1.8-.22.84-11.38.46-12s-6.62-5.6-6.62-5.6z" class="W"/><path d="M107.88 65.82c2.1-.45 8.07-2.13 11.12-6 1.14-3 2.45-6.27 2.6-7.06l6.76 2c-.06.25 4.5 1.85 4.5 1.85-4.9 12.32 3.08 13.55 5.2 15 2.36.9-12.87 17-14.37 16.64-22.47-5.46-18.2-22.45-15.8-22.43z" class="T"/><path d="M128.3 57.52c-.06.48 4.54 2.82 4.54 4.76-1.74 2-6.7 7.56-17.37 15.7-3.13 2.4-5-10.82-6.34-12.6a13.38 13.38 0 0 0 9.51-5.18c2.08-3.1 2.67-7.94 2.72-8.34z" fill="url(#C)"/><path d="M139.67 51.12c-1.7 7.66-6.55 13.52-11.32 13.44s-8.65-3.1-8.4-13.2c.16-6.33-.1-16.1 10.15-16.33 9.6-.2 11.4 7.87 9.57 16.08z" class="T"/><path d="M134.28 41.86c2.6.8 6.07 4.6 5.06 11.07 4.5-3.2 3.7-10.32 1-14-3.17-4.32-6-4.46-6-4.46z" class="U"/><path d="M137.35 42.92c-4.7 1.4-12.95-1.85-15 3.36a38.38 38.38 0 0 1-3.56 6.72s-3.94 3.44-4.26 1.32c-.55-3.55 2-12.95 5-16.6 4-4.9 12.7-6.1 17-2.3 2.3 2.02.82 7.5.82 7.5z" class="W"/><path d="M122.17 47.43c-2.35-2.2-3.84 2.43-3.24 4.47.72 2.5 1.72 1.85 1.72 1.85z" class="T"/><path d="M113.05 64c-.1 1.36 3.23 13.17 11.5 14.64 5.82 1 8.5-3.34 8.95-10.35 4.75 3.53 6.8 3.6 6.8 3.6s-.78 20.75-4.18 26.38a31.93 31.93 0 0 0-3.95 19.35c.38 2.93 2.23 16 1.1 24.65-.5 4-28.74 3-44.12-6-.25-.15 3.45-16.52 9.3-25.15 2.16-3.2 4.84-17.67 3.24-24.24-1.47-6.1-.58-19.72.34-19.9 3.18-.53 11-3 11-3z" class="X"/><path d="M104.16 72.65c1.5 3.35 5.84 8.5 6.38 10.35 2.8 10.52 7.62 13.6 14.55 13 4-.37 7.4 2.5 7.8 4.43s-8.75-2-17.5 3.3c-2.33 1.4-12.52 12.52-14.86 21.56l-3.88 14.53s-10.48-3.66-9.94-5.9c5.7-24.4 14.5-23.15 14.9-36.6.13-4.67.55-5.16 1-11.73.4-6.14 1.55-12.92 1.55-12.92zm35.84 8.2c-.1-3.4 4.2 13 4.2 13l-4.38 3.85-2.1-4.8A34.55 34.55 0 0 0 140 80.84z" fill="#047c37"/><g class="T"><path d="M233.33 137.57c-.5-.6 2.1 3 2.1 3 0 .72-.36 3-1.18 3.68a18.87 18.87 0 0 1-2.37 1.91c-1.74 1.12-2.58.2-2.18 0 2.7-1.32 2.64-3.62 2.9-4.55s.72-4.04.72-4.04z"/><path d="M235.28 141.34a4.77 4.77 0 0 0 0-1.07c-.2-1.5-2.75-3.24-4.58-5l-.12-.15c-.54-1-2.37-12.7-3.14-16.74 0 0-7.13 1-7.63 2.72s3.56 13.8 3.18 15.62c-.46 2.17 1.2 4.2 2 5.24 0 0 1-2 2.4-2.18s3.33.46 3.72 1.18a3.11 3.11 0 0 1-.79 3.55c-.6.43-1.78.88-1.75 1.66s1.86.16 3.22-.67c-.4.47-.86.85-.7 1.1.27.5 1.7-.66 2.82-1.7a5.46 5.46 0 0 0 1.21-2.77 1.37 1.37 0 0 0 .16-.63s.01-.1 0-.16z"/></g><g class="Y"><path d="M222.56 252.88l-.05-46.25-.16-56.4c0-4.26.07-7.6 1.2-9.9h0a3 3 0 0 1 2.56-1.67h0a3.08 3.08 0 0 1 .61.07h0a1.77 1.77 0 0 1 1.34 2.1h0a1.77 1.77 0 0 1-1.51 1.37h0a6.16 6.16 0 0 0-.33 1.33h0a44 44 0 0 0-.36 6.69h0l.05 4.06c.15 8.12.2 98.58.2 98.6h0a1.76 1.76 0 0 1-1.76 1.76h0a1.76 1.76 0 0 1-1.76-1.76z"/><path d="M235.42 262.12l-4.8-113.07a9.35 9.35 0 0 0-1.45-5h0a3.53 3.53 0 0 0-2.92-1.68h-.16a2.05 2.05 0 0 1-2.15-2h0a2 2 0 0 1 2-2.14h.35a7.59 7.59 0 0 1 6.27 3.42h0a13.24 13.24 0 0 1 2.2 7.16h0l4.8 113.05a2 2 0 0 1-2 2.14h-.08a2.06 2.06 0 0 1-2.06-2z"/><path d="M231.36 164.27l-7-1.4a2 2 0 0 1-1.53-2.29h0a2 2 0 0 1 2.29-1.53h0l7 1.4a2 2 0 0 1 1.53 2.3h0a2 2 0 0 1-1.91 1.57h0a2.58 2.58 0 0 1-.39 0zm-95.66 93.35a1.9 1.9 0 0 1-1.81-2h0l5.26-101.75c.6-5.9.7-10.24 2.17-13h0a3.48 3.48 0 0 1 3-1.93h0a3.66 3.66 0 0 1 .81.1h0a1.9 1.9 0 0 1 1.42 2.29h0a1.91 1.91 0 0 1-2 1.46h0a8.17 8.17 0 0 0-.62 2.1h0c-.4 2.15-.68 5.45-1 9.37h0c-.37 3.9-1.7 29.4-2.9 53.77h0l-2.34 47.8a1.9 1.9 0 0 1-1.9 1.82h-.08z"/><path d="M148.36 266.83a2.42 2.42 0 0 1-2.38-2.47h0l2.1-117.74c0-2.25-.4-3.08-.56-3.17h0c-.08-.14-.85-.55-3-.53h0a2.43 2.43 0 0 1-2.44-2.43h0a2.43 2.43 0 0 1 2.43-2.43h0c2.48 0 4.7.27 6.46 2h0c1.7 1.77 1.95 4 2 6.62h0l-2.1 117.78a2.44 2.44 0 0 1-2.44 2.39z"/></g><g class="T"><path d="M148.47 132.9c-1.6 2.23-6 3.26-6.42 5.2-.16.7 0 4.24 1 5.4s2 2 2.33 1.58-1.14-1.73-.8-2.86 3.9-9.32 3.9-9.32z"/><path d="M144.78 136.86c-1 1-2.34 2.1-2.4 2.8s.06 3 .82 3.78a19.31 19.31 0 0 0 2.11 1.72c1.63 1.28 2.67.36 2.3.13a4.79 4.79 0 0 1-2.52-4.3c-.18-.95-.32-4.14-.32-4.14z"/><path d="M148.1 146.25a15.62 15.62 0 0 1-2.86-2.46c-2.45-2.2-2.9-3-2.83-3.24.85-3.17 4.66-5 5.3-5.9s-.73-11.3.44-15.24c0 0 7.47.38 7.8 2.2s-1 13.53-.83 15.37c.25 2.2-2.15 4.08-2.5 6.55l-.8-2.37c-1-1.34-.87-1.15-1.4-1.57a2.22 2.22 0 0 0-3 .51 2.38 2.38 0 0 0-.27 2.68 10.32 10.32 0 0 0 .74 1.34z"/></g><path d="M164.92 250s-1.06 4.3.47 6.37c1.2 1.64 3.2 3.86 7 3.13 3.42-.66 8-1.63 7.95-15.42 0-1.4 1.5-.76 1.68-2.48.17-1.55-.95-6.56-.95-6.56z" class="U"/><g class="W"><path d="M180 232.82a3.31 3.31 0 0 0-.64.14c-1.8-3.4-9.67.14-9.67.14-.7 7.32-3.13 9.62-4.6 16.8-.64 3.1 2 7.1 4.74 7.46 3.12.4 8.06-1.86 9.34-5.07.75-1.88.87-5.65.8-9.62a10.68 10.68 0 0 1 .72-1c2.13-2.9.23-6.68-.68-8.86z"/><path d="M165.86 235.28a328.28 328.28 0 0 0-5.52-39.62c-.54-10.85 1.3-39 2-45.92.24-2.42 1-18 2.63-21.83l28.93 2.1s-6.76 17.6-6.23 29.83c.9 20.8-4.35 31.9-4.3 34.6a1322.12 1322.12 0 0 0 1.58 41.3c.04.02-18.54 7.44-19.1-.44zm43.9 23.32c.68-2.58-.88-4.9-5.3-7.46-3.4-2-5-6.36-4.06-11.87l-10.67 1.12c-.95 5-2.84 11-1.63 14.55.92 2.68 2.62 2.23 3.1 2.94 0 .1 2.3 6.4 14.6 4.25 1.43-.25 3.7-2.72 3.93-3.53z"/></g><path d="M188.12 254.93c-.25.54.4 4.57 1.84 4.2s2.9 1.8 4.7 3.62 8.32.35 10.5 0a15 15 0 0 1 4.34 0s2-4.53-.2-5.25-6.5.36-8.3 1.08-6.7 2.7-7.78 1.27-4.66-5.86-5.1-4.93z" class="U"/><path d="M209.5 131.1c1.8 7.23 3.43 23 2.9 35.45s-1.18 28.6-3.35 34-2.37 5.94-2.37 10.27-3.14 24.7-1 29a4.13 4.13 0 0 1 1.63 4.88c-1.1 3.25-2.45 4.62-.8 7.33-7.34-4.62-16.78-2-18.4 2.84-.6-4.34-4.66-6.65-1.4-11s-7.53-11.58-1-39.8c2.28-9.9 1.77-28 .32-42.3-1.32-13.14 1.43-31.47 1.43-31.47z" class="W"/><path d="M205.7 239.33c-2.17-4.33 1-24.7 1-29s.2-4.84 2.38-10.27 2.8-21.56 3.35-34 .07-31.4-1.74-38.62l-5.8.53c1.93 21.56 2.18 60.85-1.23 68.64-4.57 10.45-5.6 31.67-4.18 35.18 4.08 10.05-3.8 3.53-5.7 11.4 2.07-.8 8.47-2.87 13.58-1.7a4.42 4.42 0 0 0-1.68-2.16z" class="U"/><path d="M172.27 64.86c3.2-3.2 6.42-6.3 8.75-6.3s20.6-2.54 23.44 4.65c1.55 4-6.12 11.7-6.12 11.7z" class="V"/><path d="M173.84 74.23s5.2-2.9 6.66-4.4a40.56 40.56 0 0 0 2.65-12.59l4.74-.64h.1l10.83 1.27c-1 11.6 4.52 15.5 4.52 15.5l-1.72 21.14z" class="T"/><path d="M198.85 59.85c.3 2.85-.8 9.16 4.94 13.78-1.55 2.27-14.3 13.34-17.27 13.3-2.44 0-11.72-10.5-13.27-12.17 6.9-.38 6.47-4.78 7.74-6a50.06 50.06 0 0 0 1.71-11.54z" fill="url(#D)"/><path d="M145.52 103.72c2-8.1 10-37.3 14.64-36.64 0 0 7 8.68 6.4 23.75-.22 5-7.37 19.72-7.37 19.72s.18 22-2.63 23.76-11.22-.35-11.22-.35-.9-25.86.18-30.24zm86.25 2.63c-2-8.1-11-40-15.6-39.4 0 0-6.74 7.4-6.08 22.48.2 5 7 20.6 7 20.6s2.37 20.08 3.6 23.4c1.14 3.1 11-.7 11-.7s1.17-22 .1-26.4z" class="V"/><path d="M182.6 61.64c-1.63 1.32 2 10.52 7.54 10.7 3.5.12 8.37-7.36 8.37-9.1s9.16 5.26 11.27 6.66-6.3 40.68-10.52 43.13S176.8 99.33 174 87.76a144.94 144.94 0 0 1-3.5-21.12z" fill="#fff"/><g class="T"><path d="M179.05 52.4c.2 4.72.92 11 3.25 13.72 1.4 1.63 5.6 3.6 6.95 3.78 2.92.42 6.8-2.17 8.8-3.53 2.8-1.88 1.82-6.17 3.17-11.64 1.9-7.74-.24-16.46-10.07-16.86-15.06-.58-12.47 6.64-12.1 14.53z"/><path d="M179.93 49.32c-1.24-.18-3.54.5-3.68 2.2s2.52 7.1 3.83 7-.15-9.2-.15-9.2zm21.37 1.98c1.8-.73 2.72.8 1.7 3.13s-2.83 5.64-3.3 4.88 1.6-8 1.6-8z"/></g><path d="M193.63 41.56c6.6-3 9.1 4.1 6.87 9.52a8.54 8.54 0 0 0 2.56.38 43.1 43.1 0 0 0 1.51-5.56c.64-2.8-4.88-14.6-11.18-11.3s.24 6.97.24 6.97z" fill="#e2e6ed"/><path d="M196 40.86c-1.47 1.57-7.42 2.5-9.34 1.08-3.23-2.38-5.58 1.82-5.88 3a41.36 41.36 0 0 0 .06 6.28L179 50s-.1-.17-1.37 0c-.45.07-.54-1.92-.74-7.74-.2-6.35 11.62-11.6 15.43-9.62 2.8 1.46 5.3 1.5 5.4 4.54S196 40.86 196 40.86z" fill="#cbcbd3"/><path d="M192.9 41.77c-3.84.25-1.6-1-6.46-1.8-2.95-.47-4.62 2.3-4.62 2.3s2.9-4.93 6.86-3 4.7.53 4.7.53-7.24-3.25-10.1-.2a6.15 6.15 0 0 1 8.39-2.26h0c.73-.05-3.3-1.92-3.95-1.53 1-1.47 7.18-2.72 9.1.32s.63 3.55-.4 4.16a25.13 25.13 0 0 1-3.53 1.49z" fill="#e2e6ed"/><path d="M214.4 138.1c-.9 2.06.14 4.93.14 4.93s-6.3 5.66-22.3 4.52c-25.85-1.84 3.76-10 4-10.43z" class="V"/><g class="Z"><path d="M161.2 134.22c.68 1.55-1.2 9.13-1.2 9.13s22.55 5.74 34.32 4.2a55.78 55.78 0 0 0 0-9.23z"/><path d="M202.4 60.6c1.3 4.6.82 17-2.5 25.08-3.24 7.93-6.76 13-5.85 17.35 1.93 9.1-.6 36.27-.26 39 4.8.68 18.28-2.1 20.34-3.48s3.47-10.43 1.58-23.27c-1.55-10.46-2.12-16.54-1.1-21.7s4.4-25.52 1.45-26.7c-6.57-2.6-13.67-6.3-13.67-6.3z"/></g><path d="M194.35 142.2c3.5-1.3 1.36-26.86.33-38.18s-19.8-33.44-17.52-43.78c-9.64 3.33-15.87 3.87-18.06 7.36 1 7.2 3.57 24.78 2.2 27.18.7 6.17 2 12.62.64 18.1s-5.1 21.75-.47 24.78c1.97 1 27.32 6.6 32.88 4.53z" class="V"/><path d="M173.63 121.86c-.57 1.15-2.68 6.12-7.37 8.75-2 1.13-2.28.9-2.06 1.37a3.73 3.73 0 0 0 2.52 1.6c2.5-.23 9.88-8.34 9.08-10.17s-2.17-1.55-2.17-1.55z" class="Z"/><path d="M207.86 121.7c1.6 2.57 4.5 10 5.8 10.6s.48-3.7.48-3.7-3.22-8.7-4.5-9-1.77 2.1-1.77 2.1z" class="V"/><path d="M194.46 101c-.15-6-15.73-28.4-17.2-38.45l.73-2.75c-11.5 4.92-7.2 7-11.4 8.4 1.45 1.46 8.25.3 12.62 9.34S194.46 101 194.46 101z" class="Z"/><path d="M194 99.65c.3-1.6 10.35-23.1 8.43-39.06 0 0 9.5 9.2 10.65 9.2a6.82 6.82 0 0 0-7 4.36c-1.9 5-11.65 26.8-11.65 26.8z" class="V"/><path d="M150.12 165.8l-9.37-3a2.09 2.09 0 0 1-1.36-2.64h0a2.1 2.1 0 0 1 2.65-1.36h0l9.38 3a2.1 2.1 0 0 1 1.35 2.64h0a2.1 2.1 0 0 1-2 1.46h0a2.05 2.05 0 0 1-.65-.1z" class="Y"/><path d="M223 134.5c.17 1.75-.14 3.6.22 5.2s2.05 2.93 2.36 3.35a18.36 18.36 0 0 0 1.8 2.94c.53.44 1.32-.62 1.32-2.1 0-1.18-1-2.62-1.25-4.13a6.17 6.17 0 0 1 4-.52c.94.44-8.45-4.73-8.45-4.73z" class="T"/><path d="M149.17 219.5a1.62 1.62 0 0 1-1.5-1.74h0l.34-4.6v-.36c0-1.77-1.1-3.13-1.94-3.22h0l-3.65-.7a1.24 1.24 0 0 0-.33 0h0c-1 0-2.2 1-2.38 2.92h0l-.47 5.2a1.62 1.62 0 0 1-1.76 1.48h0a1.63 1.63 0 0 1-1.47-1.77h0l.46-5.2c.27-3.2 2.56-5.83 5.62-5.87h0a4.32 4.32 0 0 1 1 .1h0l3.64.7c2.93.63 4.56 3.47 4.58 6.4h0v.56l-.34 4.63a1.63 1.63 0 0 1-1.62 1.5h-.12zm74.08-2.5v-5.2c0-3.2 1.8-6.17 4.9-6.26h0a3.77 3.77 0 0 1 .47 0h0l3.2.36c3 .48 4.47 3.4 4.55 6.42h0l.07 4.64a1.52 1.52 0 0 1-1.49 1.53h0a1.52 1.52 0 0 1-1.54-1.49h0l-.06-4.64a4.82 4.82 0 0 0-.71-2.54h0a1.77 1.77 0 0 0-1.16-.91h0l-3.2-.36h-.1a1.49 1.49 0 0 0-1.17.73h0a4.43 4.43 0 0 0-.71 2.5h0V217a1.51 1.51 0 0 1-1.51 1.51h0a1.52 1.52 0 0 1-1.51-1.51z" class="Y"/><g fill="#9fadc9"><path d="M150.6 168.12h0a2.6 2.6 0 0 1-2.15-3h0a2.61 2.61 0 0 1 3-2.14h0c2.14.37 11.48.68 22.87.67h0c19.72 0 46.56-.82 58.56-2.86h0a2.6 2.6 0 0 1 3 2.12h0a2.6 2.6 0 0 1-2.13 3h0c-12.8 2.16-39.5 2.93-59.43 2.94h0c-11.6 0-20.58-.24-23.7-.74z"/><path d="M152.65 189.36c-.07 2-1.16 2.1-3 2h0c-1.9-.06-3.2.24-3.14-1.8l.62-29.5c.06-.8 1.74-.16 3.55 0 2.1.25 2.67-.44 2.63.5zm79.1-3.14c.1 1.9 1.15 1.8 2.58 1.66h0c1.44-.13 2.7-.24 2.6-2.14L235.7 159c0-.82-1.23-.5-2.66-.37 0 0-2.2 0-2.24.34z"/></g><path d="M152.16 261.2a3 3 0 0 0-1.16-2.09 5.72 5.72 0 0 1-2.59.37 8 8 0 0 1-2.48-.29 3 3 0 0 0-1.08 2l-.37 3.8c-.2 2.14 1.67 2.75 4 2.77s4.1-.58 3.95-2.73zm88.44-2.7a2.59 2.59 0 0 0-1.08-1.8 4.87 4.87 0 0 1-2.26.42 7.34 7.34 0 0 1-2.19-.15 2.63 2.63 0 0 0-.88 1.79l-.18 3.36c-.1 1.9 1.58 2.37 3.6 2.3s3.6-.66 3.38-2.56zm-101.88-3.67a2.48 2.48 0 0 0-.83-1.78 4.61 4.61 0 0 1-2.15.18 6.7 6.7 0 0 1-2-.34 2.45 2.45 0 0 0-1 1.59l-.48 3.1c-.27 1.76 1.24 2.35 3.13 2.48s3.4-.3 3.38-2.07zm88.48-3.73a2.21 2.21 0 0 0-.87-1.54 4.21 4.21 0 0 1-1.92.32 5.79 5.79 0 0 1-1.85-.17 2.24 2.24 0 0 0-.77 1.5l-.2 2.84c-.1 1.6 1.3 2 3 2s3-.5 2.9-2.1z" class="U"/><path d="M115.38 105.36c5.94 2 21.3 5.13 25.23 4.54 2.36.46 6-2 6.9-1.84 1.27-.15 4.46-.88 4.44-1.22s-.45-.16-1.54-.07c-.3 0-2.46.15-2.68.2-.16-.58 3.7-.64 4.6-1.25.57-.38.52-.67-.32-.65-1.37 0-4.56.3-4.56.3s5.46-.67 5.5-1.23-4.7-.2-4.7-.2l.2-.3 4.27-.1c.46-.5-1.1-1-4.33-1a12.29 12.29 0 0 0-2 .08l-1.52-.18c-1.33.23-3.24 2.07-4.44 2.88-3.8.43-14.47-7.76-18.45-7.22 0 0-13.83-19.23-15.76-18.7s-6 4.7-7.26 6.72 16.43 19.25 16.43 19.25z" class="T"/><path d="M103.62 67.5c-5.6-1.4-9.2 8.1-6.93 15.87 1.3 4.62 5.8 14.8 5.8 14.8l14.2-7.6-4.4-9.1s-6.6-13.5-8.67-13.98z" class="X"/><path d="M102.65 67.16c-1.4.53-4 3.24-2.46 8.68S108.6 95 108.6 95l-6.1 3.2S94.6 80.92 95.3 76s2.28-6.84 4.56-8.07 2.8-.77 2.8-.77z" fill="#047c37"/></svg>