<svg xmlns="http://www.w3.org/2000/svg" viewBox="0 0 300 300"><defs><linearGradient id="A" x1="107.448" y1="151.738" x2="109.813" y2="140.307" gradientUnits="userSpaceOnUse"><stop offset="0" stop-color="#fff"/><stop offset=".01" stop-color="#fcfcfc"/><stop offset=".1" stop-color="#e4e2de"/><stop offset=".19" stop-color="#d3cfc9"/><stop offset=".28" stop-color="#c9c3bd"/><stop offset=".37" stop-color="#c6c0b9"/></linearGradient></defs><path d="M183.68 68.1C179.8 74.7 172.2 89.27 169 95.38c-1.94 1.55-10.7 13.1-13.52 15.77l3.77 4.37c2.4-2.13 12.8-9.9 16-15.38 2-1.62 6.24-8.22 11.44-19.26 1.3-2.57-3-12.8-3-12.8z" fill="#d8a798"/><path d="M168.64 44.3c.8 11.85 5.1 27.1 3.5 30.95 3.53 1.94 17.67 1.9 18.73-.6s-1.94-20.05-6.75-25.1-15.5-5.26-15.5-5.26z" fill="#a0593a"/><path d="M188.33 61.3c-2.85 2.67-6.82 4.43-8.6 7.64s-7.13 15.92-7.13 15.92l12.84 6s3.07-20.28 2.35-21.35.54-8.2.54-8.2z" fill="#009345"/><g fill="#d8a798"><path d="M201.45 56.05c-2.52-.58-8-4.25-10.82-12.85L180.68 55c3.56 1.7 6.82 5.78 6.8 7.65a31.93 31.93 0 0 1-1.15 8.19c2.2 15.65 15.5-15.7 15.13-14.8z"/><path d="M191.1 44c1.58 7.53-3.25 14.83-6.73 16.07-2.15.76-6.84-.73-11.57-9.43-3.88-7.15-5.7-16 3.9-19.28 9.03-3.1 12.74 4.76 14.4 12.64z"/></g><path d="M174.32 39.85c-4.87.45-4.58 6-4.08 9.4-2.6-.84-2.86-11.95 1.8-16 4.88-4.26 8.2-3.82 9.13-1.65 1.16 2.87-6.84 8.24-6.84 8.24z" fill="#a0593a"/><path d="M177.74 30.1c1.28-1.16 9.2-2.2 13.38 1.43 3.38 2.37 7.28 6.72 12 15 7.4 13 11.74 15.8 13.06 15.9s-5.58 9.35-6.4 9S198.3 53 198 52.35c-.12-.23-1.9-3.4-4.13-7.3 0 4.35-1 5.85-1 5.85l-6.1-9-13.3-4.17z" fill="#ba784a"/><g fill="#97a5c1"><path d="M207.64 213.33c-1.2 10.5-1.95 13.06-7.33 15.7-2.48 1.2 1.35 4.86 1.35 4.86s8.18-1.66 11.57-3.52c4.55-2.48.43-4.24 1-14.67.26-4.7-6.6-2.36-6.6-2.36z"/><path d="M201 228.46c-.86 1.2-.66 2.42.92 2.76 2.3.5 8.77-1.4 13.7-5.67 2.2 8.95-1.08 8.33-6 7.77-1.06-.13-6 5.68-15.38 2-1.7-.67-1-4.07 3.1-5.1 2.92-.77 3.65-1.76 3.65-1.76z"/></g><path d="M203.3 102.9c1 3.73 8.63 13.68 7.9 22.24-.42 4.92 3.36 11.25 2.86 13.13-1.54 5.83-2.76 26.9-.9 40.34 0 0 9 11.74 2.6 41.06a70.83 70.83 0 0 1-11 2s-3.58-29.56-5.54-36.8c-3.8-14.05-7.05-46.56-8.08-51-3.1-13.2-1-17.12-2.13-20.62z" fill="#3b2b7e"/><g fill="#97a5c1"><path d="M230 217c.36 10.12-1.17 14.8-6.22 19.87-1.88 1.88 4.2 1.46 4.2 1.46s8.2-3.43 11.17-5.7c2.7-2.1 1.33-3-.22-6.66-.72-1.7-1-6.83-1.6-9.9-.84-4.44-7.33.93-7.33.93z"/><path d="M226.6 233.32c-.63 1.26-.47 3 1.06 3.2 4.16.62 8.7-3.78 12.33-8.28 5.42 6.74-1.3 9.06-2.9 8.6-.7-.2-2.32 6.6-12.2 5.13-4.16-.63-4.73-3.35-2.4-5.17s4.13-3.47 4.13-3.47z"/></g><path d="M213.65 103.78c1 3.73 10.92 12.3 11.28 17.78.33 4.93 2.67 15 2.17 16.92-1.54 5.82 4 22.5 5.88 36 .1.17 7.9 23.45 7.45 47.6a92.45 92.45 0 0 1-12.6 2.18s-7.6-35.63-12.6-41.25c-4.6-5.18-14.54-44-15.58-48.43-3.08-13.2-3.44-8.57-7-20z" fill="#3b2b7e"/><g fill="#04823a"><path d="M195.63 66.37c-6.43 6.42-9.34-.93-9.34-.93-1.66 4.67-3.67 16.1-4.2 18.5a9.57 9.57 0 0 0 1.63 7.8c1.23 1.54 1.23 3.8 1.5 6 2.1 17.5 4.62 45.14 4.62 45.14s24.25-1.2 36.62-9.67c1.42-1-18.54-37.14-16.3-59.46.86-8.67-1.25-6.24-9.73-15.08-.3 4.06-2.23 5.2-4.78 7.7z"/><path d="M213.27 67c.86 8.5 1.82 19.64 3.37 26.15 4.05 16.95 13.44 36.53 12.55 37.4-2.9 2.82-4.56 4.72-9.18 5.88l-11.94-40.65c-4.77-17.16-1.5-25-1.83-29.07-.26-3-4.37-4.13-6.9-5.57 1.9-1.84 1.56-2.17 1.7-4.25 8.46 5.46 11.73 5.2 12.23 10.1z"/></g><path d="M188.9 48.83c1.18 3.18 6.87 20.7 4.3 23 2.5-1.58 3.35-13 1.93-17.44 2.38 9 1.44 17.07-.7 18.43 3.8-3.2 6.28-11 6.28-11l2.54-4.17s-14.9-30.25-29.62-20.4l-1.2 3.2c5.13-1.74 14.16 2.14 16.47 8.38z" fill="#ba784a"/><path d="M184.56 43.84c-.18-.82 1.76-2 2.8-.93 1.54 1.53 3.47 5.6.9 6.42-1.65.5-3.7-5.5-3.7-5.5z" fill="#d8a798"/><g fill="#009345"><path d="M206.36 113.7c3.8-.07 11.43-3.2 11.43-3.2s5.52 8.87 4 10.48-14.15 6-14.37 2.85-1.06-10.14-1.06-10.14z"/><path d="M206.94 114.4c3.72-.07 10.34-3.16 10.34-3.16s5.4 8.16 3.86 9.64-12.95 5.35-13.17 2.5-1.03-8.98-1.03-8.98z"/></g><path d="M203.9 142.54c.88 7 7.7 32.26 9.27 36.05s3 3.8 4.2 7.9 11 36.75 10.46 37.7 5.07.15 6.24-1-7.9-32.88-10-37.28-5.57-6.74-7.62-12l-12.55-31.38z" fill="#2f256b"/><path d="M195.72 97c-8.1 7.13-9.75 8.2-9.75 8.2a32.92 32.92 0 0 0-3.23.64c-1 .24-2.27 1.17-3.88 1.54 0 0-.84.75.54.6 2.08-.24 2.37-.06 2.37-.06l-2.25 1.28c-.4.24-.8.55-1.83 1.13a5.26 5.26 0 0 1-1.9.55s-.92.3-.23.45a5.71 5.71 0 0 0 2.86-.35 2.18 2.18 0 0 1-1.3.43c-.6 0-1.55-.1-1.65.2-.17.5.38.48 1.8.55a4.78 4.78 0 0 0 1.88-.25 4.93 4.93 0 0 1-1.56.32c-.75 0-1.24 0-1.08.3s.77.4 1.74.5a8 8 0 0 0 2.86-.57s-4.44.62-3.06 1.1a16.92 16.92 0 0 0 5-.3c1.15-.35 5.25-3 6.53-3.78 2.07-1.2 16.66-11.53 16.66-11.53z" fill="#d8a798"/><path d="M182.64 110.87c0-.06.2-.07-.14-.64h0c.23.06.27-.33.27-.33l-2-1.47a21.87 21.87 0 0 0-2.54-.36c-2.86-.57-6.6 1.17-8.27 1.3l-2.95.18c-5.13-.8-17.13-1.77-21.05-1.18-4.78.72-18-2.74-25-3.26 0 0-3.23 9.9-.84 12.82s19.22.27 22.73 1.2c1.27.33 1.4 0 4-.33a219 219 0 0 0 22.12-4.39l.93-.08a5 5 0 0 0 3.93.43 12.47 12.47 0 0 1 3.7-.44c.62 0 1.07-1-.8-1.1a2.53 2.53 0 0 1-1.27-.45h.05a17.07 17.07 0 0 1 3.32-.63c1.67.1 2.9.45 2.95-.3 0-.24-1.44-.42-2.14-.9 0 0-.48-.1-1-.16a6.58 6.58 0 0 1 1.46.2c.55.2 2.3 1 2.62.52.15-.2-1.08-.76-2.26-1.37a6.06 6.06 0 0 0-1.91-.5 6.77 6.77 0 0 1 2 .39c.45.25 1.93 1.13 2.1.83z" fill="#cc9483"/><path d="M122.66 103.34l5.07.43c1.88.3 12.48 4.1 12.48 4.1s-1.6 15.1-3.2 14.8c-.56-.1-6.08 1-7.8-.08s-6.56-19.25-6.56-19.25z" fill="#cad5e5"/><path d="M144.68 201.12c0 21-11.76 34.3-41.35 35.48-29 1.14-42.77-14.52-42.77-35.48s18.83-38 42.06-38 42.06 17.02 42.06 38z" fill="#66bcf7"/><path d="M66 201c0 11 5.63 20.86 14.43 27.3a33 33 0 0 1-8.64-22.06c0-19.38 15.77-30.67 37.24-30.67 9.26 0 21.9 3.25 28.56 8.12-1.48-7.8-20.76-16.78-33-16.94C81 166.4 66 181.6 66 201z" fill="#8acdff"/><g fill="#d8a798"><path d="M151.1 118.08c.14-.24 1.23-2.7 1.88-3.2.44-.34.8-.3.7.45s-.4 3.26-1.23 3.3a1.82 1.82 0 0 1-1.35-.56z"/><path d="M152.88 118.16c.08.6 1.4 1 1.67.5s.94-3.88.28-4.45-.88-.44-1 .8a12 12 0 0 1-.95 3.16z"/><path d="M154.55 118.4c.2.5 1.4.25 1.53 0s.55-2.8.14-3.32-.75-.46-.86-.14-.8 3.46-.8 3.46z"/><path d="M156 118.26a1.3 1.3 0 0 0 1.5-.36 2.94 2.94 0 0 0 0-2.46c-.44-.44-.56-.22-.76.14a24.75 24.75 0 0 0-.74 2.68z"/></g><path d="M176.52 228.7c-.53-.33-9.77-6.8-10.37-11.32-1.65-12.45 1.43-31.14 4.47-38.1 1.74-4-14.56-15-15.14-1.72-5 7.77.46 42.25.46 42.25-1.08 3.86-2.34 8.08-.38 9.66s4.38 2 6 1 10.35 2.12 14.22 1.74 2.7-2.2.74-3.52z" fill="#cc9483"/><path d="M154.78 221.88c-1.3 2.4-2 7-1.1 8.3s5.76 1.78 7.1 1.42 2.68-1 4.88-.24 11.5 2.54 13.32.5-2.6-4.33-4.3-5.3-3.7 1.38-5.87 1.4-14.03-6.07-14.03-6.07z" fill="#66bcf7"/><path d="M126.68 154.3l7.9 6.48s33.2 5.54 35.7 12.33c1.6 4.32-.46 12.23-1.1 13.93s-2.06 25.63-2.06 25.63l-13.67.3a90 90 0 0 1-2.28-28.19c.08-1-18.8-3-20.5-3.7-11.84-5-23.72-13.4-23.92-14.52-.2-1.28 19.94-12.25 19.94-12.25z" fill="#d1203d"/><path d="M143.87 238.72c-.55-.35-8.6-7-9.25-11.74-1.77-13.1 1.9-32.27 5.1-39.58 1.82-4.2-11.62-17.48-12.18-3.48-5.27 8.2-3.35 43.58-3.35 43.58-1.14 4.08-3.2 8.9-1.12 10.57s4.6 2.14 6.3 1.08 6.2 3.46 10.26 3 6.33-2.15 4.26-3.43z" fill="#d8a798"/><path d="M122.9 230.33c-1.34 2.46-2 7.16-1.12 8.53s5 1.9 6.32 1.54 1.8.6 4.07 1.44 11.8 2.57 13.65.45-1.47-4.74-3.22-5.75-5 1.75-7.2 1.8-12.5-8-12.5-8z" fill="#8acdff"/><path d="M88.8 148.62c-4.6 5.87-8.6 22.57-3.13 27.33 11.1 9.68 37 10.25 37 10.25s-3.82 34.78-2 35c6.12.82 14.8 2.6 16.23-2.56 1.3-4.68 7.72-36.46 5.12-41.3-3-5.55-14.82-10.6-19.64-13.66-1.67-1.07-2.16-5.86-3.66-6.34-4.1-1.28-29.92-8.73-29.92-8.73z" fill="#d1203d"/><path d="M126 163.85c3.4 2 16 7.86 17.8 12.4 1.14 2.84.43 10.25-1.7 13.95-1.62 2.8-3.42 28.47-5.13 29.9s-4.7 1-4.7 1 3.3-26.4 5.27-30.9c2.34-5.33 2.42-12.53-1.28-15.1s-21.07-9.83-23.92-8.7a67 67 0 0 1 13.67-2.56z" fill="#aa0031"/><path d="M123.66 96.7c-1.5 2.8-1 3.83-.23 7.34a13.62 13.62 0 0 0 1.86 4.13c2.17 2.6-8.84 5.3-9.93 5-1.6-.46-11.33-11-11.33-11s1.56 1.8 6.44-14c.74-2.4 13.2 8.53 13.2 8.53z" fill="#cc9483"/><path d="M115.14 93.53h.08l8.24 4.6c-.13.44-.75 3.1.28 11.78-1.9 1.56-11 5.64-13.5 4.87-2.1-.62-5.3-10.88-6.2-12.7 4.1-3.48 5.76-11.5 5.9-12z" fill="url(#A)"/><path d="M131.17 133.42c.34-2.73.88-4.64-.2-8.9-1.47-5.8-3.14-19.12-4.13-20.28s-4.1-2.48-3.72-1.07c1.14 4.34-.5 6.2-.5 6.2h0a3.18 3.18 0 0 1-3.17 1c-3-.75-3.94 0-14.4-11.7a136.08 136.08 0 0 0-12 9.85c-.72.67-4.4 10-4.54 22.32 0 2.17.22 11.17-8 32.1-1.32 3.37 22.28 3.6 22.28 3.6s18.7-.2 24-4v.1l4.7-3.5s-3.28-14.13-2.74-16.92c.87-4.5 2.05-6.1 2.4-8.83z" fill="#cad5e5"/><path d="M129.52 138.55c.9-4.55 1.82-4 2.17-6.72s1.2-3.2.1-7.44c-1.47-5.8-4.9-19.3-5.9-20.46s-3.26-2.27-2.9-.86c1.14 4.34-.5 6.2-.5 6.2h0a3.16 3.16 0 0 1-3.17 1c-2.75-.7-2.93.67-11.12-8.22l-.5.08c-2.7 2.28-8.3 5.6-7.46 6.22s9.68 14.78 10.3 16.84 3 8.47 1.8 11.57-4.55 6-3.5 9.5 2.9 16 1.65 18.3c-1.1 2 15.4-1.24 20.86-5.2-.08-10.9-2.36-18.12-1.84-20.83z" fill="#fff"/><path d="M161 132.94c-1-1.38-5.15-3.65-5.94-3.64-1.6 0-6.32-.12-8.52-.15-1.76-.07-18.68-6.8-24-7.63s-15.42-9.88-22.68-12.77c0 0-6.93 7.63-5.36 11.58s17.13 10.56 20.58 12.73c1.25.78 1.5.5 4.35 1 6.55 1.1 19 .93 24.43.57.93.27 2.33.8 2.9.9 3.75.63 5.34-.5 6.3-.17 2.56.86 4.5 1.6 4.83.93.17-.34-1.74-1.46-2.43-1.85.78.43 3.22 1.7 3.75 1s-4.15-2.4-4.15-2.4a7.94 7.94 0 0 1 2.8.91c2.64 1.66 2.58.33 2.58.33l-1.7-1.27-2.33-1.52a12.79 12.79 0 0 1 2.35 1.15c1.68 1.1 3.23 1.7 2.23.3z" fill="#d8a798"/><path d="M100.52 107a15.41 15.41 0 0 1 5.24 2.48 112.43 112.43 0 0 1 10.2 8.81c.83 1.1-8.7 15.5-10.07 15.77s-12-8.36-13.13-13.6-1.05-8.92.88-11.4 6.88-2.06 6.88-2.06zm5.55-4.92c1 1.44 11.26 11 15.5 9.4s3.72-6.7 2.58-9.5-.82.93-.82.93.82 5.78-2.38 6.5c-2.62.6-5.27-.1-8.78-3.6s-5.07-4.86-5.07-4.86z" fill="#cad5e5"/><path d="M130.63 91.12c-.42 3.35 1.7 7.32 3.1 7.2-2 2.7-7.5 5.26-11.3 2.34-.6-.46-2.2-23.1-2.66-23.64s4.36-4.43 5.68-3.8a6.79 6.79 0 0 1 3.67 4.26c.53 2.2 1.5 13.62 1.5 13.62z" fill="#e2e6ed"/><path d="M123.82 102.78c4.63-1.3 4.7-8.76 4.62-13.6s.4-8.18-2.44-12.52c-1.7-2.5-10.06-2.66-12.1-2.22-9.16 2-6.7 7.52-5.5 13.5-2.35-.77-1.72-.27-1 2.06.5 1.8.84 5.34 2.2 5.68a11.91 11.91 0 0 0 4.61 5.48 11 11 0 0 0 9.59 1.62z" fill="#d8a798"/><path d="M124.87 71.65c-1.78-1.77-4.4-2.35-8.2-1.74-9-1.17-12.07 3.08-12.5 4.7a17.69 17.69 0 0 0-4.7 6.46 16.1 16.1 0 0 0-.23 6h-.1c.1 2.2-.87 8 .22 9.22.3.32.78 2.4-1.87 2.88-.6.1 10.94 5.94 12.86 3.26a7.52 7.52 0 0 0 1.13-2.8h.05v-.22a19.65 19.65 0 0 0 0-5.93V90.9l2.55-9.24c.35-1 1.42 5.1 1 1.54 2.85-3 6.9-1.56 10.64-5.48a4.12 4.12 0 0 0-.51-5.8 3.79 3.79 0 0 0-.35-.28z" fill="#cbcbd3"/><g fill="#e2e6ed"><path d="M126 73.7c-.1 2.13-1.35 4.6-5.54 4.9s-8.46 4.38-7.88 4.7c-.2-.64 1.53-3.87 3.13-4.7-2.4.12-4.7 2.65-4.74 4.4-.8-2 2.2-8 5.68-8.6s7.83-1.23 8.62-1.53.73.8.73.8z"/><path d="M112.26 77.42a16.62 16.62 0 0 0-2.69 14.52c2.32 9.54-3.6 8.58-3.6 8.58s3.7-.45 2-5.85c-1.18-3.77-3.46-8.44-.57-12.58s4.87-4.67 4.87-4.67zm10.37-.42c-2.65.1-9.1 4-9.74 10.07s2.8 14.16-3.7 15.33c3-2.33 2.58-6.9 1.3-11.55s1.56-8.9 4.07-11.3 8.07-2.56 8.07-2.56z"/></g><path d="M214.6 71.65c.44 10-4.1 25.08-5 26.4s-14.6 8.68-19.86 10.65c-.57.22-2.1-4.17-2.1-4.17s11.6-10.73 12.63-11.32c2.2-4.83 3.63-18.93 5.24-21.12s9.08-.44 9.08-.44z" fill="#d8a798"/><path d="M209.28 63.67c2.88.33 3.34 5.46 3.95 8 1.43 5.94-.9 15.22-.9 15.22l-11.92-.44s.52-15 1.9-18c2.88-6.3 7-4.78 7-4.78z" fill="#009345"/><path d="M214 66.74c2.05 3.62 2.93 20.73 2.93 20.73l-7.1-.73c1.1-3.4 2.75-15.16-2.3-23.3 3.9-.7 5.2 1.02 6.48 3.3z" fill="#037f38"/></svg>