<svg xmlns="http://www.w3.org/2000/svg" viewBox="0 0 300 300"><style><![CDATA[.R{fill:#cc9483}.S{fill:#d8a798}.T{fill:#97a5c1}.U{fill:#808cb2}.V{fill:#009345}.W{fill:#151823}]]></style><path d="M223.87 107.22c-3.53 5.48-5.6 14.83-5.6 14.83l3.68 4.26s10.72-8.52 12.2-17.92c.32-2.1 1.86-3.72.1-5.68 0 0-11.85-21.83-13-22.23s-10 9.2-9.2 11 11.82 15.74 11.82 15.74z" class="S"/><path d="M171.8 247.22c.27-2.6 1.3-4.3.15-17.8-.15-1.64 11.73-2.2 11.73-2.2-.52 6.62-3.4 12.47 3.9 18.56 1.68 1.4 5.2 2.3 7 4.44.27.32 1.84 5.4-4 6.2s-6.42-.2-11.16-3.08c-.3-.18-1.54-.8-1.54-.8s-6.7.45-6.1-5.33z" class="T"/><path d="M151.62 232.33l-11.17-1.55s-.15 1.1-1 5.08c-1.6 7.38-4.5 10.08-6.88 12-1.82 1.47-2.9 2.92-2.9 4.84l.45 3.2a5.63 5.63 0 0 0 3.45 1.72c4.5.6 9.72-1.1 10.85-2.77.5-.73 3.77-2 5.27-3 0 0 1.82-4.27.5-8s1.42-11.5 1.42-11.5z" class="U"/><path d="M191.36 110.7c0 1.2 2.16 5.78 2.18 6.9.37 12.44 0 17.3.05 20.56 0 3.57-.93 50.32-3.52 59.26-2 7.07-.53 33.9-1.3 40.2a18.63 18.63 0 0 1-1.82 5.9s-7.74-4.05-16.38 2.4c0 0-2.22-1.44-2.33-6.7-.52-22.12 1.16-30.8 3.08-45.36.7-5.3-.9-37.76-.93-43.13 0-4-6.13 32.78-9.58 45.3l-5.06 38c-1.36 10.38-4.27 13.4-4.27 13.4s-10.2-6.3-16.27-2.7c-.22-3.58-1.8-3.16-1-9.63 1-8.05 3.94-29 5.83-41.37 2.32-15.33 5-38 5.87-54.07s5.54-23.84 7.3-27.06 38.14-1.9 38.14-1.9z" fill="#3b2b7e"/><path d="M185.7 123c.57 9.45 4 56.42.28 67.34s-2.57 12.7-2.57 13.9 1.43 25.7 0 28.64-11.47 5.9-8.6 5.9 10.6-2.07 9.74-1.18-11.47 3-10 3.55 10.6.88 12.32.6 2.87-15.07 2.58-27.18.87-13 2-24.8 3.73-54 2.3-65.86-8.05-.9-8.05-.9z" fill="#2f256b"/><path d="M130 251c.43 3.88 6.35 3 8.92 2.66s4.87-3 7.74-3.32 5-1.8 3.52-6.4c-.65-2.08-9-5.26-11.26-2.9s-2.44 3.54-4.73 5.3A22.32 22.32 0 0 0 130 251z" class="T"/><path d="M171.65 248.27a5.52 5.52 0 0 0 4.58 2.52 31.07 31.07 0 0 1 8.41 2.7c1.72.9 9.28 1.07 10.43-1a6.43 6.43 0 0 1-1.29 3.16s-5.8 2.16-10.43.06c-3.46-1.58-5.45-3-7.2-2.66s-3.64-.5-4.07-1.54a11.77 11.77 0 0 1-.43-3.24z" class="U"/><path d="M218.92 74.12c2.26 1.73 2.66 1.83 5.48 7.86a131.25 131.25 0 0 0 7.1 13.29c1 1.5-14.18 7.6-14.68 6.72-.3-.54-8.82-8.6-8.86-11.42s10.96-16.45 10.96-16.45z" class="V"/><g class="R"><path d="M210.86 73.08c-.52 3.1-11.9 11.5-14.6 9.76-1.46-.94-10.26-21.6-10.26-21.6s7.64-1.32 9.3-3.2c3-3.43 7.6-7.12 8.76-9.6s6.94 24.06 6.8 24.62z"/><path d="M208.83 70.26c-14 7.08-16.93 12-19.18 10.43-1.88-1.33 0-17.92-.25-20.08 5.1 1.17 12.64-11.08 14.08-16.52 0 0 6.26 24.44 5.35 26.17z"/></g><path d="M191.16 110.54c1.8-4.5 11.1-11.67 12.54-13.32s13.2-12.06 13.2-12.06 3.88-9.74 3-10.36c-2.48-1.8-5.7-7.3-6.27-6-1.1 2.52-6.85 9.5-14.3 10.77-1.38-.5-7.93-21-7.93-21-4.32.7-11.46 1.18-16.55 2.74-1.86.58-6.86 5.24-11.4 17.58-.76 2-5.55 12.4-7.6 16.8-2.54 5.5-10.1 24.44-15.7 36.87-.08.17 8.24 7.3 17.7 11.12 14.43 5.8 36.2 5.8 36.28 5.56 3.97-10.06-4.02-36.14-3-38.7z" class="V"/><path d="M200.27 80.7c-.56-.22-6-12.24-8.7-18.12-5.3-.14-10.53 1.58-10.2 2.94a24.81 24.81 0 0 1-.78 16.65c-2.55 6.84-6.1 7.88-7 11.55-1 4.2-3.14 9.4-8.62 21.93-2.92 6.67-10.77 27.12-10.77 27.12s16.88 8.18 36.33 10.4c1.1-3.14 2.66-8.8 4.2-12.74 3.28-9.3 5.12-29.4 5.78-31a25.85 25.85 0 0 1 5.09-8.22c7.44-7.83 14.63-24.36 13.12-25.46-1.22-.88-1.17-1.1-5.38-5-1.64 2.48-8.9 8.6-13.07 9.96z" fill="#04823a"/><g class="V"><path d="M164.47 113.94a73.75 73.75 0 0 0 10.19 3.17c1.47.3-3 15.25-4.35 15.16-4.74-.3-12.48-3.3-12.24-6.05s6.4-12.28 6.4-12.28z"/><path d="M163.48 113.9a82.11 82.11 0 0 0 10.62 3.42c1.52.36-2.7 14.1-4.36 14.2-4 .2-12.4-4.17-12.06-5.36.75-2.56 5.8-12.25 5.8-12.25z"/></g><path d="M191.07 58.36c-.6 3.27 6.6 23.57 8.2 23.77s15.47-8.93 15.3-10.46-.93-.66-.93-.66-12.65 9.34-13.27 8.4c-4.8-7.24-7.84-21-7.84-21z" fill="#059941"/><path d="M239.52 197.9c-.4.9-1.17 1.4-1.7 1.17l-79.35-36.13c-.53-.24-.64-1.15-.24-2.05h0c.4-.9 1.17-1.4 1.7-1.16l79.35 36.12c.53.24.64 1.16.23 2.05z" class="T"/><path d="M241.84 253.24a2.38 2.38 0 0 1-2.37 2.37h0a2.37 2.37 0 0 1-2.37-2.37v-81.8a2.37 2.37 0 0 1 2.37-2.37h0a2.38 2.38 0 0 1 2.37 2.37z" class="U"/><path d="M257.57 212.77c-.4.9-1.23 1.38-1.83 1.1l-90.32-41.12c-.6-.28-.77-1.22-.36-2.12h0c.4-.88 1.22-1.38 1.83-1.1l90.32 41.12c.6.28.77 1.22.36 2.1z" class="T"/><path d="M258.73,259.86a2.65,2.65,0,0,1-2.65,2.65h0a2.65,2.65,0,0,1-2.66-2.65h0V178.62a2.66,2.66,0,0,1,2.66-2.65h0a2.65,2.65,0,0,1,2.65,2.65Z" class="U"/><path d="M67.45 197.9c.4.9 1.17 1.4 1.7 1.17l79.35-36.13c.53-.24.64-1.15.23-2.05h0c-.4-.9-1.17-1.4-1.7-1.16L67.7 195.85c-.54.25-.65 1.16-.24 2.05z" class="T"/><path d="M65.14 253.24a2.36 2.36 0 0 0 2.36 2.37h0a2.37 2.37 0 0 0 2.37-2.37v-81.8a2.37 2.37 0 0 0-2.37-2.37h0a2.35 2.35 0 0 0-2.36 2.37z" class="U"/><path d="M49.4 212.77c.4.9 1.23 1.38 1.84 1.1l90.3-41.12c.6-.28.78-1.22.38-2.12h0c-.4-.88-1.24-1.38-1.84-1.1l-90.32 41.12c-.6.28-.77 1.22-.37 2.1z" class="T"/><path d="M48.24,259.86a2.65,2.65,0,0,0,2.65,2.65h0a2.66,2.66,0,0,0,2.66-2.65h0V178.62A2.66,2.66,0,0,0,50.89,176h0a2.65,2.65,0,0,0-2.65,2.65Z" class="U"/><path d="M272.63 167.4c2 3.12 3.44 8.06-1.3 8.06l-118.5.23c-4.76 0-3.53-13.15-3.53-13.15 2.28-2.73 3.38-7 7.44-7l105.3.53c4 0 7.3 6.24 9.1 9z" fill="#893170"/><path d="M274.63 173.4c0 3.18-3 5.76-6.63 5.76H155.87c-3.66 0-6.63-2.58-6.63-5.76h0c0-3.18 3-5.76 6.63-5.76H268c3.66 0 6.63 2.58 6.63 5.76z" fill="#66124c"/><path d="M147.68 175.47l-118.5.23c-4.76 0-4.6-4-2-7.15l1.92-2.3c2.3-2.73 7.46-9.82 11.5-9.82h101.9c4 0 6.8.62 8.58 3.36.01 0 1.34 15.7-3.42 15.7z" fill="#893170"/><path d="M151 173.4c0 3.18-3 5.76-6.62 5.76H32.24c-3.66 0-6.62-2.58-6.62-5.76h0c0-3.18 3-5.76 6.62-5.76h112.14c3.62 0 6.62 2.58 6.62 5.76z" fill="#66124c"/><path d="M233.8 153.6c4.6-1.56 14.27-7.95 17-4.68s14.46 12.2 10.35 13.5-31.38 3.05-33.35-.27 6-8.55 6-8.55z" fill="#d3dcea"/><path d="M248.15 153.14c2.23 2 8.9 6.6 9.94 5.4s2.46.18 3.25.25 0-.2 2.24 1.2c.82.5.7-1.64 2.1-1.1s1.5 1.58 2.17 2.6c.18-.76.24-3.88-.95-5.33s-3.56-3.46-6.07-3.5-12.7.46-12.7.46z" fill="#a0593a"/><g class="R"><path d="M56.8 153.9a1.45 1.45 0 0 0 .5-.8c.06-.54-.73-.16-1-.06a.22.22 0 0 0 0-.08c.34-.2 1.53-.27 1.08-.94-.15-.23-.52-.2-.83-.1a1.18 1.18 0 0 0 .75-.68c.13-.6-.1-.38-.53-.48h-.4l.08-.1c1.3-1.15-.05-2.1-1.2-2-1.68.16-.9.88-2.83.8-.7 0-1.62 1.37-2.38 1.8-1.35.75-2.76 1.06-3.06 2.37C46.42 155.7 58.6 156 58.6 156a20 20 0 0 1-1.8-2.11zm159.48 6.44c-.07-3.18-1.86-4.3-4.1-4.8-5.08-.6-7.37.53-10.58.63l-22.46.37c-1.43 0-3.34.14-5.47.34-7.68 1.1-18.78 4.1-21 4.1l-.24-.14c-3.48-1.3-4.8-.7-6.07-1.26a13.82 13.82 0 0 0-4-1c-.63-.14-.54.4-.54.4a13.92 13.92 0 0 1 3.84 1.71s-5.5-2.5-6-1.6c-.06.13 3.5 1.63 3.75 1.86-.85-.4-4.64-2-4.77-1.42-.2.9 5.1 3 5.1 3a25.55 25.55 0 0 1-4.8-2.16.36.36 0 0 0-.5 0 .39.39 0 0 0-.09.23c.13.68 2.92 2.92 5.68 4.13a4.84 4.84 0 0 0 1.19.19 75.54 75.54 0 0 0 8.09.49 139 139 0 0 0 25.19-1.2s27.06 2.46 32.1 1.86c9.18-1.1 5.38-2.9 5.56-5.3v-.07a1.64 1.64 0 0 0 .12-.37z"/><path d="M233.57 137.25c-6.37 4.1-9.1 4.5-13.82 2.4 0 0-2.44-13.33-8.75-14-4.76-.54-35.5 9.37-39.44 9.25s-11.13-5.6-16.8-5.5a83.66 83.66 0 0 0-12.43 1.37l3.55 32s3.88 2.48 25.1-2.43c2.8-.65 44.2 9.15 46.05 3.23 1.1-3.46 3.34-10.77 5.3-11 2.66-.58 5.44.35 10.95 2.42 4.54 1.7.28-17.73.28-17.73z"/></g><g fill="#a0593a"><path d="M256.54 155.05c-10.34 2.07-24.35 3.46-26.9.22-1.73-2.2 1-16.26.5-16.15-.86.18 6.2-7.88 12.75-7.1s13.66 23.03 13.66 23.03z"/><path d="M267.57 151.34c1.92.56 2.15 2.92 2.46 3.68a7 7 0 0 1 .09-.92c.32-1.2.87-4.2-1-4.4s-1.48-3.73-3.44-4.5-.46-2.32-2.2-2c-1.42.22-1-3.94-3.06-4.13-4.72-.4-2.2-1.85-5-4-2.2-1.72-9.47-4.88-15.32-2.53 0 0 7.07 8.2 8 10.44 4.12 7.1-5.28 10-2.7 9.83 2.8-.18 9.38 4.42 10.7 4.54s3.28-2.86 7-.73c1.32.74-.37-1.43 2-1.27 2.72.2 1.94.55 3 2.13 0-.2-.1-2-.12-2.3.47.68 1 1.7.13 4.14-.44 1.23 1.83-2.1 1.4-3.73-.52-2-.27-3-2-3.76s-1.83-3.8-2.65-4.27c-.1-.05 1.48 3.43 2.73 3.77z"/></g><g fill="#ba784a"><path d="M266.53 145.5c-2-.77-1.15-2.1-2.9-1.8-1.4.22-.33-4.17-2.4-4.36-4.7-.4-2.18-1.84-4.95-4-2.2-1.7-9.5-5.1-15.34-2.73 0 0-1.18-.06-.9.24 5.67-1.5 13.64 1.7 15.72 3.3 2.77 2.16.26 3.6 5 4 2 .18 1 4.58 2.38 4.36 1.75-.28.94 1 2.9 1.8s-.34 2.74 1.5 2.93c.94.1 1.45.42 2.14 1.7a4.93 4.93 0 0 1 .05 3.7c1.62-1.58 1.3-5.62-.57-5.82s-.7-2.57-2.66-3.33zm-3.83 7.27c-2.86-2.33-4.1 0-5.17-.38s-3.9-3.12-5.74-2.14c-1.3.7-3-4-4.57-5.8l-.42.14c2.16 2.75 4 8.73 5.65 7.67s4.2 1.6 5.15 1.86 2.3-2.42 4.72-.3c.85.74 1.7 3.33 3.3 2.55 1.13-.56 1.87 2.5 2.38 3.82.3-.53-.73-4.52-2.13-4.6-.07.01-2.16-2-3.18-2.8zm3.87-1.04c-1.23-.4 1.4-2.6-3-2.68-2.92-.06-2.5-1.6-3.68-2.55s-2.3-3.32-4.24-3.77-3.22.87-5-.45-3.3-2.54-3.6-4c-.15-.7-.86-6.2-12.6-1.15-.4-.07-.44.15-.8.1 0 0 7.2-2.7 11.6.6 1.22.92 4 5.5 5.8 6.73s3-.14 5 .22 3.16 2.7 4.4 3.58.83 2.7 3.72 2.23.6 1 1.84 1.33c1.62.45 3.18 2.86 2.3 4.53 0-.5 1-1.68 0-3.45-.64-.72-.46-.86-1.75-1.28z"/><path d="M231.7 139.38c1.28-3.25 8-7 13-5.95s4.57 1.32 6.1 2.95 1.7.7 3 1.67 1.66 1.9 2.44 2.3 3.28.5 4 1.7-.32 2 1.1 2.93.94-.5 2.35 1.13 1.5 2.54 2.8 3.5.66 1.6 1 2.2-.43.45-1.3-.9-1.48-3.47-3-4.17a17.44 17.44 0 0 1-2.74-1.27c-.5-.4 1.5-1.4-1.1-2.8s-1.6.22-3.9-1.43-1.42-1-3.1-2.07-.65-.4-2.83-2.32-.75-1.6-4-2.23a12.94 12.94 0 0 0-13.72 4.74z"/></g><path d="M159.5 161.88c-21.95 6.45-52.6-3-57.9-2.7-12.2 3.94-35.66.72-40.9-.07-4.9-.73-8.1.05-12 .63-2.14.33-4.65-7.2.56-8s7.6 1.8 11.16.74 36.83-4.93 40.55-5 42.16-4 48.28-2.23 10.24 16.64 10.24 16.64z" class="R"/><path d="M53.88 153.32l7.44-.55c1.93-.28 23.43-4.27 27.56-4.14s1.1 1.52 1.1 1.52l-28.24 3.72c-1.93.55-7.86-.55-7.86-.55z" class="S"/><g class="R"><path d="M155.85 129.34c-22.52-4-49.34 9.6-54.62 9.93-12.56-2.6-35.53 3.17-40.65 4.52a37.46 37.46 0 0 1-12 1.54c-2.17-.08-3.87 6.83 1.4 7s7.35-2.62 11-2 37.15.88 40.85.5 42.34-.64 48.23-3.06 5.8-18.42 5.8-18.42z"/><path d="M56.77 146.26a1.58 1.58 0 0 0 .47-.82c0-.54-.74-.14-1.05 0a.35.35 0 0 1 0-.08c.33-.2 1.5-.3 1-1-.16-.23-.53-.18-.84-.08.3-.15.66-.38.72-.7.12-.6-.1-.38-.54-.47h-.4l.08-.1c1.26-1.2-.13-2.1-1.28-1.93-1.67.22-.87.9-2.8.9-.7 0-1.72 2.16-2.47 2.62-1.3.8-2.87 1.85-3.1 3.17-.38 2.07 12.1.5 12.1.5a21 21 0 0 1-1.88-2.02z"/></g><path d="M101.78 139.27c-12.56-2.6-35.53 3.17-40.65 4.52-4.8 1.28-7.43 1.83-11.38 1.68-.7 0-2.44.52-2.82 1.58a57.13 57.13 0 0 0 11.22-1.17c4.4-.94 31.83-6.34 43.4-4.13 10.76-1.68 37.6-10.17 55.54-7 .64-3.27-2.5-4.75-2.5-4.75-22.53-4-47.55 8.94-52.83 9.27z" class="S"/><path d="M118.78 133.2c3.87-2.58 21.17-7.6 32.4-5.5 11.57 2.16 10.2 3.45 10.2 3.45l.27 31.83s-12.2 2.75-22.5 2-18.4-1.75-18.4-1.75-2.17-9.64.13-14.2c4.78-.37 5.8-1 5.8-1l-6.2.68s-2.75-14.78-1.66-15.5z" class="W"/><path d="M219.52 135.32c-3.3 1.47-12.55 1.2-21.78-6-2.34-1.8-21.2 4.44-24.1 3.3a10.69 10.69 0 0 0-5.93-.27s-2.48 21.35.1 29.67c.85 2.74 7.72-1.3 14-.18a124.81 124.81 0 0 0 17 1.24c1.46 0 10.33-7.86 20.53-5.38a25.08 25.08 0 0 1 1.24-2.62s-23.56 1.2-23.23-9.1 19.9-8.9 22.46-7.44l-.27-3.24z" fill="#2a4fc6"/><path d="M179.07 78.7c0 11.15-1.42 29.1-1.42 29.1s8.32 19.1 9.8 21.37c1.3 2-4.16 4.54-4.16 4.54s-13.57-14-15.72-21.2c-.16-.54-1.16-.36-1.57-3.43-1.37-10.18-2.5-28.17.47-30.75 3.36-2.94 12.6.36 12.6.36z" class="S"/><g class="R"><path d="M152.14 152.2c1-.33 4.9-1.4 5.4-1.88s6.22-7.55 5.22-8.6-1.52-.36-3-.78c-1 .7-3.34 1.2-4.28 2.25-1.58 1.73-2.12 3.14-2.73 3.46s-.4 1 .64.45a25.06 25.06 0 0 1 3.66-2.18l-2.35 4.22-3.47 1.82c-.47.22-3.5.57-3.6 1.22s4.5.02 4.5.02z"/><path d="M153.12 150.88c-1.38 0-5 1-4.34.08s5.15-1.38 5.5-1.75-1.17 1.67-1.17 1.67z"/><path d="M156 147.6c-1.5.48-3.76.93-4 1.38s2.8-.2 3.32-.44c0 0-4.38.67-4.9 1.27s0 .5.8.33l4.3-1c.7-.3.5-1.54.5-1.54zm57.65-23.13c-4.84-2.74-29.76-6.66-33.55-7.4s-3.7.83-3.7.83-8.5 6.1-15.94 21.54a37.55 37.55 0 0 1-1.93 3.86c-2.7 2 .67 3.17 2.85 1.47 9.64-7.53 16-18 20.65-17.25 5.3.88 20.22 4.43 26.2 1.8a11.65 11.65 0 0 0 5.44-4.87z"/></g><path d="M187.18 129.74c1.43-.7 3.1 0 4.3.3 1.4.28 1.84.14 2.12.35.47.36 0 1-1.63 1-1.3 0-1.7.63-1.7.63a6.27 6.27 0 0 0 1.69 1.9 5.1 5.1 0 0 0 2.33.5c.65 0 2.44-.37 2.47.14 0 .7-1.4 1.1-2.54 1.13a12.77 12.77 0 0 1-2.82-.46 11.3 11.3 0 0 0 2.61 1.16c.57 0 3.36.48 3.2 1.1-.23.9-2.8.14-3.66.14l-3.3-.7a29.36 29.36 0 0 0 3.36.81c1.6.28 2.78-.17 2.8.64 0 .48-2.6.86-3.8.65a19.21 19.21 0 0 1-2.7-.73s4.06.22 4.45.78-2.73.63-3.95.4c-1.53-.3-3.25-.14-3.82-.74a26 26 0 0 1-4-5.62c-1.42-3.55 4.56-3.36 4.56-3.36zm31-8.04c-1.76.36-4.17-.57-5.52.42-1.92 1.4-4.95 1.85-4.5 2.27 1 .85 1.8.13 2.37 0a8.34 8.34 0 0 0 1.69-.48 12.06 12.06 0 0 0-1.67 1.15c-3 2.46-4.18 5.48-3.33 5.48l3.3-3.7.47.1s-3.85 3.55-3.65 4.2 6-3.66 6-3.66l-4.33 3.6c-.74.73-.4 1.2.43 1 1.3-.27 4.72-3.66 5.1-3-.22.17-2.2 2-2.5 2.25-1 .88-1.62 1.06-1.27 1.4s4.52-2 5.75-3c.68-.9 4.2.6 6.28-3.6 2.38-5.64-.36-7.9-4.6-4.42z" class="S"/><path d="M179 60.32A12.33 12.33 0 0 0 166.39 68c-3.62 10.28-4.5 21.85-5 26 3.7-1.8 16.77.5 17.82 1 2.35-12.53 3.8-19.4 2.54-24.28L179 60.32z" class="V"/><path d="M220.32 59.32c-4.1 6.62-7.88 12.57-11.92 11a13.5 13.5 0 0 1-5-3.58 17.66 17.66 0 0 1-3.05-14.73c2-7.53 8.4-11.9 15.24-8.9 7.46 3.33 8.2 10.6 4.73 16.2z" class="R"/><path d="M220.36 48c-1 1.62-8-1.4-10.43-1.28s-5.57 3.75-6 4.32-.45-1.8-2.2-.92-1.66 4.93-.93 5.56-3.6 6.9-3.6 6.9a27.82 27.82 0 0 1 1.5-16c2.42-5.9 7.48-9 12.62-9.1 2.63 0 6.78.16 9.62 3.3 4.38 4.86-.58 7.2-.58 7.2z" class="W"/><path d="M225.24 50.82l-4.8 9.87c-1.48 2.97-7 10-9.27 10s-2.28-.2-2.28-.2 2.12-1.08 7.24-12.1c.57-1.22 1.42-1.8 1.84-2.8 3-7.2 2.18-10.1 2.18-10.1z" class="S"/><path d="M217.1 56.18c-.88 5.47-.88 6.54-1.42 7.1s-1.3-.44-3.2-.12c-.64.1 4.63-6.97 4.63-6.97z" class="R"/><path d="M219.24 48.4c4.08 1.26 4 6.33 2.93 8.82L221 59.76a9.17 9.17 0 0 0 2.53-1.64c.56-.75 2.72-3.72 2.9-6.73.15-2.4-.17-9.56-5.5-10.6-1.1-.2-1.68 7.6-1.68 7.6zM210.12 68c1.2.72 4.9.14 5.75-.9s-2.57 4.8-3.33 5.62-5.84 3.94-6 3.35 3.58-8.06 3.58-8.06z" fill="#282a35"/><path d="M199.8 56.6a77.2 77.2 0 0 0-2.16 7.92c-.3 1.28 3.67 7.4 4.7 9s4.18 2.47 4.18 2.47l4.3-7.73a21.74 21.74 0 0 1-2.63-2.71c-.7-1-4.5-4.15-5.1-6.92s1.1-6 1-6.94-2.3 1.06-2.18 2.07-2.1 2.84-2.1 2.84z" class="W"/><path d="M213.68 63.45c1.6.9 2.43 1.87 2.2 3.32a7.35 7.35 0 0 1-.71 2.29 2.08 2.08 0 0 0-.76-2.12 7.13 7.13 0 0 1-1.65-1.9z" fill="#282a35"/><path d="M213.68,63.45a5.89,5.89,0,0,0-4.08-.5c-1.17.43-2.75,3.08-2.75,3.08s2.12-1.64,3.42-1.24a12.52,12.52,0,0,0,2.72.49Z" class="W"/></svg>