<svg xmlns="http://www.w3.org/2000/svg" xmlns:xlink="http://www.w3.org/1999/xlink" viewBox="0 0 166.14 255.27"><style><![CDATA[.AF{fill:#fcceb5}.AG{fill:#fad3be}.AH{fill:#35312d}.AI{fill:#8daffc}.AJ{fill:#d1d1d1}.AK{fill:#e0e0e0}.AL{fill:#50413b}.AM{fill:#ffd6bf}.AN{fill:#dedede}.AO{fill:#4d4d4d}.AP{fill:#a8a8a8}.AQ{fill:#c7c7c7}.AR{fill:#659fd1}.AS{fill:#4a2727}.AT{fill:#3d2c25}.AU{fill:#524b45}.AV{fill:#b0b9bf}.AW{fill:#bfc7cc}.AX{fill:#383838}.AY{fill:#949494}.AZ{fill:#c4c4c4}.Aa{fill:#61312e}]]></style><defs><linearGradient id="A" x1="-330.959" y1="167.764" x2="-327.74" y2="167.764" gradientUnits="userSpaceOnUse"><stop offset=".16" stop-color="#3d3d3d"/><stop offset=".16" stop-color="#606060"/><stop offset=".56" stop-color="#606060"/><stop offset=".56" stop-color="#6d6d6d"/><stop offset=".87" stop-color="#6d6d6d"/><stop offset=".87" stop-color="#5e5e5e"/></linearGradient><linearGradient id="B" x1="-331.456" y1="170.946" x2="-327.138" y2="170.946" gradientUnits="userSpaceOnUse"><stop offset=".16" stop-color="#4c4c4c"/><stop offset=".16" stop-color="#686868"/><stop offset=".56" stop-color="#686868"/><stop offset=".56" stop-color="#737373"/><stop offset=".87" stop-color="#737373"/><stop offset=".87" stop-color="#676767"/></linearGradient><linearGradient id="C" x1="-303.25" y1="152.823" x2="-300.118" y2="152.823" xlink:href="#A"/><linearGradient id="D" x1="-303.67" y1="156.035" x2="-299.39" y2="156.035" xlink:href="#B"/><linearGradient id="E" x1="-1205.641" y1="239.562" x2="-1201.36" y2="239.562" xlink:href="#B"/></defs><path d="M11.65 213.2s.2-1-1.7-1-1.7.72-1.7 1v2.37a1.9 1.9 0 0 0 1.5.93 2.29 2.29 0 0 0 1.89-.74zm29.42-8.5l2.43.95a3 3 0 0 1 .17 2.27c-.13.53-.42 1.8-3.3 3.65s-3.5 2-8.63 1.33a47.56 47.56 0 0 1-5.14-1.82 15.26 15.26 0 0 0-3.35-.64 6.17 6.17 0 0 1-5.32-1.92c-.7-.7.76-7.86.76-7.86s10.66-2.28 10.7-1.7c.13 1.73 11.24 7.46 11.7 5.75z" class="AH"/><path d="M43.7 206.84c-.13.53-.42 1.8-3.3 3.64s-3.5 2-8.63 1.34a34.7 34.7 0 0 1-5.14-2.38c0 0-2.2-.1-3.35-.07a10.27 10.27 0 0 1-2-.07h-.07a6.05 6.05 0 0 1-3.24-1.84c-.7-.68.66-7.4.75-7.84h0l1.68-.28 9-1.43a1.86 1.86 0 0 1 .41.33h0a25.39 25.39 0 0 0 5.44 4.19 25.47 25.47 0 0 0 6 1.93l2.43.7s.4.3.02 1.77z" class="AF"/><path d="M34.07 201.7s-3.74 1.35-5.1 4a34 34 0 0 0-2 4.74l5.9 2.63s.93-5.32 3-7l3.06-2.3z" class="AH"/><path d="M50.82 115.98a26.91 26.91 0 0 1-.91 3.85c-.13.27-2 .56-2.17.54a2.76 2.76 0 0 1-.47-.2l-.53-.26-1.67-.85c.14.1-.37-.2-.88-.48a5.22 5.22 0 0 0-.75-.37c-.28-.05-.54-.64-.52-.8s.5-1 .86-1.07a4 4 0 0 0 .83-.34 12.08 12.08 0 0 1-.81-5.82c.08-.48-3.55-16.7-3.55-16.7s-1.7-8-2.07-12.82c-.17-2.06-.1-3.55.44-3.62 1.8-.26 5.6 2.16 5.6 2.16s3.54 6.45 3.32 8.1 1.43 20.88 1.35 21.78 2 6 1.94 6.9z" class="AF"/><g class="AG"><path d="M48.7 114.08a16.41 16.41 0 0 1 .56 2.3c0 .58-.25 2.77-.25 2.77l-.8.4a23 23 0 0 1-.93-2.84c.07-.2 1.4-2.63 1.4-2.63z"/><path d="M47.27 120.17l-.15.15-.37-.4a3.6 3.6 0 0 1-.62-.83l-.1-3.46-.7-.9-.56 3v.46l-.52.36a4.4 4.4 0 0 0-.76-.36c-.28-.06-.54-.65-.52-.82s.5-1 .86-1.07a3.54 3.54 0 0 0 .83-.34 12.07 12.07 0 0 1-.8-5.82c.07-.48-3.56-16.7-3.56-16.7s-1.7-8-2.07-12.82c1.57-2.52 3.52-4.26 4.7.3l-.5 11.7 2.16 11.63c.24.85.35 5.08.57 6.48s1.72 3.55 2.14 3.6.35 4.9.37 5.2-.22.46-.4.64z"/></g><path d="M46.83 78.8s-.4 1.8-3.2 2.7a8.65 8.65 0 0 1-1.24.31c-.87.16-1.63-.78-2.3-2.33h0c-2.27-5.4-3.22-18.2-2.82-17.9a15.73 15.73 0 0 1 5.07 6.51c1.5 4.03 4.47 10.7 4.47 10.7z" class="AI"/><path d="M43.64 81.52a8.86 8.86 0 0 1-1.23.31c-.88.16-1.64-.78-2.3-2.33h0c-1.07-4-2.3-9.24-1.53-9.77l3.9 2.24z" class="AJ"/><path d="M52.44 190.4s.1-1-1.78-.87-1.6.87-1.6 1.1l.16 2.37a1.89 1.89 0 0 0 1.57.8 2.27 2.27 0 0 0 1.82-.9z" class="AH"/><g class="AK"><path d="M46.77 147.84l2.62 42.44.1.13a1.56 1.56 0 0 0 2.2.19 1.47 1.47 0 0 0 .29-.32h0l-2.86-42.65c-.78.13-1.56.17-2.36.2z"/><path d="M47.8 151.8l-1-2c-.3-.6-7.6-15-8.64-19.9s-1.75-41.25-1.8-43.18v-.23l.1-.2a8.84 8.84 0 0 1 5-4.53c2.8-1 6-.4 9.68 1.63l.5.28v.58c0 .5 1.92 40.3 2.58 45.45.7 5.46-5.3 19.44-5.55 20zm-9.35-64.85c.4 16.4.95 38.84 1.74 42.55s5.37 13.13 7.45 17.34c1.93-4.83 5-13.37 4.53-16.85-.64-5-2.3-39.18-2.56-45-2.88-1.5-5.4-1.9-7.47-1.2a6.79 6.79 0 0 0-3.69 3.2z"/><path d="M52.26 116.02l-14.15.32-.07 2.66 14.47.5z"/></g><path d="M50.07 116.07s-.72-.8-1.28-.84-8.56.94-8.7.92-.76 1-.8 2.9.3 1.84 1 2.1 8.55-.26 8.66-.28a2.83 2.83 0 0 0 1-1.47 1.41 1.41 0 0 1-1.33-1.49 1 1 0 0 1 0-.24 1.78 1.78 0 0 1 1.45-1.61z" fill="#eaab37"/><path d="M44.46 78.1a4.45 4.45 0 0 0 3.12-.8c1.35-1.06 4.94-.1 5.94 3.32s-1.88 5.63-5.3 6.52-10.87 1.32-11.84.42-2.65-9.75 8.08-9.46z" class="AL"/><path d="M49.07 114.14l-.28 3.14a21.12 21.12 0 0 1-.38 2.86.74.74 0 0 1-1-.09c-.4-.32-.43-1.63-.47-1.87s0-2.37 0-2.37a9.86 9.86 0 0 1-1.34-1.69 15.26 15.26 0 0 1-.19-3.44c0-.5 1.46-1.78 2.4-.8a6.21 6.21 0 0 1 1.27 4.25z" class="AM"/><g class="AQ"><path d="M40.15 197.82a.9.9 0 0 0-.52.72 5.44 5.44 0 0 0 1 2.49c.35.43 2.26.78 4 1s3.45-.9 4.23-.8 2.46.9 3.94 1.13 5.67-1.68 5.67-1.68l4.4-2.4a6.57 6.57 0 0 1 .94-.65l-.27-1.6s-.14-.22-.88-.36-8.8 1.43-8.8 1.43z"/><path d="M62.9 196.78l.9.86s.54.88-1.3 2a15.32 15.32 0 0 1-5.13 2.22c-.88 0-4.1.48-4.1.48a32.92 32.92 0 0 1 3.09-3.27c.68-.4 6.52-2.3 6.52-2.3z"/></g><path d="M63 195.94a2 2 0 0 1-.52 1c-.4.43-5.64 3.2-8.53 3.3s-6.57-1-8.53-.8a14.58 14.58 0 0 1-4.31-.5 8.53 8.53 0 0 1-1.21-.39 13.76 13.76 0 0 1-.95-4 4.68 4.68 0 0 1 .16-1.67l.4-.16.56-.23.8-.16 6.88-1.4 2.8.47 2.44.42 6.18 2a19.53 19.53 0 0 1 3.82 2.13z" fill="#fff"/><path d="M49.38 193.63a9.24 9.24 0 0 1-2.55.51h-2.58a16.38 16.38 0 0 1-4.06-.52 2 2 0 0 1-.41-.14c-.67-.3-.73-.74-.8-1.4l-.08-1.8V188l8.26.56s1.26 2.4 2 2.57a4.14 4.14 0 0 1 1.47.5c.4.35.16 1-.17 1.37a2.62 2.62 0 0 1-1.09.64z" class="AQ"/><path d="M50.52 192.34a4.34 4.34 0 0 1-3.2 1 41.48 41.48 0 0 1-6.3-.3l-.67-.1a2.57 2.57 0 0 1-.86-.29 1.8 1.8 0 0 1-.55-.55 5.75 5.75 0 0 1-1.08-2.82c-.94-5.1-1.94-10.18-3.06-15.24 0-.12 0-.23-.07-.35a46.09 46.09 0 0 1-1.13-12.88c0 0 1-.48 2.33-1.1 3.6-1.65 10.14-4.34 11-2.52a9.87 9.87 0 0 1 .54 3.14c.4 3.6.6 7.22.8 10.84.23 3.83 1.78 18.16 2.26 20.17 0 .14 0 .2.08.23a.38.38 0 0 1 .19.16c.14.25-.1.48-.3.62z" fill="#fff"/><path d="M46.93 157.23s-.15-1-1.68-1.1-12.58 1.14-11.64 4.73c2.24 1.3 5.52 1.16 7.76 1.16 3.38 0 5.9-1.57 5.56-4.8z" class="AQ"/><path d="M41.8 161.26s-5.62.07-7.82-.74c-1.37-.5-1.74-2.7-2.2-4-1-2.87-1.6-6.13-3.06-8.82-1.17-2.14-4.2-8.14-4.7-12.07a48.46 48.46 0 0 1-.31-7c.1-3.12.63-6.08 2.1-7.13 2.67-1.9 13.5-.6 13.5-.6l4.16 10a22.25 22.25 0 0 1 1.37 5.85 101.33 101.33 0 0 1 1.39 12.9 41 41 0 0 0 .32 5.2c.33 2 .8 3.52-1 4.88a7.82 7.82 0 0 1-3.75 1.52z" fill="#fff"/><path d="M41.07 198.96a7.12 7.12 0 0 1-1.21-.39 13.76 13.76 0 0 1-.95-4 4.68 4.68 0 0 1 .16-1.67l.4-.16a1.92 1.92 0 0 1-.55-.55 5.88 5.88 0 0 1-1.08-2.82q-1.4-7.63-3.06-15.24c0-.12 0-.23-.07-.35a45.75 45.75 0 0 1-1.12-12.88c-1.6-2.62-3.8-11.2-4.88-13.2-1.13-2.18-4.18-8.18-4.63-12.08a48.47 48.47 0 0 1-.33-7 61.04 61.04 0 0 1 4.69 2.11L30 134.2s-.42 3.57-.05 4.52 4.58 15.3 6 21.1a11.36 11.36 0 0 1 .24 1.16c.07.47.13 1 .2 1.47.54 4.38.8 9.07 1.8 14.65l2.7 15.28c.08.27.12.53.18.77-.66-.07-.1 2.88.03 5.82z" class="AN"/><path d="M32.34 166.04c0 1.9-2.48 32.12-2.48 32.12h0c-.27.38-2.57 3.4-4.68 3.47a14.34 14.34 0 0 1-4.07-.68h0c-1.17-.32-2-.65-2-.65s-.1-.23-.3-.74h0c-.18-.48-.4-1.22-.68-2.23-.06-.27-.13-.53-.2-.8a15.83 15.83 0 0 1-.27-1.3 42.82 42.82 0 0 1-.41-2.34 71.96 71.96 0 0 1-.53-4.44c0-.57-.1-1.15-.12-1.73-.6-9.55 1.42-18.72 1.67-20.92s-.68-3.62-.8-4.7-8.86-21.26-9.58-26.14a25.8 25.8 0 0 1 .43-9.35 4.64 4.64 0 0 1 1.66-2.08c4-3 12.93-3.56 14.3-3.3 1.64.32 8.62 4.32 8.62 4.32s1.1 8.45 1.15 10.5-1.9 4.2-2.25 5.13.54 23.96.54 25.85z" class="AF"/><path d="M21.2 209.28a6.05 6.05 0 0 1-3.24-1.84c-.7-.68.66-7.4.75-7.84h0c-.18-.5-.4-1.23-.68-2.24l-.2-.8-.27-1.3-.4-2.34-.53-4.43c0-.58-.1-1.16-.12-1.73-.6-9.55 1.42-18.73 1.67-20.92s-.68-3.62-.8-4.7S8.5 139.88 7.8 135a25.8 25.8 0 0 1 .43-9.35 4.56 4.56 0 0 1 1.66-2.07c1.44.43 2.4.8 2.4.8s0 14.83 1 17.3 8.13 21.25 7.66 26.87-2.38 11-2 13.93c.33 2.38-.34 11.22 1.43 16.82a12.34 12.34 0 0 0 .66 1.69h0c-.3 0-.76 2.28-.82 2.5a17.48 17.48 0 0 0-.43 1.73 16.34 16.34 0 0 0 .33 2.61 1.73 1.73 0 0 0 .45 1.17 1.83 1.83 0 0 0 .64.29z" class="AG"/><path d="M49.38 148.5s-12.1 9.13-14 10-6.62.74-12.56 1h-2.26a40.66 40.66 0 0 1-5.82-.76 23.68 23.68 0 0 1-5.72-1.63c-.18-.27-3.5-21.33-3.36-36.4a61.4 61.4 0 0 1 1.87-15.44 10.39 10.39 0 0 0 .14-3v-.42c0-.9-.12-1.9-.2-2.93-.63-6.28-2.22-14.13-2.15-15.6v-.58a28.24 28.24 0 0 1 2-8.08 54 54 0 0 1 7.34-9.74 16.71 16.71 0 0 1 3.92-2.57 10.44 10.44 0 0 1 4.42-1.31c1.8.16 11.72-.3 14.3.57 2.1 1.37 4.85 12.9 4.85 12.9 1.18 4.4-.53 13.88-.63 14.92s-1.86 19.1-1 21.08c7.16 17.27 8.88 38 8.88 38z" class="AR"/><path d="M13.66 119.1c-.16 3-.56 5.3.67 8a23.14 23.14 0 0 1 2 10.82c-.1 1.68-.3 3.6.9 4.8.3.3.66.52 1 .8 1.1 1 1.24 2.66 1.6 4.12.53 2.13 1.5 9.84 2.5 11.8h-1.78a40.84 40.84 0 0 1-5.82-.76 23.73 23.73 0 0 1-5.71-1.63c-.18-.27-3.5-21.33-3.36-36.4 2.58-4.42 1.06-10.6 1.87-15.44a16.3 16.3 0 0 0 .14-3v-.43c3.25-5.1 8.5-11.72 8.5-11.72s-.1 1.45.26 1.28a34.09 34.09 0 0 0 2.64-2.86l-2.5 6.88.3 2.18 2.65-1.43-3.92 4.1 3.4 1.83s-3.63 1.63-4.18 2.76-1.18 5.75-1.34 7.55.6 1 4.4 2.4 8.8 3.63 9.07 3.76a19.3 19.3 0 0 1-4.86.1c-1.74-.23-8.37-.3-8.4.47z" class="AJ"/><g class="AK"><path d="M9.7 170.32l-1.07 42.5.1.14a1.56 1.56 0 0 0 2.18.37 1.64 1.64 0 0 0 .31-.28h0l.85-42.72c-.8.03-1.57 0-2.37-.02z"/><path d="M10.37 174.34l-.83-2.06c-.25-.63-6.26-15.6-6.88-20.56s2.2-50.37 2.33-52.3v-.22l.1-.2a8.88 8.88 0 0 1 5.38-4.08c2.86-.7 6.06.13 9.5 2.46l.48.33v.58c0 .5-2 49.44-1.76 54.62.2 5.5-7 18.9-7.26 19.48zM7.07 99.8c-1 16.37-2.8 47.88-2.33 51.65s4.2 13.55 5.92 17.92c2.34-4.64 6.1-12.9 6-16.4-.2-5 1.5-48.34 1.73-54.2-2.73-1.74-5.2-2.37-7.33-1.85a6.77 6.77 0 0 0-4 2.87z"/><path d="M17.93 139.1l-14.13-.9-.3 2.64 14.36 1.74z"/></g><path d="M15.75 138.95s-.6-1-1.16-1.08-5.56-1.4-5.7-1.43-3.93 2.68-4.14 4.54.13 1.86.84 2.2 8.54.48 8.65.47a2.9 2.9 0 0 0 1.17-1.37 1.41 1.41 0 0 1-1.2-1.59 2 2 0 0 1 0-.24 1.79 1.79 0 0 1 1.54-1.5z" fill="#eaab37"/><path d="M15.66 90.63a4.47 4.47 0 0 0 3.18-.52c1.43-1 3.1 1.23 3.8 4.72s-2.37 5.45-5.85 6-10.94.38-11.84-.6.05-10.82 10.72-9.6z" class="AL"/><path d="M11.6 142.44l-1.06-.8a8.95 8.95 0 0 1 1.06.81z" fill="#613b37"/><path d="M13.92 144.8h0c-.5.05-.7-.36-1.1-.74a14.35 14.35 0 0 1-1.18-1.6h0l-1.1-.82.07 1.6a.78.78 0 0 0-.54.39c-.14.35-.5.47-1 .63a5.32 5.32 0 0 1-1.86-.16 6.85 6.85 0 0 0-1.59-.92c-.37 0-1.42-1.75-1.42-1.75a2.25 2.25 0 0 1-1-1.34 32.14 32.14 0 0 1 .34-3.79c.1-1.2-.28-5.14-1.57-11.78a121.53 121.53 0 0 1-1.92-16.8c0-1.93 2.2-11.7 2.2-11.7a5.36 5.36 0 0 1 7.1-2.7l.23.1s3.75 2.52 3.87 3.58-4.2 10.86-4.2 10.86l.1 2.57v1.87c-.16 5-.9 16.77-1 17.6a24 24 0 0 0 1.15 4.73c.08.25 1.24.95 1.55 1.36s1.62 1.43 1.68 2.65 1.93 3 1.93 3v1.85c0 .77-.2 1.24-.72 1.3z" class="AF"/><path d="M9.7 142.3l.84-.7.07 1.6a.75.75 0 0 0-.54.42c-.13.35-.5.47-1 .63a5.57 5.57 0 0 1-1.86-.16 7 7 0 0 0-1.59-.93c-.37 0-1.4-1.74-1.4-1.74a2.2 2.2 0 0 1-1-1.34 30.13 30.13 0 0 1 .33-3.79c.1-1.2-.28-5.14-1.57-11.8a121.22 121.22 0 0 1-1.92-16.79c0-1.93 2.2-11.7 2.2-11.7a5.36 5.36 0 0 1 7.1-2.7l.24.1s3.74 2.52 3.86 3.58-4.2 10.86-4.2 10.86l.1 2.57v1.87a33.11 33.11 0 0 0-.84-3.93c-.54-1.57.45-1.54.63-2.2s2.93-6.2 2.93-6.2a9.46 9.46 0 0 1-2.33-.63c-.92-.45-7.46-1-7.46-1s-2.2 10.75-1.38 14.8 3.1 18.2 3.2 20.4a51.07 51.07 0 0 1-.19 5.67l1.5 3.15 1.8 1.38 2.37-.26z" class="AG"/><path d="M17.07 83.28l-2 14.52c0 1.1-1.72 1.83-2.34 1.83-.3 0-2.8-.4-5.32-.8l-4.5-.73-1.16-.2c-.88-.22-.72-2.1-.6-2.77s4-17.13 6.2-20.56a2.58 2.58 0 0 1 1.93-1.16c3.18-.42 8.26 3.57 7.78 9.87z" class="AI"/><path d="M18.57 62.33l-2.55 2.57a23.29 23.29 0 0 0-5.71 6.55l-1 1.93c-1.47 2.94-2.26 5.1-2.8 5.57a14.36 14.36 0 0 0-1.19 3.68c-.8 3.26-1.44 6.56-1.9 9.88l-.5 5.58-1.16-.2c-.9-.22-.73-2.1-.6-2.77s4-17.13 6.2-20.56a54.82 54.82 0 0 1 7.34-9.73 16.93 16.93 0 0 1 3.87-2.49z" class="AJ"/><path d="M13.9 144.8c-.5 0-.7-.37-1.1-.74a15.46 15.46 0 0 1-1.18-1.61 14.85 14.85 0 0 1 2.27 2.35z" class="AG"/><path d="M29.46 57.84l1 6.62c0 1.05 2.6 12.88.92 13.67-.6.28-4.9-8.63-6-8.65a22.52 22.52 0 0 1-5.65-.85c-1.93-.64-4-2.14-4-3s1.37-1.8 1.33-3.75.78-2.33-2.07-8 .9-8.8 1.7-9.15 7 2.65 7.34 3.3z" class="AF"/><path d="M21.84 58.7S24 61.63 25.07 62a32.84 32.84 0 0 1 3.55 2 12.27 12.27 0 0 0 2.07.6 3.17 3.17 0 0 0 2.48-.51c.75-.63 1.24-2.94 1.24-2.94l-4.56-.4-4.63-2z" class="AG"/><path d="M26.97 38.8s2.58.82 3.35 2.82 2.23 4.9 2.17 6.15 2.23 4.32 2.2 4.58-.77 1.08-.77 1.08v7.17c0 .52-1.5 1.85-3.28 1.85s-6.8-2.28-7.77-2.73-3.9-5-4.3-5.24-3.93-2.74-3.67-5.1 5-7.26 5-7.26z" class="AF"/><path d="M28.22 40.63c-.15 0-4.15 2.3-4.15 2.3s-.78 3.57-1.4 4.18a8.7 8.7 0 0 0-1.61 3.71c.1.58.74 2.94.74 2.94l-1.38-.14s-.87-2.64-2.08-2.53-2 1.5-2 1.5l.17 4.66a28.77 28.77 0 0 1-5-5.94 15.54 15.54 0 0 1-2-9.53c.5-3.3 3.72-5.4 4.88-6.1s5.77-1.47 5.77-1.47l2.08-.45s-.2 1.13 0 1.2l1.53.4 1.75.83 4.2 1.73c.3.13-.23 2.53-.23 2.53z" class="AS"/><g class="AM"><path d="M19.07 52.32s-1.15-2-2.23-1.56a2.44 2.44 0 0 0-.87 3.13c.5.87 2.1 2.74 2.7 2.74s1.35.1 1.48-.53a18 18 0 0 0-1.08-3.78zm8.57-10.87a15.09 15.09 0 0 0-3.15 1.67 25.6 25.6 0 0 0-1 3.84c-.18.5-1.8 3.22-1.8 3.88s1.94 4 2.3 4.6 2.76.7 3.87.34 1.77-2.32 1.86-2.94-1.33-.3-1.48-.16-2.14.2-2.56-.6a3.31 3.31 0 0 1 .27-3c.6-1 4.45-1.87 4.57-2s-1.3-7.15-2.88-5.62z"/><path d="M29.45 45.73l1 .78 2.62 4.2a17.43 17.43 0 0 1 1 1.45c0 .22-.72.64-1.1.7s-.85.2-1.17 0 .07-.92.07-.92l.2-1.42-2-3.66z"/></g><path d="M154.93 150.4s.07-.9-1.7-.77-1.5.84-1.48 1.06l.2 2.22a1.79 1.79 0 0 0 1.49.72 2.1 2.1 0 0 0 1.69-.89z" class="AH"/><path d="M142.63 45.44l9.44 104.94.1.12a1.48 1.48 0 0 0 2.08.13 1.3 1.3 0 0 0 .26-.31h0l-9.67-105.1-2.2.22z" class="AK"/><path d="M145.52 46.4a3 3 0 0 0 .11-.52 4.6 4.6 0 0 1 .44-1.31.66.66 0 0 0 .09-.28.37.37 0 0 1 .42.24c.07.18 0 .42.05.57s.32.16.44.2c.56.2.74 1.4 1 1.9a17.86 17.86 0 0 1 1 2.32 9.55 9.55 0 0 0 .4 1.25c.4.84 1.2 1.37 1.08 2.35a9.82 9.82 0 0 0 .45 2.74 2.07 2.07 0 0 1 0 .61 1.9 1.9 0 0 1-.27.64 11.53 11.53 0 0 1-2.32 2.46 1.72 1.72 0 0 1-.66.4 1.34 1.34 0 0 1-1.28-.74 6.85 6.85 0 0 1-.92-3.11 23 23 0 0 1-.1-3 2.65 2.65 0 0 0 0-.69c-.07-.28-.18-.55-.26-.8l-.5-1.6a3.4 3.4 0 0 1-.18-.78 3.85 3.85 0 0 1 .57-1.61 10.59 10.59 0 0 0 .45-1.23z" class="AT"/><path d="M147.17 43.88l4.22 9.48a9.26 9.26 0 0 1 .51 1.16c.33 1.1-.5 2.43-1 3.36a5.24 5.24 0 0 1-1.13 1.55 1.31 1.31 0 0 1-1.24.29c.32-.12.24-.6.34-.92a1.79 1.79 0 0 1 .25-.42 10 10 0 0 0 1.29-3.28c.3-1.1-.62-2.44-1.06-3.43l-3.23-7.36z" class="AL"/><path d="M144.64 43.9l2.23 8.66c.16 1.53 3.2 15.53 3.2 16.6s1.78 5.1 2 6a3.53 3.53 0 0 1-.3 3c-.7 1.23-1 2.3-1.26 2.64s-.2.14-.43.48a2 2 0 0 1-1.33.78 9.42 9.42 0 0 1-1.59-.26l-.2-.35a1.53 1.53 0 0 1-.82.05c-.46-.1-.6.12-1.12-.8s-.9-4.8-.36-5.67a8.43 8.43 0 0 0 .87-2.81 10.16 10.16 0 0 0-.93-5.24c-1.05-1.8-6.56-18.76-5.6-19.86s5.65-3.2 5.65-3.2z" class="AF"/><path d="M147.2 77.32s-.63.67-.45 1.18.05 2.43.2 2.53a.75.75 0 0 0 .68-.09 6.61 6.61 0 0 0 .76-1.64 7.25 7.25 0 0 0-.33-1.45c-.07-.06-.57-.55-.86-.53z" class="AG"/><path d="M152.07 76.9l-4.74-.4-.72 1.4.5 1.2 4.77.67z" class="AK"/><path d="M152.07 76.9s1.13.1 1.14.86.08 1.9-1.35 2a1.51 1.51 0 0 1-.78-2 1.5 1.5 0 0 1 .99-.86z" fill="#f4f4f4"/><path d="M123.83 141.88a11 11 0 0 0-.94 2.34 10.49 10.49 0 0 0-.25 2.56c.06.6.4.7.4.7a11.56 11.56 0 0 0 4.85 1.29 17.92 17.92 0 0 1 6.25 1.31c1 .45 4.4 2.6 6.42 2.68s4.24-.5 5-1.5a3.48 3.48 0 0 0 .41-3c-.25-.64-22.15-6.4-22.15-6.4zm7.1 14.75s-.88.7-.94 1.24 0 2.16 0 2.32a7.87 7.87 0 0 0 3 2.2c1.27.35 6.4 5.23 6.65 5.44a16 16 0 0 0 7.46 1.87c3.66-.1 5.44-1.53 5.85-2.5a4.24 4.24 0 0 0 0-2.29 6.6 6.6 0 0 0-1.82-1.22l-20.2-7.07z" fill="#39312a"/><path d="M146 148.22a2.26 2.26 0 0 1-1.34 2.76c-1.94.8-3.93.68-7.12-.7s-4.52-2.66-6.3-2.88-2 .16-5-.52-2.9-2.28-2.9-2.28-.4-2.73-.12-3.25 1.42-3.7 1.42-3.7l8.78 3.3 9.17 4c.7.34 3.34 2.27 3.4 3.26z" class="AU"/><path d="M144.87 85.3a123.55 123.55 0 0 1-.65 17.31c-1 7.18-.62 12.07-1.3 13.5s-6.22 10.9-6.6 11.65-2 13-2 13a7.12 7.12 0 0 1-5-.15c-2.8-1.07-5.2-4.5-5.2-4.5l6.23-24.75s.53-18.42.15-14.54-.67-19.7 1-20.17 13.37 8.67 13.37 8.67z" class="AV"/><path d="M139.46 91.2l-.9 9.38c-.1.6-7.5 43.23-7.5 43.23s-2.88-3-3.15-4 .07-11.18.17-12.18.06-8.67.57-9.42 3-24.36 3.26-25.1-3.72-9.95 7.56-1.9z" class="AN"/><path d="M141.4 121.16a1.13 1.13 0 0 1-.06.31c-.43 1.18-.17 2.45-3.9 3.18a7.82 7.82 0 0 1-6.07-1 5.31 5.31 0 0 1-2.52-3.49l-1.94-5.92c-.94-2-9-17-10.16-20.74s-1.6-5.82-1.6-5.82a3.66 3.66 0 0 1 1.86-1.31c4.8-2.12 17.2-4.3 18.34-3.6 1.37.87 0 2.9.87 5s1.9 12.5 3.16 18.73c1.2 5.84 2.23 12.8 2.02 14.65z" class="AW"/><path d="M132.6 152a4.77 4.77 0 0 0-1.66 1.85 15.09 15.09 0 0 0-.72 4.47c0 .53 3.77 3.08 4.83 4s3.8 4.5 8.87 5.87 8.14-.57 8.6-2.14-2.4-4.33-3.55-4.8-6.8-6.38-7.25-6.52-1.86-2.32-2.85-2.36z" class="AU"/><path d="M131.68 149.7l-.47 4.86a16.71 16.71 0 0 0 4.85 3.75 11.13 11.13 0 0 0 5.82 1.35 3.52 3.52 0 0 0 2-1l-2.8-4.4c-.36-.6-1.14-3.8-1.3-4s-1.13-5.9-2.15-5.1-5.15 1.75-5.94 4.54z" fill="#fcc7aa"/><path d="M141 149.4c0 1-1.8 2.54-4.46 2.86a7.11 7.11 0 0 1-3.64-.64c-1.1-.5-1.9-1.14-1.93-1.53-.1-.74-3.1-16.9-2.94-20.83.1-2.46.52-6.42.8-9.08l.33-2.75c.2-.33.74-.4 1.5-.32 3.33.4 10.74 4.06 10.74 4.06l-.4 28.23z" class="AW"/><path d="M132.9 151.63c-1.1-.5-1.9-1.14-1.93-1.53-.1-.74-3.1-16.9-2.94-20.83.1-2.46.52-6.42.8-9.08-.72-2-1.34-4.6-1.94-5.92-.94-2.05-9-17-10.16-20.74s-1.6-5.83-1.6-5.83a3.66 3.66 0 0 1 1.86-1.31 49.88 49.88 0 0 0 5.26 14.24c3.9 7.1 7 12.72 8.4 16.45.2.53.38 1 .5 1.48a12.78 12.78 0 0 1 .18 5.08 56.77 56.77 0 0 0-.52 9.75c.23 5.15 1.33 13 2.06 18.24z" class="AN"/><path d="M145.8 86.47s-11.9 3.65-15.7 3-6.14-1.32-6.8-1.4c-.43 0-4 .54-6.45 1l-2.4.42s-1.83-4.82-1.75-5.65a30.18 30.18 0 0 0 .76-4.1 16 16 0 0 1-.12-5.17c.44-2.9-1.45-8.18-1.64-10-.1-1.07-1.24-9.14-2.07-15.86-.6-4.83-1-9-.8-9.27.53-.74 7.82-9.26 9.57-10.38s5.1-4 5.1-4c.53-1.4 10.42-2.6 11.65-1.9a16.77 16.77 0 0 1 5.27 5.45c1.85 2.93 5 14.25 4.7 17.24s-.05 19.76-.34 22.4 1 18.2 1 18.2z" class="AR"/><path d="M122.13 18.8l.3 2.8a17.19 17.19 0 0 1 0 4.24c-.32 1-3.2 3.1-3.2 3.32a38.27 38.27 0 0 0 10.55 5.45c4.2 1.08 5 0 5.76-1.25s-.46-2.86-.44-3.06a34.22 34.22 0 0 1 .25-4.41 12.4 12.4 0 0 0-.6-4.36c0 0-4.93-5.93-6.5-5.9s-5.8 2.1-6.12 3.16z" class="AF"/><path d="M127.47 22.63l1.16 2.56c.24.45 3.84 2.07 4.18 2.36s1.4 2.15 1.85 2.45a11.7 11.7 0 0 0 3.53.42c.9 0 1.74-.17 1.5-.42s-2.63-5.14-2.72-5.23-9.5-2.14-9.5-2.14z" class="AG"/><path d="M123 77.4a3.88 3.88 0 0 1-.58.28c.46-.26.65-.38.58-.28z" fill="#ffe8a2"/><path d="M130.07 86.38s-12.52-2.78-12.58-2.24l-.6 4.93-2.4.42s-1.83-4.82-1.75-5.65a30.18 30.18 0 0 0 .76-4.1 16 16 0 0 1-.12-5.17c.44-2.9-1.45-8.18-1.64-10-.1-1.07-1.24-9.14-2.07-15.86 4.4.48 9 4.58 9 4.58s0 4.22-1.17 6-1.08 4-1.35 6.76-1.73 6.57 1.64 4.08a19.32 19.32 0 0 0 4.7-5.13c-1.13 1.92-4.2 7.13-5 8.07-1 1.16-1.32 1.52-1.37 2s2.2 1.34 2.2 1.34l-1 3c-.12.25 3.66-1.1 5.14-1.73a71.58 71.58 0 0 0-3.11 1.92 6.76 6.76 0 0 0-1.67 2.58z" class="AJ"/><path d="M107.4 171.88s.17-.9-1.6-1-1.6.68-1.6.9V174a1.75 1.75 0 0 0 1.4.88 2.13 2.13 0 0 0 1.78-.69z" class="AH"/><g class="AK"><path d="M106.74 66.18l-2.1 105.47a1.47 1.47 0 0 0 2 .36 1.5 1.5 0 0 0 .29-.27h0l2-105.54c-.72.03-1.46.01-2.2-.02z"/><path d="M118.14 100.07l-11.44-2.52-.7 2.4 11.54 3.34z"/></g><path d="M109.75 67.56v-.78a1.18 1.18 0 0 1 .47-1 .34.34 0 0 1 .31 0c.2.1.14.38.26.56s.27.2.42.27c.53.27.58 1.47.77 2a17.44 17.44 0 0 1 .77 2.42 9.87 9.87 0 0 0 .27 1.29c.3.9 1 1.5.8 2.45a10 10 0 0 0 .15 2.78 1.73 1.73 0 0 1 0 .6 1.6 1.6 0 0 1-.34.61 11.31 11.31 0 0 1-2.58 2.19 1.53 1.53 0 0 1-.69.33c-.53.05-1-.4-1.2-.88a6.85 6.85 0 0 1-.56-3.19 23 23 0 0 1 .23-3 3.69 3.69 0 0 1 .25-1 5.12 5.12 0 0 1 .47-.82 9 9 0 0 0 1.24-3.17 1.08 1.08 0 0 0 0-.44c-.1-.43-.6-.6-1-.72a2.61 2.61 0 0 0-.05-.5z" class="AT"/><path d="M111.43 65.13l3.14 9.9a10 10 0 0 1 .39 1.21c.2 1.12-.77 2.36-1.38 3.22a5 5 0 0 1-1.29 1.42 1.29 1.29 0 0 1-1.26.16c.33-.1.3-.57.44-.88a1.37 1.37 0 0 1 .29-.39 10.28 10.28 0 0 0 1.65-3.15c.4-1.05-.35-2.5-.68-3.53l-2.4-7.67z" class="AL"/><path d="M135.25 3.73a5.43 5.43 0 0 1 3.32 3.9c.9 3.17 1.2 4.44 1 5.8s.92 3.66.67 6.48-.25 5.32-1 6.35-2.26 1.16-3 1.22a26.82 26.82 0 0 1-8.66-3.74c-2.1-1.7-2.87-6.17-3.34-6.76s-1.07-7-.9-7.76.55-4 2.5-4.6 9.4-.87 9.4-.87zm-20.4 94.6c-.17.53-2.26 4.75-2.65 5.6a5 5 0 0 1-2.06 1.88 1 1 0 0 1-1.36-.36.76.76 0 0 1-.11-.26c-.15-.52 1.06-2.5 1.06-2.5a1.44 1.44 0 0 1-.77-.07c-.46-.17-.56-.7-1.16-1a3.64 3.64 0 0 1-1.46-2.31l.53-5.17v-.62c.16-2.7-1.6-7.14-2.3-10.7s-2.14-13.3-2.07-14 1.6-9 2.32-11.62a43 43 0 0 1 2-5.49c1.3-1.27 10.1 1.23 10.1 1.23a37.24 37.24 0 0 1-1.27 5.89 14.17 14.17 0 0 1-.37 1c-1.14 2.84-3.77 7-4.1 7.8s.88 13.8 1.5 18 1.15 8.3 1.94 9.4a4.08 4.08 0 0 1 .22 3.31z" class="AF"/><path d="M136.74 6.63a12.94 12.94 0 0 1-4.25 1.51c-2.13.27-3.66.17-4.13.73a8.81 8.81 0 0 0-.93 2.83l-.44 2.38c-.04.38-.35 1.77-.35 1.77l-.12 1.26h-.92s-1.28-2.9-2.12-2.32.24 5 .24 5a7.47 7.47 0 0 0-.91 1.11 5.29 5.29 0 0 1-.44.77c0 0-3.9-5.44-4.2-10.3s.94-7.82 3.46-9.53 4.1-2.2 8.56-1.75 8.42 4.43 8.72 5.12a35 35 0 0 1 .39 5l-.8-1.76s-.6-4.26-1.77-1.83z" class="AS"/><path d="M126.2 19.47s-.28 1.5-1.26 1.4-1.73-1.4-2.17-1.9-1.65-2-1.12-3.44a1.47 1.47 0 0 1 1.84-1 1.34 1.34 0 0 1 .64.4 19.7 19.7 0 0 1 1.61 2.78 6.13 6.13 0 0 1 .46 1.75z" class="AM"/><g fill="#ffddcb"><path d="M136.95 12.53a34.67 34.67 0 0 0-3.76.86 16.61 16.61 0 0 0-2.54 1.5c-.36.23-.25 2 .07 2.33a15.05 15.05 0 0 0 3.49 1c.32 0-.45 1.94-.83 2.12a3 3 0 0 1-2.73.44c-1.25-.57-2.83-1.76-3.07-3.07a10.44 10.44 0 0 1 .2-3.39l.6-3.65a2 2 0 0 1 2-1.79 15.08 15.08 0 0 0 4.66-.73c.85-.4 1.64-.47 1.9 4.38z"/><path d="M136.65 11.5l.3 1a27.55 27.55 0 0 0 1.86 4.28 2.08 2.08 0 0 1 .59 1.19 9.47 9.47 0 0 0-1.48.3 2.56 2.56 0 0 1-1 .38.79.79 0 0 1-.49-.17 8.93 8.93 0 0 1 .2-1.26c.07-.1.37-1 .37-1l-1.18-4.77z"/></g><path d="M116.98 52.95a37.24 37.24 0 0 1-1.27 5.89l-3.87-2c-.18-.06-5.3-1.06-5.3-1.06l-1.73 6.86c.03.5-1.1 5.58-1.1 6.47a94.98 94.98 0 0 0 1 9.61c.8 5 2.86 12.5 2.83 13.13a14.19 14.19 0 0 1-.63 2.23v-.62c.17-2.7-1.6-7.14-2.3-10.7s-2.15-13.3-2.08-14 1.6-9 2.32-11.6a42.53 42.53 0 0 1 2-5.49c1.35-1.22 10.14 1.3 10.14 1.3z" class="AG"/><path d="M117.63 57.2a89.26 89.26 0 0 0 2.19-10.74c.3-3.52.2-8.7-4.48-10.3s-8 5.4-8.2 6.4-2 11.8-2 11.8 5 1.62 6.78 2 5.7.82 5.7.82z" class="AI"/><path d="M118.15 100.07s1.1.23 1 1-.22 2.32-1.65 2.24a1.83 1.83 0 0 1-.35-2.57 1.88 1.88 0 0 1 1-.67z" fill="#f4f4f4"/><path d="M101.38 63.84a10.94 10.94 0 0 0-2.13 3.58c-.4 1.66 4.22 14 4.22 14l2.27-5.65z" class="AT"/><path d="M102.47 63.53l4.2 13.2a4.75 4.75 0 0 0-2.08 1.51 4.39 4.39 0 0 0-.33 2.72l.25 1.44s-.9.07-1.38-2 2-4.5 2-4.5l-3.8-12.07z" class="AL"/><g transform="translate(-66.93 -22.37)"><path d="M134.74 165.87c.42-.72 1.08-1.1 1.5-.88l7.4 4.1-1.84 2.4-7.05-3.92c-.4-.23-.4-1 .01-1.72z" fill="url(#A)"/><path d="M142.72 172.94l-1.3-.76c-.6-.33-.58-1.44 0-2.47s1.55-1.6 2.13-1.26l1.3.76z" fill="url(#B)"/></g><path d="M75.77 150.55c-.6-.34-.57-1.44 0-2.47s1.55-1.6 2.13-1.26.57 1.45 0 2.48-1.55 1.6-2.13 1.25z" class="AX"/><path d="M162.07 236.44l-7.54-12.65 2.66-1.53a3.74 3.74 0 0 1 3.68.4 11.46 11.46 0 0 1 5.25 9 3.65 3.65 0 0 1-1.42 3.25h0l-.08.05h-.07z"/><path d="M155.88 224.63l4.07-2.35a6 6 0 0 1 .92.44 11.45 11.45 0 0 1 5.25 9 5.12 5.12 0 0 1-.23 1.6l-2.82 1.58a6.46 6.46 0 0 1-1.4-.61 9 9 0 0 1-1.55-1.13l-4-6.65a9 9 0 0 1-.24-1.88z" fill="#1f1f1f"/><path d="M153.07 227.07a11.48 11.48 0 0 0 5.25 9c2.9 1.67 5.25.35 5.25-2.94a11.53 11.53 0 0 0-5.25-9c-2.9-1.67-5.25-.35-5.25 2.94z" fill="#2a2a2a"/><path d="M153.28 227.2a11 11 0 0 0 5 8.64c2.78 1.6 5.05.34 5.05-2.83a11.07 11.07 0 0 0-5.05-8.64c-2.74-1.6-5-.34-5 2.83z" fill="#1d1d1d"/><path d="M154.4 227.84a8.6 8.6 0 0 0 3.92 6.71c2.16 1.24 3.92.26 3.92-2.2a8.6 8.6 0 0 0-3.92-6.71c-2.17-1.24-3.92-.26-3.92 2.2z" fill="#3b3b3b"/><path d="M154.67 228a8 8 0 0 0 3.65 6.25c2 1.16 3.66.25 3.66-2a8 8 0 0 0-3.66-6.26c-2-1.2-3.65-.28-3.65 2z" fill="#727272"/><path d="M158.38 225.97a8 8 0 0 1 3.6 6.23 3.8 3.8 0 0 1-.1.89l-2.66 1.54a3.71 3.71 0 0 1-.89-.39 8 8 0 0 1-3.65-6.13z" fill="#a9a9a9"/><path d="M160.37 227.83a8.4 8.4 0 0 1 1.48 3.21l-4.42 2.6a8.45 8.45 0 0 1-2.1-2.85z" fill="#e9eae7"/><path d="M155.36 228.12a6.89 6.89 0 0 0 3.15 5.39c1.73 1 3.14.2 3.14-1.76a6.9 6.9 0 0 0-3.14-5.39c-1.74-1-3.15-.2-3.15 1.76z" class="AO"/><path d="M156.36 228.07a5.43 5.43 0 0 0 2.49 4.27c1.37.8 2.5.17 2.5-1.4a5.46 5.46 0 0 0-2.49-4.26c-1.38-.8-2.5-.17-2.5 1.4z" class="AY"/><path d="M157.5 229.33a2.43 2.43 0 0 0 1.1 1.88c.6.35 1.1.07 1.1-.62a2.38 2.38 0 0 0-1.09-1.87c-.6-.35-1.1-.1-1.1.6z" class="AZ"/><path d="M157.83 229.75a1.32 1.32 0 0 0 .6 1c.33.2.6 0 .6-.34a1.27 1.27 0 0 0-.59-1c-.36-.18-.6-.03-.6.34z" class="AO"/><path d="M162.07 236.44l1.13-.66h.14a3.66 3.66 0 0 0 1.43-3.26 11.53 11.53 0 0 0-5.25-9 3.76 3.76 0 0 0-3.68-.4h0l.25-.15a3.76 3.76 0 0 1 3.69.41 11.46 11.46 0 0 1 5.24 9 3.62 3.62 0 0 1-1.42 3.26h0l-.08.05h-.07l-1.4.8z"/><path d="M161.8 228.63l-29 16.26-9.2-5.3v-1.6l38.17-11z" class="AY"/><path d="M161.8 227l-29 16.27-9.2-5.3 29-16.27z" class="AZ"/><path d="M134.84 180.44s1.1 1.9 1.8 2.18 1 0 .82-.68-1.27-2.08-1.32-2.32-.45-1.16-.7-1.92-.63-1.43-1.27-1.55-1.1.52-.92 1.4a9.34 9.34 0 0 0 1.59 2.9z" fill="#fff0d6"/><g transform="translate(-66.93 -22.37)"><path d="M164.28 150.94c.42-.72 1.08-1.1 1.5-.88l7.4 4.12-1.84 2.4-7-3.92c-.46-.23-.45-1-.04-1.72z" fill="url(#C)"/><path d="M172.26 158l-1.32-.76c-.58-.33-.57-1.44 0-2.47s1.54-1.6 2.13-1.25l1.3.76z" fill="url(#D)"/></g><path d="M105.3 135.63c-.6-.33-.58-1.44 0-2.47s1.55-1.6 2.13-1.25.57 1.44 0 2.47-1.55 1.58-2.13 1.25z" class="AX"/><path d="M156.7 227.14l1.93-.18-.48-5.22-6.3-28.66a20.77 20.77 0 0 0-9-13l-28.42-18.45-.8-18.75a11.25 11.25 0 0 0-5.06-8.91l-.7-.44a2 2 0 0 0-.56-.35.83.83 0 0 0-.9.41 1.18 1.18 0 0 0 0 1.31 4.42 4.42 0 0 0 1.09.68 9.33 9.33 0 0 1 4.19 7.38l.83 19.75 29.23 19a18.81 18.81 0 0 1 8.19 11.82l6.28 28.54z" fill="#cfcfcf"/><path d="M115.98 160.96a13 13 0 0 1 4.86 1.95c2.4 1.62 21 12.67 20.9 13.85a15.21 15.21 0 0 0-.12 2.13l-2 1.07s-.28.48-2.58-.43-21.53-14.2-22.13-14.9 1.08-3.67 1.08-3.67z" class="Aa"/><path d="M138.18 178c-2.18-.86-20.65-13.43-23-15.28a16.52 16.52 0 0 1 .82-1.76 13.14 13.14 0 0 1 4.86 2c2.3 1.53 19.2 11.57 20.77 13.6v.23a2.69 2.69 0 0 1-3.45 1.22z" fill="#764d4a"/><path d="M110.52 186.08v.2c.1 12.87 9.2 28.48 20.37 34.92l.12.07c3.86 2.2 7.46 3 10.53 2.64 5.84-.75 9.74-5.9 9.74-14.33 0-12.9-9.13-28.63-20.4-35.13-4.34-2.5-8.35-3.27-11.67-2.52-5.26 1.2-8.7 6.22-8.7 14.14zm2.64 3.3c0-4.8 1.55-8.3 4.1-10.15h0a7 7 0 0 1 1.89-1 7.15 7.15 0 0 1 2.69-1.5 2 2 0 0 1 .34-.12 9.37 9.37 0 0 1 2.05 0h0a15.29 15.29 0 0 1 6.62 2.23c9.17 5.3 16.62 18.1 16.62 28.64a15.59 15.59 0 0 1-1.27 6.57 8.51 8.51 0 0 1-4.74 4.57h0a7.59 7.59 0 0 1-3.13 1.63 14.19 14.19 0 0 1-8.57-2.23c-9.17-5.3-16.6-18.12-16.6-28.65z" fill="#454545"/><path d="M109.5 186.26c0 12.9 9.12 28.65 20.37 35.14 4.34 2.5 8.37 3.27 11.67 2.52 5.26-1.18 8.7-6.2 8.7-14.14 0-12.9-9.13-28.64-20.38-35.14-3.9-2.25-7.54-3.1-10.65-2.7-5.83.75-9.72 5.88-9.72 14.3zm20.26 31.78c-9.17-5.3-16.6-18.12-16.6-28.65 0-4.8 1.55-8.3 4.1-10.15h0a7.92 7.92 0 0 1 3.89-2.44c.23 0 .46-.06.7-.07a12.33 12.33 0 0 1 4.88.79 18.85 18.85 0 0 1 3.12 1.46c8.78 5.07 16 17 16.56 27.27a12.74 12.74 0 0 1 .06 1.38c0 4.83-1.57 8.34-4.16 10.2a9.66 9.66 0 0 1-.86.83h0a7.59 7.59 0 0 1-3.13 1.63 14.19 14.19 0 0 1-8.57-2.23z" fill="#585858"/><path d="M108.16 187.47c0 12.9 9.12 28.65 20.37 35.14s20.38 1.3 20.38-11.62-9.13-28.63-20.38-35.13-20.37-1.3-20.37 11.6zm30.17 32.8a14.19 14.19 0 0 1-8.57-2.23c-9.17-5.3-16.6-18.12-16.6-28.64 0-6.27 2.63-10.3 6.68-11.4a14 14 0 0 1 8.69 2.18c9.17 5.3 16.62 18.12 16.62 28.65 0 6.3-2.7 10.37-6.82 11.44z" fill="#292929"/><path d="M110.4 188.76c0 11.5 8.12 25.5 18.14 31.28a19.78 19.78 0 0 0 2.48 1.24c7.54 3.17 13.6.18 15.23-7.3a20 20 0 0 0 .43-4.29 26.84 26.84 0 0 0-.23-3.47c-1.4-10.7-8.88-22.6-17.9-27.8a27.64 27.64 0 0 0-1.78-.92 18.5 18.5 0 0 0-2.47-1h0c-7.25-2.2-12.8 1.6-13.74 9.74a22.71 22.71 0 0 0-.15 2.52zm19.37 29.28c-9.17-5.3-16.6-18.12-16.6-28.65 0-4.8 1.55-8.3 4.1-10.15h0a7 7 0 0 1 1.89-1 5.67 5.67 0 0 1 .66-.22 13.89 13.89 0 0 1 8.69 2.18c9.17 5.3 16.6 18.12 16.6 28.65 0 3.93-1 7-2.8 9a8.33 8.33 0 0 1-.86.82h0a7.61 7.61 0 0 1-3.13 1.64 14.19 14.19 0 0 1-8.57-2.23z" fill="#aeb9b9"/><path d="M111.92 189.63c0 10.53 7.43 23.36 16.6 28.65 3.67 2.12 7 2.7 9.8 2a14.11 14.11 0 0 1-8.57-2.22c-9.17-5.3-16.6-18.12-16.6-28.65 0-6.26 2.63-10.3 6.68-11.4-4.77.62-7.92 4.76-7.92 11.62z" fill="#edefef"/><path d="M126.8 179.27l1.5 19.86v.2l.06.13 10.16 20.63v.05l.38-.2h.07l-10.24-20.78v-.06l-.06-.77v-.64l-1.37-18.2z" class="AP"/><g fill="#ccc"><path d="M127.94 217.45a1.89 1.89 0 0 0-.49-.25l.85-18.16 14.1-3.85.13.48-13.76 3.75z"/><path d="M128.25 199.3l.06.06v.06l.1.1 14.38 17.6.38-.32-.1-.13-14.3-17.52.52-1.92 3.65-13.82a4.71 4.71 0 0 0-.42-.36l-4.26 16.06z"/></g><g class="AP"><path d="M120.07 209.96l8.37-11 16 3.48-.1.5-15.7-3.4-8.2 10.78a1.65 1.65 0 0 0-.36-.33z"/><path d="M116.23 179.63l12.5 19.44 4.7 20.95a2.33 2.33 0 0 0-.53-.07l-4.6-20.65-12.42-19.3a2.11 2.11 0 0 0 .35-.38z"/><path d="M113.07 194.63a2.15 2.15 0 0 1 .11.55l.7.2 14.66 4.1h.1l.06-.1.08-.17 6.9-13c-.1-.14-.24-.27-.36-.4l-6 11.45-.6 1.12-.13.26-.17.32h-.3l-14.37-4z"/></g><g fill="#ccc"><path d="M116.9 204.86a1.53 1.53 0 0 1 0 .3l.18.16.54-.28 10.76-5.48h.15l.15-.07.13-.05v-.18l-.2-.5-.1-.23-.3-.8-7.37-19.64h-.52l7.83 20.94.08.25-.36.18-10.47 5.18z"/><path d="M112.55 188.24l16 10.72 13.2-3.7.13.48-13.4 3.76-16-10.7a2.2 2.2 0 0 0 .09-.57z"/></g><path d="M134.3 202.57c0 3.66-2.6 5.14-5.78 3.3a12.75 12.75 0 0 1-5.78-10c0-3.67 2.6-5.14 5.78-3.3a12.74 12.74 0 0 1 5.78 10.01z" fill="#bede74"/><path d="M133.97 202.63c0 3.66-2.6 5.14-5.78 3.3a12.75 12.75 0 0 1-5.78-10c0-3.67 2.6-5.14 5.78-3.3a12.74 12.74 0 0 1 5.78 10z" fill="#e3f9b1"/><path d="M146.72 198.17s-.6 2.65-8 7.08-17.72 8-19 7.82-3.15 2-12.16-4.5-18.07-14.46-18.07-14.46l17.15-8.12c3.67-1.9 14.43-5.9 14.43-5.9s19.2 9 25.67 15.87c.12.15-.16 2.06-.02 2.2z" fill="#2e120e"/><path d="M146.72 195.96s-.6 2.65-8 7.08-17.72 8-19 7.82-3.15 2-12.16-4.5S89.5 191.9 89.5 191.9l17.15-8.12c3.67-1.9 14.43-5.9 14.43-5.9s19.62 11.2 25.65 18.08z" class="Aa"/><path d="M82.9 153.98s10.88-8.27 17.13-10.12l11.8-3.38 1.25 1.15.55 27-.5 15.77-21.3 12.28s-6.66-12.12-7.32-17.25-1.6-25.45-1.6-25.45z" fill="#4a322e"/><path d="M84.17 155.14s9.66-7.44 15.92-9.3 12.98-4.22 12.98-4.22l5 26.6 3.53 9.65-29.82 18.8s-5.4-11-6.05-16.1-1.56-25.45-1.56-25.45z" fill="#2e120e"/><path d="M129.58 254.92l-7.5-12.65 2.66-1.53a3.78 3.78 0 0 1 3.69.4 11.49 11.49 0 0 1 5.24 9 3.63 3.63 0 0 1-1.42 3.26h0l-.08.05h-.06z"/><path d="M123.4 243.06l4.07-2.34a6.52 6.52 0 0 1 .93.43 11.49 11.49 0 0 1 5.24 9 5.18 5.18 0 0 1-.23 1.61l-2.84 1.63a6 6 0 0 1-1.4-.61 9.45 9.45 0 0 1-1.55-1.13l-4-6.64a9.74 9.74 0 0 1-.22-1.95z" fill="#1f1f1f"/><path d="M120.6 245.55a11.53 11.53 0 0 0 5.25 9c2.9 1.67 5.25.35 5.25-2.94a11.5 11.5 0 0 0-5.25-9c-2.9-1.66-5.25-.35-5.25 2.94z" fill="#2a2a2a"/><path d="M120.8 245.63a11.07 11.07 0 0 0 5.05 8.64c2.8 1.6 5.05.34 5.05-2.83a11 11 0 0 0-5.05-8.64c-2.78-1.56-5.05-.3-5.05 2.83z" fill="#1d1d1d"/><path d="M121.93 246.32a8.59 8.59 0 0 0 3.92 6.71c2.16 1.25 3.92.26 3.92-2.2a8.57 8.57 0 0 0-3.92-6.7c-2.17-1.25-3.92-.27-3.92 2.2z" fill="#3b3b3b"/><path d="M122.2 246.47a8 8 0 0 0 3.65 6.26c2 1.16 3.65.24 3.65-2.05a8 8 0 0 0-3.65-6.25c-2.02-1.16-3.65-.25-3.65 2.04z" fill="#727272"/><path d="M125.9 244.46a8 8 0 0 1 3.6 6.22 3.8 3.8 0 0 1-.1.89l-2.66 1.54a4.11 4.11 0 0 1-.89-.38 8 8 0 0 1-3.65-6.14z" fill="#a9a9a9"/><path d="M127.9 246.32a8.42 8.42 0 0 1 1.47 3.2l-4.42 2.56a8.56 8.56 0 0 1-2.09-2.86z" fill="#e9eae7"/><path d="M122.88 246.63a6.89 6.89 0 0 0 3.15 5.39c1.74 1 3.14.2 3.14-1.76a6.88 6.88 0 0 0-3.14-5.39c-1.74-1.03-3.15-.24-3.15 1.76z" class="AO"/><path d="M123.88 246.56a5.46 5.46 0 0 0 2.49 4.26c1.38.8 2.5.17 2.5-1.4a5.43 5.43 0 0 0-2.49-4.27c-1.38-.8-2.5-.17-2.5 1.4z" class="AY"/><path d="M125.07 247.82a2.38 2.38 0 0 0 1.09 1.87c.6.35 1.1.08 1.1-.6a2.41 2.41 0 0 0-1.1-1.88c-.64-.34-1.1-.07-1.1.62z" class="AZ"/><path d="M125.36 248.24a1.27 1.27 0 0 0 .59 1c.33.2.6 0 .6-.33a1.29 1.29 0 0 0-.59-1c-.33-.2-.6-.05-.6.33z" class="AO"/><path d="M129.58 254.92l1.13-.66h.07l.08-.05a3.62 3.62 0 0 0 1.42-3.26 11.44 11.44 0 0 0-5.25-9 3.77 3.77 0 0 0-3.68-.41h0l.26-.15a3.76 3.76 0 0 1 3.68.4 11.53 11.53 0 0 1 5.25 9 3.63 3.63 0 0 1-1.43 3.25h0-.14l-1.4.8z"/><path d="M159.76 235.8c-.12-.54-1.27-3.55-2.95-4.13s-3.63-3.74-3.63-3.74l-2-5.8s-1.58-3.72-6.56-3.43h-.22a2.22 2.22 0 0 0-1.9.67 21.81 21.81 0 0 0-1.48 4.55c-.12.53-.54 2.17.74 3.05a13.55 13.55 0 0 1 5 4.8 25.81 25.81 0 0 0 4.55 6.15 8.4 8.4 0 0 0 5.91 1.34 3.88 3.88 0 0 0 2.54-3.47zm-30.32-7.88v.2a14.41 14.41 0 0 1-.61 2.16 4.76 4.76 0 0 0-.32 4 41.75 41.75 0 0 0 5.13 7.83c1.24 1.42 2.22 4.2 5 4.83a14.59 14.59 0 0 0 6.24-.07 3.23 3.23 0 0 0 2.48-2.75c.14-2-3.88-6.83-5.6-8.53s-3.84-7.32-4.1-8.08-5.38-2.53-6.88-1.58-1.35 1.98-1.35 1.98z" class="AU"/><path d="M156.43 198.9c-.8 4.75-4.4 16.2-4.52 17.74s-.5 6.12-1.57 7.26c-.72.77-4.5.35-6.64-.68-1-.5-1.7-1.14-1.43-1.86a40.17 40.17 0 0 0 2-7.06c.46-2.62 0-6.38 0-10.38s1.24-6.73 1-7.33-2.83-1.43-6.14-2.14a74.33 74.33 0 0 0-9.88-1.13c0 0-4.45-1.67-6.25-2.14a3.22 3.22 0 0 1-1.42-.76c-1.15-1-2-2.77-2.6-5.72-.73-4.07 2.05-9.88 10-9.52s24 6.73 26.53 10.14 1.7 8.83.9 13.58z" class="AV"/><path d="M139.3 209c-.73 5.48-1.73 18.8-1.73 18.8s-.46 3.28-3.17 3.3a6.86 6.86 0 0 1-3.8-1 2 2 0 0 1-1-1.4c-.07-1.16-2.26-8.67-3.2-12.9s1.12-8.2.26-8.76-18.42-5.95-21.64-7.28-3.75-4.1-3.46-4.06c-.06-.06-.2-.2-.4-.43-1.46-1.56-5.92-6.8-3.1-10 3.34-3.85 12.9-5.4 13.68-5.33s8.55 5.78 12.35 8.58 10.84 6.37 13.37 8.46 2.63 6.5 1.85 12z" class="AW"/><path d="M97.12 192.5a7.91 7.91 0 0 0 1.84 3.59c1.64 2 6.06 3.7 6.06 3.7s-2.74-2.23.4-6.6 8.5-6.4 9.65-6.76 5.27.42 6 .93a73.4 73.4 0 0 0 1.9 1.26l1.4 1 .65-.35s.56-6.4 1.64-8.6 2.8-5.43 2.8-5.43a11 11 0 0 0-2.74-2.06c-1.12-.43-12.83 3.4-12.83 3.4l-13 4.74z" class="AV"/><path d="M130.6 230.12a2 2 0 0 1-1-1.4c-.06-1.16-2.25-8.67-3.18-12.9s1.12-8.2.26-8.76-18.43-5.95-21.64-7.28-3.75-4.1-3.46-4.06c-.06-.06-.2-.2-.4-.43l.73-.3a117.56 117.56 0 0 0 12.18 4.52c5.13 1.47 14.85 4.93 15.42 6s-.8 6.65-.58 9.3c.36 4.3 1.88 8.55 1.93 12.66a13.3 13.3 0 0 1-.25 2.63zm14.9-13.27c-.3 1.56-.74 4.83-1.8 6.4-1-.5-1.7-1.15-1.43-1.86a41.05 41.05 0 0 0 2-7.06c.46-2.63 0-6.4 0-10.38s1.24-6.74 1-7.34-2.83-1.42-6.14-2.13a72.71 72.71 0 0 0-9.88-1.13s-4.45-1.67-6.25-2.15a3.3 3.3 0 0 1-1.42-.75 14.42 14.42 0 0 0 1.81-2.51s11.28 2.33 15.08 3.4a63.68 63.68 0 0 1 8.6 3.49 46.45 46.45 0 0 1-.65 8c-.62 2.72-.54 12.16-.9 14.02z" class="AN"/><path d="M147.33 178.47c0 .17-.3.23-.6.24a3.84 3.84 0 0 1-.76 0l-.77-.4-2.18-1.34-.27-.2a8.71 8.71 0 0 1-.93-1.26c0 0-.1-.1-.24-.3h0a14.58 14.58 0 0 1-1.61-2.35 15 15 0 0 0-2.9-3c-.7-.6-6.3-6.62-10-10.75-1.4-1.58-2.52-2.86-3-3.5-1.8-2.34 4.38-9.62 4.38-9.62s4.48 6.32 5.53 8.1 7 13.4 7.64 14.44a6.69 6.69 0 0 0 3 3.17c2.07 1.15 3 1.63 3.14 2.07a37.24 37.24 0 0 1-.44 4.68z" class="AF"/><path d="M140.56 172.94c.25.35.54 1.33 1 2.26a15 15 0 0 1-1.6-2.35 15 15 0 0 0-2.9-3c-.7-.6-6.3-6.63-10-10.76.48-.2 1-.43 1.56-.63 0 0 3.83 3.3 4.78 5.13a70.16 70.16 0 0 0 5.29 6.94l1.87 2.4zm6.18 5.76a4.79 4.79 0 0 1-.76 0l-.77-.4-2.18-1.34c1.5.93 2.36-2.33 2.36-2.33l1.32.33.03 3.73z" class="AG"/><path d="M127.48 175.25c0 .23-1.26 4-1.5 5.5s-2.74 4.32-3.7 5.23-6.1-.72-13.38.5a17.19 17.19 0 0 0-9.83 5.82 16.66 16.66 0 0 0-1.39 1.86 2.86 2.86 0 0 1-1-.79 71.57 71.57 0 0 1-4.3-10.36c-1-3.06-1.5-10.08-1.55-16.38v-3.2c.13-6.93 3.64-15.23 4.28-15.83s7.58-8.52 10.48-10.36a40.78 40.78 0 0 1 7.52-3.35 42.31 42.31 0 0 1 9.64-1.24c3.88.2 6.1 3.95 6.76 6.2s.92 13.52.56 17.37-2 8.26-2.36 10.9-.2 7.9-.23 8.12z" class="AR"/><path d="M109.32 133.36s-.46 3.32-1.06 3.88-2.6.88-2.8 2.12 1.94 4.72 6.4 7.05 5.15 2.47 8.06 1.55 1.47-9.72 1.35-9.92-11.94-4.68-11.94-4.68z" class="AF"/><path d="M113.26 138.88a45.51 45.51 0 0 0 3.67 3.81 20.37 20.37 0 0 0 4.67 2.55 17.2 17.2 0 0 0 2.15.35 8.32 8.32 0 0 0 1.5-3.33c.12-1.5-1-4.88-3-5.33s-8.24.18-9 1.95z" class="AG"/><path d="M145.14 173.8a16.85 16.85 0 0 0 .71 2.07 8.22 8.22 0 0 0 .8.86c0 0 1.38 1.56 1.63 1.9s.06.94-.94.8a5.78 5.78 0 0 1-2.36-1.56c0 0-2.12-1.56-2.54-1.82a11.65 11.65 0 0 1-1.87-2.21 1.69 1.69 0 0 1-.25-1.62c.23-.45 2-.33 2.93.24a16.48 16.48 0 0 1 1.89 1.33z" class="AM"/><path d="M96.63 184.9a66.2 66.2 0 0 0 2.44 7.41 16.75 16.75 0 0 0-1.4 1.86 3 3 0 0 1-1-.79 71.52 71.52 0 0 1-4.29-10.36c-1-3.06-1.5-10.08-1.55-16.38 4.13-5.2 8.76-8.82 11.1-3.5l-2.58 7.45a10.76 10.76 0 0 1-2.39 3.7c0 0-.57 8.96-.32 10.62z" class="AJ"/><path d="M130.8 147.63s-1.13 5.8-1.9 6.66-4.26-11.44-4.26-11.44l1.3-9s2.37.13 3.87 4.57a24.81 24.81 0 0 1 1.01 9.21z" class="AI"/><path d="M121.48 118.38a13.44 13.44 0 0 1 3 5.57c.9 3.44.66 4.48.86 7.7s-.77 8.5-1.23 9.12-.57 1-3.38.76a16.57 16.57 0 0 1-8-3c-1.9-1.47-5.74-8.14-6.2-9.77s2.7-10.2 6.74-10.8a23.41 23.41 0 0 1 8.2.43z" class="AF"/><path d="M122.32 121.63a6.76 6.76 0 0 1-4.42 3.29l-5.62.84.33 3.4a7 7 0 0 1-.92 1.9v1.6l-1.3.28s-.13-2.8-2.07-2.8.34 4.2.34 4.2l-.8.1a25 25 0 0 1-4.39-7.58c-1.46-4.27.6-9.46 3.95-11a16.44 16.44 0 0 1 11.07-1c4.24 1 5.86 8.63 5.86 8.63l-.48-.4s-1.46-2.63-1.48-2.3-.07.8-.07.8z" class="AS"/><g class="AM"><path d="M111.07 134.24a.89.89 0 0 1-.57 1.12.78.78 0 0 1-.3 0c-1.17.1-2.18-.9-3.12-2.76s-.36-2.3 1-2.47 2.18 1.72 2.24 2.13a16.31 16.31 0 0 0 .75 1.98zm3.77-8.12a13 13 0 0 1-.87 3.13c-.42.54-.8 1.93-.55 4.14s.68 3.06 1.7 3.47 3 .52 3.8-.4a2.5 2.5 0 0 0 .65-2 13.61 13.61 0 0 1-3.16-.56 2.22 2.22 0 0 1-1.2-2.33 6.93 6.93 0 0 1 2.36-1.48l4.27-1.46c.46-.3.35-1.5-.2-2.74a5.94 5.94 0 0 0-1-1.41 18.89 18.89 0 0 1-5.78 1.64z"/><path d="M122.44 129.34l1.36 3.4c.48 1.16.62 1.76.47 1.82a6.07 6.07 0 0 1-1.95.05c-.52-.14-.88-.84-.88-.84l.9-.88-.87-4.65h.6z"/></g><path d="M80.92 203.15v.2c.1 12.87 9.2 28.48 20.37 34.92l.12.07c3.85 2.2 7.46 3 10.52 2.64 5.85-.75 9.74-5.9 9.74-14.33 0-12.9-9.13-28.63-20.38-35.13-4.35-2.5-8.36-3.27-11.67-2.52-5.27 1.2-8.7 6.22-8.7 14.14zm2.63 3.32c0-4.82 1.55-8.32 4.12-10.16h0a7.23 7.23 0 0 1 1.9-1 7.11 7.11 0 0 1 2.68-1.5 2.3 2.3 0 0 1 .34-.12 9.45 9.45 0 0 1 2.06 0h0a15.46 15.46 0 0 1 6.62 2.23c9.17 5.3 16.62 18.12 16.62 28.64a15.6 15.6 0 0 1-1.28 6.57 8.52 8.52 0 0 1-4.76 4.65h0a7.59 7.59 0 0 1-3.13 1.63 14.14 14.14 0 0 1-8.56-2.23c-9.18-5.3-16.6-18.12-16.6-28.64z" fill="#454545"/><path d="M79.9 203.33c0 12.9 9.12 28.65 20.37 35.14 4.34 2.5 8.37 3.27 11.67 2.53 5.27-1.2 8.72-6.22 8.72-14.15 0-12.9-9.14-28.63-20.4-35.14-3.9-2.25-7.54-3.1-10.64-2.7-5.83.75-9.73 5.88-9.73 14.3zm20.27 31.78c-9.17-5.3-16.6-18.12-16.6-28.64 0-4.82 1.55-8.32 4.12-10.16h0a7.94 7.94 0 0 1 3.9-2.44c.22 0 .46-.06.68-.07a12.27 12.27 0 0 1 4.88.79 18.48 18.48 0 0 1 3.12 1.46c8.78 5.07 16 17 16.57 27.27 0 .46.05.92.05 1.38 0 4.83-1.56 8.34-4.16 10.2a9.53 9.53 0 0 1-.85.83h0a7.69 7.69 0 0 1-3.14 1.63 14.14 14.14 0 0 1-8.56-2.23z" fill="#585858"/><path d="M78.55 204.54c0 12.9 9.12 28.65 20.37 35.14s20.38 1.3 20.38-11.62-9.13-28.63-20.38-35.13-20.37-1.3-20.37 11.6zm30.17 32.8a14.14 14.14 0 0 1-8.56-2.23c-9.17-5.3-16.6-18.12-16.6-28.64 0-6.27 2.63-10.3 6.7-11.4a13.93 13.93 0 0 1 8.68 2.18c9.17 5.3 16.62 18.12 16.62 28.65 0 6.3-2.68 10.37-6.82 11.45z" fill="#292929"/><path d="M80.8 205.83c0 11.5 8.12 25.5 18.13 31.28a19.25 19.25 0 0 0 2.49 1.24c7.54 3.17 13.6.2 15.22-7.3a19.9 19.9 0 0 0 .44-4.29 26.85 26.85 0 0 0-.24-3.47c-1.38-10.7-8.87-22.6-17.9-27.8a23.58 23.58 0 0 0-1.78-.93 19.38 19.38 0 0 0-2.47-.95h0c-7.25-2.2-12.82 1.6-13.74 9.74a20.44 20.44 0 0 0-.14 2.47zm19.37 29.28c-9.17-5.3-16.6-18.12-16.6-28.64 0-4.82 1.55-8.32 4.12-10.16h0a7 7 0 0 1 1.9-1 4.64 4.64 0 0 1 .66-.22 13.93 13.93 0 0 1 8.68 2.18c9.17 5.3 16.62 18.12 16.62 28.65 0 3.93-1 7-2.82 9a9.53 9.53 0 0 1-.85.83h0a7.59 7.59 0 0 1-3.13 1.63 14.14 14.14 0 0 1-8.57-2.27z" fill="#aeb9b9"/><path d="M82.3 206.72c0 10.52 7.44 23.35 16.6 28.64 3.67 2.12 7.05 2.7 9.8 2a14.14 14.14 0 0 1-8.56-2.23c-9.17-5.3-16.6-18.12-16.6-28.64 0-6.27 2.63-10.3 6.7-11.4-4.75.55-7.93 4.77-7.93 11.64z" fill="#edefef"/><path d="M97.18 196.34l1.5 19.87v.22l.06.13 10.17 20.63v.05l.37-.2h.07L99.1 216.26v-.06l-.06-.77v-.64l-1.35-18.16z" class="AP"/><g fill="#ccc"><path d="M98.33 234.52a2.26 2.26 0 0 0-.49-.25l.84-18.16 14.1-3.84.14.48-13.76 3.74z"/><path d="M98.65 216.36v.06l.05.06.08.1 1.25 1.53 13.14 16.07.4-.32-.12-.13-14.3-17.52.52-1.92 3.65-13.82-.4-.36-4.2 16.1z"/></g><g class="AP"><path d="M90.45 227.03l8.28-10.88.1-.13 16 3.48-.1.5-15.64-3.36-8.2 10.78a1.7 1.7 0 0 0-.42-.38z"/><path d="M86.62 196.73l12.5 19.44 4.7 21a2.32 2.32 0 0 0-.52-.07l-4.62-20.65-12.4-19.3a2.05 2.05 0 0 0 .34-.43z"/><path d="M83.44 211.72a2.48 2.48 0 0 1 .12.54l.7.2 14 3.9.5.13h.28l.06-.1.1-.17 6.9-13c-.1-.14-.24-.27-.36-.4l-6 11.45-.6 1.12-.13.26-.17.32h-.3l-14.37-4z"/></g><g fill="#ccc"><path d="M87.3 221.93v.3a1.29 1.29 0 0 0 .17.16l.55-.27 10.78-5.5h.15l.16-.07.13-.06v-.2l-.18-.5-.1-.23-.3-.8-7.36-19.65h-.53l7.93 21.2-.36.2-10.53 5.12z"/><path d="M82.95 205.3l16 10.72 13.2-3.7.14.48-13.4 3.8-16-10.7a2.75 2.75 0 0 0 .07-.62z"/></g><path d="M103.96 219.35c0 3.26-2.3 4.57-5.13 2.93a11.29 11.29 0 0 1-5.14-8.86c0-3.25 2.3-4.56 5.14-2.92a11.3 11.3 0 0 1 5.13 8.85z" fill="#bede74"/><path d="M103.66 219.44c0 3.26-2.3 4.57-5.13 2.93a11.29 11.29 0 0 1-5.14-8.85c0-3.26 2.3-4.57 5.14-2.93a11.3 11.3 0 0 1 5.13 8.85z" fill="#e3f9b1"/><path d="M164.93 241.55l1.32-.76c.58-.34.57-1.44 0-2.47s-1.54-1.6-2.12-1.26l-1.32.76z" transform="translate(-66.93 -22.37)" fill="url(#E)"/><path d="M98.07 219.16c.58-.33.57-1.44 0-2.47s-1.54-1.6-2.13-1.25-.57 1.44 0 2.47 1.5 1.58 2.13 1.25z" class="AX"/><g fill="#cfcfcf"><path d="M125.33 248.63h1.93v-9l-6.08-30.05a21 21 0 0 0-9.11-13.43l-28.2-18.3v-19.6a11.18 11.18 0 0 0-5.07-9.39c-.52-.35-1.05-.87-1.74-.72a1 1 0 0 0-.74 1.15v.16c.24.47 1 .76 1.38 1a9.24 9.24 0 0 1 4.19 7.77v20.65l29.2 18.9a19 19 0 0 1 8.25 12.13l6.06 30z"/><path d="M95.68 217.2h0a1.44 1.44 0 0 0 1.94 0h0v-29.56h-1.94z"/></g><path d="M87.3 178.84a13 13 0 0 1 4.85 1.95c2.42 1.6 21 12.67 20.9 13.85a16.76 16.76 0 0 0-.13 2.12l-2 1.08s-.28.48-2.58-.43-21.56-14.2-22.16-14.88 1.12-3.7 1.12-3.7z" class="Aa"/><path d="M109.5 195.88c-2.2-.87-20.65-13.44-23-15.3a15.57 15.57 0 0 1 .83-1.75 13.09 13.09 0 0 1 4.86 1.95c2.3 1.53 19.2 11.58 20.76 13.6v.24a2.7 2.7 0 0 1-3.45 1.25z" fill="#764d4a"/><path d="M89.32 174.12c0 .35 1.7 15.52 2.17 18.84s1 4.65 1.7 5.7a10.65 10.65 0 0 0 .49.62c1 1 2 2 3 2.9l2.6 3.55a4.29 4.29 0 0 1 .47 1.25c0 .25-.45.43-.92.5h0-.42c-.6 0-2.06-1.66-2.08-1.8s-1.18-1.23-1.33-1.1a4.35 4.35 0 0 0-.38 2 3.64 3.64 0 0 0 .74 1.45 3.91 3.91 0 0 1 .68 1.37l-.08 1-2.1-.22-2.08-.72a13.38 13.38 0 0 1-1.41-.11c-.37-.08-1-1-1.4-1.48s-.2-.9-.8-2.15.12-4.26-.32-5.33-2.57-7-5.12-13.26a42.18 42.18 0 0 1-2.93-13.76c.06-.73 2.77-5.88 5.8-10.33l1.28-1.88 6.3-9.08c2.35-3.06 12.7 4 12 5.3s-15.8 16.4-15.82 16.76z" fill="#fab690"/><path d="M105.14 157.35c-.74 1.33-15.8 16.42-15.82 16.77s16.55-18.1 15.82-16.77z" fill="#faaf85"/><path d="M99.8 206.96c0 .25-.45.43-.92.5h0l-1.84-1.74c-.2-.22-2-2-2.2-1.83a5 5 0 0 0-.6 2.06 2.73 2.73 0 0 0 .51 1.77 16.35 16.35 0 0 1 1.32 1.69c.27.5.14 2.33-.48 2.13-.4-.13-.93-.86-1.23-1.32l-.24-.4a19.35 19.35 0 0 0-2.37-1.5 1.22 1.22 0 0 0-.74.18c-.1.1-.12.33-.74.25s-1.38-2-1.38-2a38.76 38.76 0 0 1-.26-4c.1-.5.26-2.17.26-2.17s-5.05-10.92-6.48-17.6a84.19 84.19 0 0 1-1.76-10.71c0-.15 6.24-11.14 6.24-11.14l.48 2.3a38.66 38.66 0 0 0 3.52 4.43l1 1.07s-3.54 4.75-3.57 5.1.67 6.47.57 7.72 2.8 15.32 3.07 16.22a4.66 4.66 0 0 0 1.77 1.3c1 1.17 3 2.9 3 2.9l2.6 3.55a4.29 4.29 0 0 1 .47 1.25z" class="AF"/><path d="M96.96 168.63s7.5-7.54 8.87-11 1.6-8.5-2.67-11-5.62-1.53-7.83.1-9.58 15-9.58 15 1.2 4.83 11.2 6.9z" class="AI"/></svg>